<mxfile host="app.diagrams.net" modified="2021-06-12T04:00:46.402Z" agent="5.0 (Windows NT 10.0; Win64; x64) AppleWebKit/537.36 (KHTML, like Gecko) Chrome/91.0.4472.101 Safari/537.36 Edg/91.0.864.48" etag="bXYQzk6YMHUz8EoyUS-7" version="14.6.6" type="github">
  <diagram id="KrDJqOjjvGCEzh6k1AIw" name="Page-1">
    <mxGraphModel dx="1242" dy="798" grid="1" gridSize="10" guides="1" tooltips="1" connect="1" arrows="1" fold="1" page="1" pageScale="1" pageWidth="850" pageHeight="1100" math="0" shadow="0">
      <root>
        <mxCell id="0" />
        <mxCell id="1" parent="0" />
        <mxCell id="roQAEabi5F3PTRrzKzNt-1" value="" style="shape=image;verticalLabelPosition=bottom;labelBackgroundColor=#ffffff;verticalAlign=top;aspect=fixed;imageAspect=0;image=data:image/png,iVBORw0KGgoAAAANSUhEUgAABCoAAAJYCAYAAACkbwc6AAAgAElEQVR4Aey9B3hVZbr2z5nvtDkz/5lvvjNnypkzZxwd66h0EQUBFZEmza6IijQVASmCCgj2AoqiUiR0BATpJYWSRg/pIRAg1EAIJITe7//1vHFnAgKGZJOsvfPb17XYyd5rvetdv3XnWeu5ed53VRIvCEAAAhCAAAQgAAEIQAACEIAABCDgEQKVPNIPugEBCEAAAhCAAAQgAAEIQAACEIAABIRRgQggAAEIQAACEIAABCAAAQhAAAIQ8AwBjArPnAo6AgEIQAACEIAABCAAAQhAAAIQgABGBRqAAAQgAAEIQAACEIAABCAAAQhAwDMEMCo8cyroCAQgAAEIQAACEIAABCAAAQhAAAIYFWgAAhCAAAQgAAEIQAACEIAABCAAAc8QwKjwzKmgIxCAAAQgAAEIQAACEIAABCAAAQhgVKABCEAAAhCAAAQgAAEIQAACEIAABDxDAKPCM6eCjkAAAhCAAAQgAAEIQAACEIAABCCAUYEGIAABCEAAAhCAAAQgAAEIQAACEPAMAYwKz5wKOgIBCEAAAhCAAAQgAAEIQAACEIAARgUagAAEIAABCEAAAhCAAAQgAAEIQMAzBDAqPHMq6AgEIAABCEAAAhCAAAQgAAEIQAACGBVoAAIQgAAEIAABCEAAAhCAAAQgAAHPEMCo8MypoCMQgAAEIAABCEAAAhCAAAQgAAEIYFSgAQhAAAIQgAAEIAABCEAAAhCAAAQ8QwCjwjOngo5AAAIQgAAEIAABCEAAAhCAAAQggFGBBiAAAQhAAAIQgAAEIAABCEAAAhDwDAGMCs+cCjoCAQhAAAIQgAAEIAABCEAAAhCAAEYFGoAABCAAAQhAAAIQgAAEIAABCEDAMwQwKjxzKugIBCAAAQhAAAIQgAAEIAABCEAAAhgVaAACEIAABCAAAQhAAAIQgAAEIAABzxDAqPDMqaAjEIAABCAAAQhAAAIQgAAEIAABCGBUoAEIQAACEIAABCAAAQhAAAIQgAAEPEMAo8Izp4KOQAACEIAABCAAAQhAAAIQgAAEIIBRgQYgAAEIQAACEIAABCAAAQhAAAIQ8AwBjArPnAo6AgEIQAACEIAABCAAAQhAAAIQgABGBRqAAAQgAAEIQAACEIAABCAAAQhAwDMEMCo8cyroCAQgAAEIQAACEIAABCAAAQhAAAIYFWgAAhCAAAQgAAEIQAACEIAABCAAAc8QwKjwzKmgIxCAAAQgAAEIQAACEIAABCAAAQhgVKABCEAAAhCAAAQgAAEIQAACEIAABDxDAKPCM6eCjkAAAhCAAAQgAAEIQAACEIAABCCAUYEGIAABCEAAAhCAAAQgAAEIQAACEPAMAYwKz5wKOgIBCEAAAhCAAAQgAAEIQAACEIAARgUagAAEIAABCEAAAhCAAAQgAAEIQMAzBDAqPHMq6AgEIAABCEAAAhCAAAQgAAEIQAACGBVoAAIQgAAEIAABCEAAAhCAAAQgAAHPEMCo8MypoCMQgAAEIAABCEAAAhCAAAQgAAEIYFSgAQhAAAIQgAAEIAABCEAAAhCAAAQ8QwCjwjOngo5AAAIQgAAEIAABCEAAAhCAAAQggFGBBiAAAQhAAAIQgAAEIAABCEAAAhDwDAGMCs+cCjoCAQhAAAIQgAAEIAABCEAAAhCAAEYFGoAABCAAAQhAAAIQgAAEIAABCEDAMwQwKjxzKugIBCAAAQhAAAIQgAAEIAABCEAAAhgVaAACEIAABCAAAQhAAAIQgAAEIAABzxDAqPDMqaAjEIAABCAAAQhAAAIQgAAEIAABCGBUoAEIQAACEIAABCAAAQhAAAIQgAAEPEMAo8Izp4KOQAACEIAABCAAAQhAAAIQgAAEIIBRgQYgAAEIQAACEIAABCAAAQhAAAIQ8AwBjArPnAo6AgEIQAACEIAABCAAAQhAAAIQgABGBRqAAAQgAAEIQAACEIAABCAAAQhAwDMEMCo8cyroCAQgAAEIQAACEIAABCAAAQhAAAIYFWgAAhCAAAQgAAEIQAACEIAABCAAAc8QwKjwzKmgIxCAAAQgAAEIQAACEIAABCAAAQhgVKABCEAAAhCAAAQgAAEIQAACEIAABDxDAKPCM6eCjkAAAhCAAAQgAAEIQAACEIAABCCAUYEGIAABCEAAAhCAAAQgAAEIQAACEPAMAYwKz5wKOgIBCEAAAhCAAAQgAAEIQAACEIAARgUagAAEIAABCEAAAhCAAAQgAAEIQMAzBDAqPHMq6AgEIAABCEAAAhCAAAQgAAEIQAACGBVoAAIQgAAEIAABCEAAAhCAAAQgAAHPEMCo8MypoCMQgAAEIAABCEAAAhCAAAQgAAEIYFSgAQhAAAIQgAAEIAABCEAAAhCAAAQ8QwCjwjOngo5AAAIQgAAEIAABCEAAAhCAAAQggFGBBiAAAQhAAAIQgAAEIAABCEAAAhDwDAGMCs+cCjoCAQhAAAIQgAAEIAABCEAAAhCAAEYFGoAABCAAAQhAAAIQgAAEIAABCEDAMwQwKjxzKujIlRA4cuSIDh06pEOHDrPAAA2gATSABtAAGkADaAANoAE04HkNHNKRI0eLlfZhVBQLEyt5icDJkyfVtu1zuu++xmrS5CEWGKABNIAG0AAaQANoAA2gATSABjyugQYNHlCXLq8UK7XEqCgWJlbyEgEzKpo1a6kqVe5QrVp1WGCABtAAGkADaAANoAE0gAbQABrwuAZuv726nnyyXbFSS4yKYmFiJS8RMKOiVatHVLPm3apTpwELDNAAGkADaAANoAE0gAbQABpAAx7XQPXqd+qZZ9oXK7XEqCgWJlbyEgGMCswZDCo0gAbQABpAA2gADaABNIAGAksDGBVeyqrpi98JYFQEVkDiAsL5QgNoAA2gATSABtAAGkADaACjwu+pMQ16iQBGBUGOCx0aQANoAA2gATSABtAAGkADgaUBjAovZdX0xe8EMCoCKyBxAeF8oQE0gAbQABpAA2gADaABNIBR4ffUmAa9RACjgiDHhQ4NoAE0gAbQABpAA2gADaCBwNIARoWXsmr64ncCGBWBFZC4gHC+0AAaQANoAA2gATSABtAAGsCo8HtqTINeIoBRQZDjQocG0AAaQANoAA2gATSABtBAYGkAo8JLWTV98TsBjIrACkhcQDhfaAANoAE0gAbQABpAA2gADWBU+D01pkEvEcCoIMhxoUMDaAANoAE0gAbQABpAA2ggsDSAUeGlrJq++J0ARkVgBSQuIJwvNFAxNXD33fV11131zlvss2DVg+94vXB8vr74+P8U97p173XnqWrVO1Sz5l1+P0e+/vxUPy5kV9LtLmyH3ytmDOK8c97RgPc0gFHh99SYBr1EAKPCe0GHCwHnBA2gAZ8GLLm88866brGfLQn2Lb51Svpe0O49fk+kS9of33ZmCPiO2X72fV4e73feeY9q176nkHlx2NeqVUetWj2q6dNn6q233pGdN1v81f/i9MG3L9tvrVp1nXHi287efd/zTqxBA2gADQSuBjAqvJRV0xe/E8CoCNzgxIWFc4cGglsDlmRaon7PPfdr+vQZ2rAhXXFx6xUXF6916+L08svd3P/YlzQJbtiwiWzxko7MGGjUqJlCQ8OUnJyiVq0ecaZFefTRDIcnnnhGK1asVEJCYiH7d955X/bdpbgX3Dg+r9zcPHfefOextMfg29+IEaO1evUavfLKq5et2LD169W73/G0fb/33odON4MGveP6X9r+sH1wxx/OL+cXDXhfAxgVfk+NadBLBDAqvB+EuFBwjtBAxdRAjRq1XaKclrZBOTn7NWTIpy5xb936MbVp87juv7+xMzLsRqVGjfOHGFSvXls29MCSVVuqVLlDt99e3S233lrVfRcevkShoRGy/VjibaZI5co1C9ez9W3ogm1frdqd531euXINt12VKv9Y3/phWrX/sbe2bP++fVq7VplglRK2re9za7/o//Dbev36vVF4mRwy5DPdccfdrg/WZtH9+dqw9i42zML6U61aLXdsRbezz22f1p+ifTFGtg/7zvbZosXDio1dqdTUVLVr114tWrRx3B98sJnrj3Gzxfj4/kbteG666TY9+eQz2rlzl775Zqxuu62ajLn11/pj61+4b9/ntl/fcdm7tWfn0veZ9bdBgwf0wANN3XsBz3+cA9961i/bb9u2z2n79p3q2/dNt++GDRvr3nsbuf5ejKdtZ8di+/W15Xu3fVu/fcfKe8WMS5x3zjsa8I4G7Hr2zDPtC6+Zl/uh0uW+5DsIeJEARoV3gg2Bn3OBBtCATwOWENard59mzZqjI0eO6KWXXnFJuiWyZirYUrDO/erY8UWXSBcYBAXDQ154obO6d+/lklJLjHv27KNPPvlUlvh/8MHHGjp0mHbt2qUdO3bq44+HqGnTli5J79v3Dbfep59+7v4H/pFHnnDmQufOL6t//0F6990P3Lb9+7+lJ55oq969++rjj4e6zy2Zt2EGvr7Z/m2ftliifN99jdS8eSu9/voADRz4ttuuU6cX3XH4kvc6de7V99/P1v79B1xFQkJCgjNkLCFv1KipBg9+V0OHfub6YMcxcOBg95nt6+mnn1Xdug0KzQbj8vLL3dW69aOunwMGDNKHH36iV1/t4xJxqzZ4440Brq2PPhrieBlD25cZMy+++IoyM7frnXc+0K23VnNmkO/Y7Dw9/3xHtW/fyVUtWP9teeaZ512li+1769ZMRUVF6+233y/k3rFjF2eCmFlgDOx8GJ8ePXq7flsFiY+x9enZZzu4fRh7q+Swz6ySplu3nq5Sws7ba6+94c6NVUzYebPtzSh58sl2rqLj9OnTiohYqrfeelu9e/dTy5YPFxpQpgs7f7bd++9/pKeeauf6Zyxtn9ZH26f10fZj/TaDw6dT3olZaAANoIHy0wBGhReza/rkNwIYFeUXXAjssEcDaOBSGrD/0bZkc//+/fruu5m6884CY6Lo+mZUNGz4oCIjozVjxveqX/9+ZxTcc899smoJMyGaNWupfv3e1L59OVq4cLHmzJmvlStXacGCRcrK2qM9e/Zq/PiJ6tKlqyZP/lbnzp3VggWLNXHiZLf9xo0b1aFDF61atcpdd3bu3On6Y+ZJRsZmHT58xO3LPjfjwxL1+vUbauTIb9x3c+fO17x5C2TXGvvMkn7fa+nS5c5AMWPAknyrKrAEPycnR19/Pcqtf+jQIb355kBXMdG0aQt9802IO9YJEya7IRnWllWcJCQkadKkKbJjNzPB+mBcrBrChjpYf+21atVql4A3a9ZKs2bN1aFDh/Xtt9OcoXD8+HFnzhjXO+6o44bFREXFaO/ebJekW0WBGUW+RH3BgoUKDQ131Q12DPb5tGkztHt3lszIsX7Zy0yXKVOmKjU1Tfn5+c4cGTNmnLKzs92x2DCX8eMn6fnnOyklJdXtz/pk59CMDHu3l53DadO+k3E7evSoY/XSS91kRoS9zBiZMGGS2z4zc5ur5li6dJmOHz/hhorExye49QYNelsNGjTU2LHjde7cOUVELHHbbdy4yZ3zDh1edP1xK0uOjR2nvUJCxjkjx85XUS3yM7EMDaABNFD2GsCo8F2peA9KAhgVZR9UCOQwRwNo4Kc0YAmxVShkZGzR4MHvuWqKC7exhPr++x90ybKZDEWNCjMHbE6Lxo0f0uzZ81wCeu+9D+jmmyvr7ruttP9uRUfHyhLxm2++XYMGvasTJ05q6NDP3fCP6667SW3bPuvMjDVr1mrt2nXONOnatYeuu+5mlzDbRdES8Ntuq65evV5z248cOVpWfWEmyRdffOW+s+/Hjp3gEvbZs+e6ZN0SXztGG7JRUAlST7Vr13PJ8/Hjx1wp60MPtdapU6e0eHGoqwCw47399hq6/vq/O0Nm8eIwrVu33g1vWLQoVOPGTTzPqLB9WL+tksKS/Pj4RFcRYNtb9cCuXbudiXPjjbeqdu26WrJkmfvs0UefcmaHmUXWh3nzFurw4cNu3gwzj8xQsXMxc+YszZkzzxkaPqPCDJRNmzKcGWFGzrZt22XVLddee6OaN2/tzokNCdmzZ4/CwyP0979XdYxsrhAzIMxssH1Yn8wssYoJO45jx47p9df764YbblVIyHgdOJDrKi3MYMrPPygzIWwCz2uuuUEdOnR235sRYxqyYUOvvfa6q2o5ePCgrGqmV6++rk0zfuxG99prb3Lb2/5tPg4zvo4dO+5MLBtWZCzM+LG2rNrCzKAL9cjvxDU0gAbQQNlqAKMiKNNzDspHAKOibAMKARzeaAANFEcDlhg+++wLruLByu4tob9wO59RYQm7Jcg2VMSGXtSte59LoNPTN7pE14YwbN++QxkZGerT5/XCJNMmZIyJWeGqD+bOXaBNmza76gDfvAuWkI8ePUaJicku+bb/7bcKDRsW8eWXI5WXd9ANWTAj4tFHn3RJuVViDBv2pY4cOepMhNWr18qMjqSkZPc//WFh4dq7d68zCnz7seOy47VEPjMz083tYNUFNkfE+vUJ2rFjhx577Gm3jhkCBcND5jjz4bnnOjguVnVgCbyZHpZE27AOMy8KjIrBbt9mlth+bH/z5y9UXl6eq7CwiUmt0sIqCqwqxOZ1MBPF1rM+Wptdu3bXhg0bZJUj3bv3dJ9bMv/993MKh6ZYRYWZJQVGxUBt2bLVVWuYKWTnyubJsHNplRZTp05353bFilVufw8//Lj73SotrHLDKhbsOKxCxIZt2PmzdapWraWJE6c408eGnVhFhZkHNgzGzpf1wfr83XcznPFhwzWsosOqSszwys3N1YABg13FhBk1Nu+GnU87VuvfZ5997s6VmTZ2nqyaxuYNMe4fffSpq3YxFj6Oth0LDNAAGkAD5aMBjApfRst7UBLAqCifwEJAhzsaQAOX04Algo899pSrTJg7d55LWu0zX/WBJdK22ISay5dHuf8Bv+eegiTdkmIbTmBGhc1HYImmVVbYMIzNm7e6/6G3eRtiY1dckVFhZoPNMWGTO44aNcbNIWHzPZiJYkbF1q3b3P/A27AN+x9/mx+iSZMWsnkuzISwJNrmT7DqBpvbouj/ytv/2ltbNhTBqjHM3LDFqhLs9fnnw91+7KbMKjVsSIhVBtgklQ880MQdy5Qp01zSbFws0V+2LNIZFTaPxe7du91cHAUGRH2FhUVo8+Ytbh6Hhx5q4/pofbUhI8bYzo1xtKTfuNsxGmszDVJS0tzxzJw523G+774HXSJv69mQDevzG28MdNUR48aZOXK3+97aMDOlwCB4WI8//rRiYmJlwzSsP8bFuPpMKd/5tkoLq3Jo3Li568uFRoVtZ0aEnRfrs5kK1k/jZ8aUDR8qiVGRlZXlqmN87X700VA3XOXFF7tiVGDQYFChATTgAQ1gVARles5B+QhgVJAsXS5Z4jv0gQbKRwOW1FvSOXz4CBeu7X/aLeG98cbbXJJoky42bNjUVQ5YUmr/q24VGH/96w1uksd9+/a5YQatWj3sJl20JPuvf71Rb775lmvvvfc++mHoR7RuuunSQz9sfgarSrChBfa4UBsKUdSo6NnzNZdYm6li/+s/enSIbHiIDZUYNeob3XJLZTccwY7FJt+0STytzaJGhX1nw1bMcLGhEm3bPu+O0YwMqyLYuXO3kpOTZU+ssEdymgFj827YEBQbIlGzZm03j4JVANgEksagc+eXXPWAVXRYBYHPqLAk3owAmzzS5q0wHn/72y2yoS42UaQxtKdq2Ho27MImzDTjwoaLmMlhwx+2bdvmDCAbbnP06BE3saWxNUPGvrNKChumYaaQzZ1hn19//S1uGEZ29j53nG3aPObOr+3XjIczZ866YTZWbWHn1vZnk4/aMBAzXIz/xYwKG/phlS1Llix1Q1BsaIhVUZw8eUpffTXSTQhqlSPFHfph/BMTk2RDdGz+EmvfZ1R8/PGnGBUeSEyIyeUTk+EOdy9qAKPCl9HyHpQEMCoIvF4MvPQJXaKBBi4xtsdQ2qSHZ86cccm4JbWLFi3WqlVr3BwFNhTAkkkr77cKAft+79497nplCbMl2x988JH7H3mbiNGGN9jQBDMNbBJFm7PAhit07tzVzTdhk2nasAiblNGMBzMpbHiFmRSWhPuGCtg2p06ddkmxDRmw9qwPNpmkJfaTJn3r+mx9tWEp0dExioyMchUFtk8zGsyIsMoHMwXsSRY2maUZMr4hDGZgWEXD8OFfueOx6gRL9G37qVOnueETdkzDhg13/bAqDjMxbFJNm5DTXvbUEBvyYNvYsAZr0/ZrFR7Lli13+7QhHLaNrWvHbvNFmJlhJoFVMpg5YUNazDA4eDBfNhmlmRZPP/2cG6Zi803YMdr8DvayigmbTNMqQ+xl58GGetgQFps3xCopjK9Namr9t4oHM5usQsSGnmzevNntz4aj2LHZI1LtvDVp8pAzcKZPn+nmA7GJRzt1eskZFbYfGyZj/M0ksmoZq7Ax4yU//5Di4tYrLi7e9cc3mabxtAoWq+aw82nsbMLPdu1ekO3D5qiwqhgbGmLcPvtsuDNmGPpBfCY+owE04A0NYFS4yxr/BCsBjApvBBoCPucBDaCBCzVgCb8l1TapolUp2GMiP/10mJvnwB7x2ahRM/e9VV/YfAUFj6cc5oZX2KMlrfrA5mowE8Emj7THeto6Vv1gZkC7ds+7R3va/AY2pMPaufDxpDYcwoZlWMJqczNY1YElrU899axb14ZNmNFgyb1VV1hibEMWrCqhT59+rq9WvWB9t0klrULCHpFphoftz47ZzArrk1U32JAUa8/HoqCyoYWb/NEeQWrr2CNK7WkYVp1hi5kCtj9rv+A4h7lHeRoDm5+jdevHXAWHDU+xfVnb1kc7Npto09eWcbDHc9o61jebH6Iod3uMp5lC1idjYIvNZ2HDWewYja3t0/rZsuUjjpf9bp9bP99990NZJYWxtwlH7VGpdk7efvs9dy7NHLGnpli1i689q8YwQ8L6YcNSrF82QaZVTdhEqvaYUqumscfY2n7sWHzt2Q2srWOPPrVjs8Uex2o87PjtOC98PKlVc1g/CvbxujO67DhtXZtk1M6pmV++c+c7T7wTv9AAGkADZa8BjIpgzdA5LkcAo6LsgwqBHOZoAA1ciQYsKbTk8fbbqxcuVsVgn5uZYUmk/a930e/tZ9vGvrP//benZfi+N+PBtrNqBfvMJm+0ZNTas/ksfOvZuxkl1ldLrn3t2baW6Np2lrTb77at9cnXtrVnvxdty4YQmOlinxc1I6x924+1Z+/Wno+P/Wzr2jZ2jLZO0TbtZ+uX7f9iDKzf1qZtb/su2q5vn0Xbs+OydWy/BVxrnbc/a88+9/XRjqno9r7+WJ8vPGf2nbVv2/rY+7a1SVBtv+e3V8DDbkStcsa33wL2NV37Zg7ZHBVm1tgwm9tuq+b64+NYcF7+oZ2ijH3nzNcHezetFPTPzm9Npwvfsdp3xtHOre8zH0/eiWloAA2ggbLXAEYFCX1QE8CoKPugQiCHORpAA2gADZRWA3aDapNl2pAZq/Ywc8TMjNK2y/ZoEw2gATQQGBrAqAjqNJ2Dw6gIjEDEBYPzhAbQABpAA0U1YFUTNtTGJr60oSG+IRpF1+FnNIMG0AAaCF4NYFSQywc1AYyK4A1eXJg4t2gADaCB4NWADb/wDYsx04JzHbznmnPLuUUDaOBiGsCoCOo0nYPDqCDwXSzw8Rm6QANoAA2gATSABtAAGkAD3tUARgW5fFATwKjwbvDhwsC5QQNoAA2gATSABtAAGkADaOBiGsCoCOo0nYPDqCDwXSzw8Rm6QANoAA2gATSABtAAGkAD3tUARgW5fFATwKjwbvDhwsC5QQNoAA2gATSABtAAGkADaOBiGsCoCOo0nYPDqCDwXSzw8Rm6QANoAA2gATSABtAAGkAD3tUARgW5fFATwKjwbvDhwsC5QQNoAA2gATSABtAAGkADaOBiGsCoCOo0nYMzo6Jx4+a69dZqql69NgsM0AAaQANoAA2gATSABtAAGkADHtfALbdU1mOPPV2shLZSsdZiJQh4iMCpU6fUrdurTuRt2z4nFhigATSABtAAGkADaAANoAE0gAa8rYFHH31S/foNKFZmiVFRLEys5CUC586d08GDB3XgwAHl5uaywAANoAE0gAbQABpAA2gADaABNOBxDVj+dujQoWKllhgVxcLESl4iYEaFGRT79+93ZoUJngUGaAANoAE0gAbQABpAA2gADaAB72rA8jf7D+fivDAqikOJdTxFwIwKC0D79u1TTk4OCwzQABpAA2gADaABNIAG0AAaQAMe14Dlb3l5ecXKLTEqioWJlbxEAKMCcwaDCg2gATSABtAAGkADaAANoIHA0gBGhZeyavridwIYFYEVkLiAcL7QABpAA2gADaABNIAG0AAawKjwe2pMg14igFFBkONChwbQABpAA2gADaABNIAG0EBgaQCjwktZNX3xOwGMisAKSFxAOF9oAA2gATSABtAAGkADaAANYFT4PTWmQS8RwKggyHGhQwNoAA2gATSABtAAGkADaCCwNIBR4aWsmr74nQBGRWAFJC4gnC80gAbQABpAA2gADaABNIAGMCr8nhrToJcIYFQQ5LjQoQE0gAbQABpAA2gADaABNBBYGsCo8FJWTV/8TgCjIrACEhcQzhcaQANoAA2gATSABtAAGkADGBV+T41p0EsEMCoIclzo0AAaQANoAA2gATSABtAAGggsDWBUeCmrpi9+J4BREVgBiQsI5wsNoAE0gAbQABpAA2gADaABjAq/p8Y06CUCGBUEOS50aAANoAE0gAbQABpAA2gADQSWBjAqvJRV0xe/E8CoCKyAxAWE84UG0AAaQANoAA2gATSABtAARoXfU2Ma9BIBjAqCHBc6NIAG0AAaQANoAA2gATSABgJLAxgVXsqq6YvfCWBUBFZA4gLC+UIDaAANoAE0gAbQABpAA2gAo8LvqYpq1yEAACAASURBVDENeokARgVBjgsdGkADaAANoAE0gAbQABpAA4GlAYwKL2XV9MXvBDAqAisgcQHhfKEBNIAG0AAaQANoAA2gATSAUeH31JgGvUQAo4Igx4UODaABNIAG0AAaQANoAA2ggcDSAEaFl7Jq+uJ3AhgVgRWQuIBwvtAAGkADaAANoAE0gAbQABrAqPB7akyDXiKAUUGQ40KHBtAAGkADaAANoAE0gAbQQGBpAKPCS1k1ffE7AYyKwApIXEA4X2gADaABNIAG0AAaQANoAA1gVPg9NaZBLxHAqCDIcaFDA2gADaABNIAG0AAaQANoILA0gFHhpayavvidAEZFYAUkLiCcLzSABtAAGkADaAANoAE0gAYwKvyeGtOglwhgVBDkuNChATSABtAAGkADaAANoAE0EFgawKjwUlZNX/xOAKMisAISFxDOFxpAA2gADaABNIAG0AAaQAMYFX5PjWnQSwQwKghyXOjQABpAA2gADaCB4mlg//79YoFBSTTA31jx/sbgVHxOGBVeyqrpi98JYFQUPxgQOGGFBtAAGkADaKBiayA7O1ssMCiJBogdFTt2XI3zj1Hh99SYBr1EAKOCoHk1Aidtois0gAbQABoIJg3Y/6DvycpSUkICCwxKpIE9e/a4apxg+rvgWMo3zmNUeCmrpi9+J4BRUb4BhgAPfzSABtAAGkAD3teAz6iIj4sTCwxKogGMCu//nQdaLMao8HtqTINeIoBRQdAMtKBMf9EsGkADaAANlLUGfEZFwvr1YoFBSTSAUUHc8nfcwqjwUlZNX/xOAKOCoOnvoEl7aAoNoAE0gAaCTQMYFZgTJTEnim6DUUFc9HdcxKjwe2pMg14igFFB0PR30KQ9NIUG0AAaQAPBpgGMCoyKoqZDSX7GqCAu+jsuYlR4KaumL34ngFFB0PR30KQ9NIUG0AAaQAPBpgGMCoyKkpgTRbfBqCAu+jsuYlT4PTWmQS8RwKggaPo7aNIemkIDaAANoIFg0wBGBUZFUdOhJD9jVBAX/R0XMSq8lFXTF78TwKggaPo7aNIemkIDaAANoIFg0wBGBUZFScyJottgVBAX/R0XMSr8nhrToJcIYFQQNP0dNGkPTaEBNIAG0ECwaQCjAqOiqOlQkp8xKoiL/o6LGBVeyqrpi98JYFQQNP0dNGkPTaEBNIAG0ECwaQCjAqOiJOZE0W0wKoiL/o6LGBV+T41p0EsEMCoImv4OmrSHptAAGkADaCDYNIBRgVFR1HQoyc8YFcRFf8dFjAovZdX0xe8EMCoImv4OmrSHptAAGkADaCDYNIBRgVFREnOi6DYYFcRFf8dFjAq/p8Y06CUCGBUETX8HTdpDU2gADaABNBBsGsCowKgoajqU5GeMCuKiv+MiRoWXsmr64ncCGBUETX8HTdpDU2gADaABNBBsGvCOURGnhPUsJWNQvmYLRgVx0d9xEaPC76kxDXqJAEYFQdPfQZP20BQaQANoAA0Emwa8YVTEKyE+gaWkDNbHqySVEP7aBqOCuOjvuIhR4aWsmr74nQBGBUHT30GT9tAUGkADaAANBJsGyt2oiFun5NR0pW3erbSMnSxXymDzbiWnpCshbl25mRUYFcRFf8dFjAq/p8Y06CUCGBUETX8HTdpDU2gADaABNBBsGvCGUbFRaVv2Km1zFsuVMtiyV8kpGzEqcohNwRSbMCq8lFXTF78TwKggYAdTwOZY0DMaQANoAA1cDQ14x6jYU1BVYZUVLMVnsGUPRgUmha5GbCjPNjEq/J4a06CXCGBUcENXngGWfaM/NIAG0AAaCAQNYFQEuDGCURF0SXogxI2r3UeMCi9l1fTF7wQwKrhBvNpBlPbRGBpAA2gADQS6BjAqMCpKO6kmc1QQB/0dBzEq/J4a06CXCGBUEDT9HTRpD02hATSABtBAsGkgGI2KDVuy5PXFb8NbqKigoiIIh75gVHgpq6YvfieAUcHNZLDdTHI8aBoNoAE0gAb8rYHgMirMoNij1IxdSt2005NLyg/92piZrY2ZNoFoKSs6MCowKjAq/J5H0iAErioBjApu5vx9M0d7aAoNoAE0gAaCTQPBYlRYBYUZFGvjUxSzYo2iY1f7abG24hQdu9Yv7cWuWqely2O0OHyZ1iakucqPUpkVGBUYFRgVVzWnpHEI+J0ARgU3k8F2M8nxoGk0gAbQABrwtwaCw6iwx5ru1pq4ZIWFh2txaKgWh4b5YQnX4rAFWrx0lBaHz9DixRElbjM0NExhERGav3Cxxk+YqFGjRmnq9O+0LnGjqwIpsVmBUYFRgVHh9zySBiFwVQlgVHAz5++bOdpDU2gADaABNBBsGggGo8JVU2zaqWWR0c5ICAuP0JLwcC0LDyvdErZMS5dO05I1z2lp5NdaFhZZ4vaWhEdo0fwFmjR+vEJCxipk7DiNCRmr0IgopW8txaNZMSowKjAqrmpOSeMQ8DsBjApuJoPtZpLjQdNoAA2gATTgbw0Ei1GRnL5dEUuWKjQsXOHhEZodsVzTIqI0vbTLkuWatmy+pi8J1/SI6BK1N21JlD5fsEzDpszQFxOmaMz4iRo7brwzKuYuCMWoCMJE299/pxWtPSbT9HtqTINeIoBRwc1cRQvqHC+aRwNoAA2ggSvVQDAaFZHhYeqzLFkNo3erSfTOUi671CQqS02id5W4ncZRO9VwWaYaLNuuR0JTNGzyd5owdixGBQYF1SCX0ABGhZeyavridwIYFdysXenNGuujGTSABtAAGqhoGghGoyIqLFQvLk/X7TEHVC0mR9VLuVgbVWNyStVWjdgcVV6ZpweWbdPQKTM1MSQEo+ISSWpF+xvkeH983cGo8HtqTINeIoBR8eM/egIhTNAAGkADaAANoIGiGghWo+Ll5RtUNWa/asbs0x0lXGzbatH/WKpG71ON6JK3V23FAT24dCtGBQYFlRQ/oQGMCi9l1fTF7wQwKrgRK3ojxs/oAQ2gATSABtDAjzWAUXFx46F69D7dFpWte1flaMT2I4rNPamOiXnOuKgclV0iAwSj4sf6428SJhfTAEaF31NjGvQSAYwKAt/FAh+foQs0gAbQABpAA//QAEbFj42K26OynSHRJTnPGRS++9sjZ85p1I6jum9Vjm6NzJaZGbWuoFoDo+IfuuNvEBaX0wBGhS/q8B6UBDAqCICXC4B8hz7QABpAA2gADeQIo+IfRoUZDzdHZuvB1fs1cvsRHTp99qL3yOsOnlK31IOqHLVPf4/MLvbQEowKYg4xp3gawKi4aOjhw2AhgFFRvEBAwIQTGkADaAANoIGKqwGMin1uGEeVqGzdGbtPvTfkK+7gqZ+8HT529py+3X1Mj6w/4IaImMnxU3NhYFRU3L8zYuyVnXuMip8MQawQyAQwKq4sIBBA4YUG0AAaQANooOJpoKIbFTZhpk2Q+UJinsJyTujomXNXdPu77dgZDdp0SHVX5PzkRJsYFRXv74uYWrJzjlFxRWGIlQONAEZFyQIDARVuaAANoAE0gAYqjgYqrFERm6M71x7SHXHHVCf+mGYdLPmd7iFJ/XecVZW1R3Vn3BHdEbv/otUVGBUV5++KGFq6c41RUfJ4xJYBQACjonQBggALPzSABtAAGkADwa+BCmlUxOaoZmSWKk9fq5tGLtKfh85QzeHfa8jsUCUlJV3RXW7S9t3q+e0CVf1ipq77fJZumxitWisOqNaKH5sVGBXB//dEzPTPOcaouKIwxMqBRgCjwj+BgoALRzSABtAAGkADwauBimhU3LkmX1Xnp+mXVWrrV3/4k2o3bq5rHmihn1Wvr3/5zW/11lsDtW3nrsve+p6W9P3+06r19Wz94p6muuaBh/SnGnfpn//vb3XdWyNUa1We7ojNOa+yAqMieP+OiJH+PbcYFZcNP3wZ6AQwKvwbMAjA8EQDaAANoAE0EHwaqMhGxb/fUl23PfKcQg9LU49LTyfl65q3RqrSr/5L9zZuqvgdezRu9CjNmzv3vNviRdEr1HbwJ7p9wUbVXHdYT246rYE50vPx+/TruxrqF7fWUPWwraq1MhejIif4/maIg1f/nGJUnBdy+CXYCGBUXP0gQqCGMRpAA2gADaCBwNZARTYqfn5rTd3S6mnNyjqkNUdOKyz3pD7Ok24Z+KUq/fsv1eD9kbq+dVvVrXWHDh7Yr3xJI9L36i8Pt9e/PPS87ovaoS4bj+itbcf13s4T6ph5Vn955W3954OPqUb4NtVaeQCjAqNCxMgrj5EYFcGWmXM85xHAqLjyoEAghRkaQANoAA2ggYqlAYyKp/X97kOKOXRa0bnHFX3ojEYmbdUfrr9Zv3q4o24YHa7r6jfS4LnL9NK2s7pl8gr9xz3N1Chkvl7fdVYDNuapx4pN6rU2U3V6DdbP/3K9rv9gIkM/MCgwKEqhAYyK89Jafgk2AhgVFetGixtrzjcaQANoAA2ggSvXwNUyKpIS4pWemqINKclKTkxQwvr1F1/i1ik5daPStuxR2ubdJVo2bMlScvp2RSxZqtCwcEWFherl5RtUNWa/7PGjd1yw+Oao8FVU+IyKpQeOKyr/tBZm7tUtVarpznZd1CJ2p35Tv7n+u11P1VyZp2t7f6IbGzZXn4RdGrzrlHrFbddtLR/TdXXv06//5y/6VY16um1CVMGwD+aoIFkvRbJekeMZRkWwZeYcz3kEMCqu/GalIgdEjh29oAE0gAbQQEXUwNUwKlISE7RseZQmTJ6phYvCtXrlam1MS9XGtBSlJiUqMT7+H6aFx4yK6MPnNDUpQ3+9+Rb1eP9jLTwu3Tt0on7VrK2azozVjQ80V7N3hmnQzlN6MyPfLW9sytPg7cf18OxV+lXt+/Xza29WlRnrVWsVc1RUxL8pjrn01xKMivPSWn4JNgIYFaUPEgRaGKIBNIAG0AAaCG4NXA2jwiopvp+zQM2e6qY2z/VW934f6sNh32jClJkKDV8qq7ZwpkVykpLi15dvRUXrtpq954hij5xV9OGzWnNGerbvm/rN736vkUtjtfKU1H7+av1rzQa68d4HVaXNk+o4f4UGbj/hTIr+Ww5rQOZRDd52TJ22S7eOCdO//uka3TxspmqtzjuvmoOnfgT33xKx0n/nN2CMirNnz8qWK33ZNpasluVr0aJFevnll7V58+ay3C37uggBjAr/BQsCLyzRABpAA2gADQSnBq6GUZGWnKSY6Fh16DFYtZs+rzrNX9BdTdur8eNd9VTn1/Vy3/f13pARmjR1liKXRSo1bZM2lPnQj1T9+01VdHPzxzVz50GtOn5G05I366HnO+g/f/8H9flipGKOnNHyg6fUJTVf/1+r9vqnSpVUv/sbemvHCfXffOiHaoqDsoqKQVsP6+lVO/WfDVvr3/58HRUVDHlg2EspNFDuRoUlkh988IGqVKmihISE81LNbdu2qXHjxrr77rvVoEEDt1SrVk0xMTGF673//vtq3bq1E4Hvw7y8PLVt21a1a9d229SrV0933XWXli1b5lvlqr5//PHH+n//7/9p5cqVV3U/NP7TBDAqgvOGihtlzisaQANoAA2gAf9pwJ9GhQ3psKEdKUmJWr1qtfoMHKK7m7+g+x9+0S0NWnXWPS066u5m7VWvRUc98MjL6vzqYIUuW6nN23NKND+FzWtRojkqFqTr/9ZtrF/9+a+67e57VKN+A91UrYaq179Xny9aqthjUnT+Kdm8FS9lnNQfB4zUr/9ynVp+PEIDtx/XgC2HnUFR67kXdc2ddfXX2vX0+6q19Mu/19AtXy/QnasP6g7mqCBZL0WyXpHjXLkbFVu2bNHf/vY3VapUSYMGDTov80xKStKf/vQnDR06VGZabN26VW3atHGfpaamunVfeOEF/eUvf9Hu3bsLt83OztYtt9yi7t27u+0SExNlZkXlypW1c+fOwvWu1g8hISG69tprtXbt2qu1C9otJgGMCv/dxFTkQMmxoyM0gAbQABoIZg34y6gwcyItJdlVUnz9zWQ913WgGj36su5r06XQqPAZFve27qw6zTuo3Uv99d3MuUpKTlf61r1lZlS4yTWjs1UlLFMtI9I1bv1GTU/cqGlJGVq484AzKaySYnnucWdUdE45qFsidqrz6m3qvzG3cG4Km6Oix8oMdY1MUY+oFD0WlqwaoVtUa02+7ojdf96wD9snQz+IJcEcS/x5bOVuVHzzzTe64YYbdNNNN+nWW2/Vnj17ClPQlJQU3XjjjZo+fXrhZxkZGfqf//kfWSWFvWyIhZkSWVlZhevYQdWoUUMfffRR4WeLFy9W/fr1C6s2Tp48qYULF+rLL790y5w5c3Tq1Cm3fmxsrEaMGKHhw4drypQpOnTokPv8+++/d5/Zd8uXLy9s2/Y3duzYwu+effZZZ1SsW7eucB1+KB8CGBVcDPwZMGkLPaEBNIAG0EAwaqC0RoVVUWxITdHqVWv0zfhpav/KQNVv1Un1W3aSGRI+c8L3blUVDVp3Vu+BQxUZFaPUxASlpG0q06d+FDwFJEfVV+apTeJhLcw7q7hj52QTaUbmn3HmhFVSFBoVyXm6LTpHPTcf01tbD59nVAzIPKZB24/r3Z0n9GzaEfdY0poXVFL4njqCUUEMCcYYcjWOqVyNitzcXN1///3q1auXlixZov/+7/92poEvpfUZFVOnTvV9JKuyMKPiq6++cp9dzqiwSgx7WfA186BDhw7Kz893n5kJ8b//+7966aWX9OKLL+p3v/udPv30U5m5cOedd+rxxx9X165d1aNHD61Zs0b9+/d3/bMqjSeeeMJVdcyaNUvJycnOALEKClv/0UcfddUhdiwXDmVxO+afMiWAUcHF4GoETtpEV2gADaABNBBMGiiNUWGPHbX5KGbNWahX+n0gMyHqtuige1t3cUM76rfseJ5RUa9lRz34WFd9+NlorV8Xp9TkJCWUw1M/fMZBzeh9ujN2nzok5WlS1hGtPHhCkT9UUVxoVNwama3uGw5q4OaCJ334nvjh+719Up4arMxRjegfPw7Vtz+MCmJHMMWOq3ks5WpUWBXD73//e82bN88lrzZPhc0r4Zs002dUTJ482X22fft2PfTQQ26oiG+iSjMaLqyoMGC1atVyn7dq1cr9/K//+q+aO3duYZJs5sOqVasKf+/Zs6czKF577TXdcccdsuEjvtfs2bNVp04dV4Hh+6xLly5uvSZNmrj5L3z9se87d+7sTBAqKny0yu8do4KLwdUMoLSNvtAAGkADaCAYNFASoyIxfr2bh2LNmrX65IsxavlMTzdhplVKWDWFGRWder6jMeOn64Ueg9x3NjdFq2d6avS4aUpJTHRzWSSsX1+uRoUZCDVi9um2qGw9uGa/3tmcr4X7jism77iWX1BRcaFR0T8jXwM256trWp6ard3vDI/qlzEpbF8YFcSMYIgZZXEM5WZUWAL5zDPPOKPCqil27dolMwv++Mc/uqoGS23T09N1zTXXOMPBJtM0A6FZs2aKj48vzHwvZVTUrFlT7du3V0REhJYuXeoqJGw4SGhoqHsKyJkzZzRz5kw3Uee9996r2267TX//+981Y8YMN4GnDUOx748dO6a+ffvqz3/+s/vc+mFVINYXmzDz3/7t3/T1118X9sd+sDkqrrvuOuaoOI9K+fyCUcHFoCwCKftAZ2gADaABNBDIGrhSoyIpPt5VUYSGLVW3fh+44R02MaYZFFZRYU/1GDFmslbErtTWjI1664MvdWeT5/RMlzc1a/ZCZ3AkJyTImRQeMCp81Q5Vo7JVM2afnorP1fhdR1xlRWzecS07cFydk/PkMyre2pKvARn56rMxX08l5KruihxViy4wPHxtXeodo4JYEcixoiz7Xm5GhU2Oacm/GRFmFNhSt25dWeWDDQWxV1pampu/4vPPP3eTYtpEmGYcFH1dzKiwgzJTYsiQIYWrHj161FVr2FARmwfDTBKbXNOGe9jv7733nuuPDS2xfbz99tuqXr26MzisiqNhw4bucaNW1WF9t33YRKD2FBJro+jL5r1gMs2iRMrvZ4wKLgZlGVDZF3pDA2gADaCBQNTAlRgVBUM9kvXd9/OcIVH3oQ5q0KqTe5JHkye66e0Pv1Z0dKwzI+zpHxtSkmUTa/bs/4kilixXWlKSzOgoNCk8ZFSYuWAVEWY63LMiR33TD2ruvmOKzTuhF1MKjIqe6Tb045A6Juep4eocN1nm5YZ6XGhYYFQQIwIxRpRHn8vNqLD5I66//nrZxJWWTNpwj+PHj+uRRx5xn1uFhRkBF06meWHKeymjwkyGYcOGFa5upsd//dd/aeDAgW7uCKuYsKEn9jp8+LBsiIjNWWGTZBYdevLXv/7VVV3YsJQFCxYUtmc/2MSe9mhUG67imwTUjqFFixZuDou4uLjz1ueXsieAUcHFoDwCK/tEd2gADaABNBBIGiiuUWFVEGY+jJkwXS3bvap7WphJ0VlmVtgTPr79bo7MyLBhHTbBppkR9r4idoXWrV1b8LkZExcu5ThHxYVGgv1uVRVmVlSN2qeW6/bri22H9XxSripHZatDSp4eiz+g2rH73FwUtu7F2rjUZxgVxIZAig3l2ddyMSr27t2rqlWruid2XJi62jCNX//617KngZhRYUNBxo0bd+Fqhb8/99xzbnJNMzZ8Lzsoe4qIVTt069bNLTaPRePGjV01hJkKNueEmRU2OaYZDfZ4VJuk88MPP1S7du3c5w8++KAzSmy4iLXz29/+1k2YaT/bEJTBgwdr/vz5smEmdjz2eaNGjVxbv/zlLwuHsPj6xXvZE8Co4GJQngGWfaM/NIAG0AAaCAQNFMeoSEpIkC2ffjlOjR/vqno/PNHD5qToN/gzLV8erfTUlEKDoqgZYRUUP6qiKGpWeMyo8JkMZkJUiSqYbLP+yhxnYNT9YbLMKzUofG1iVBATAiEmeKGP5WJU2NM+7IkZVpFw4cseGxoZGem+s8eCLlq0SDbc4lIvq1qwR49aJYPvZW3YvBc2V4Q93cMWe3xoXl6ebxVXAeF7pKiZItOmTVN4eLhSU1NlTxmxbUaPHl04H8aRI0f03XffuaeS2HcjR44s7H9mZqbGjBnjthk1apRrywyMovsr3DE/lCkBjAouBl4ItPQBHaIBNIAG0ICXNfBTRoUZFFZNMWT4WDV8+EX32FEb7vHAoy/p48+/cU/vsCd/FDUnrujnq2RUvLg8XbfHHFC1mBxVj8lRjdgcVY/df0VLjdj9qhZTsPh+tjbs5ytty9avvDJPDyzL1NApMzUxJERjQsZq7oJQpW/do7TNu0u2bNmj5JSNblLSK+Je1Cwq5c/2H8GmIy/rnL4FVhwuF6OiTDNVdlahCWBUBFZA4gLC+UIDaAANoAE0UPYauJxRUTDcI8nNM9HosYJKCnvEaLOnumlkyLduqEdyYmLJTQpLkK+CUREZFqoey1NVOyZbdaP3qG7MXtWJ3qM6UVnlutwZk63mERn6dMoMjIqcstc68SVwmGNUVOg0PvgPHqMicIIRFw7OFRpAA2gADaCB8tHApYwKq6RISUrU12OmqMkTr7jhHmZStHzmVU2YMlNpKcmu0qLU/4t/FYyK8PAILQhfqu8iIjVzSZQmRMTo0+/m6/OJU/X5pOnlunwxaZq+GT9RY8eOo6ICs4IqlEtoAKMi+HP1Cn2EGBXlc8PDjSbc0QAaQANoAA0EjgYuZlTYJJj2xI5JU2f9YFJ0VL0WndT0yW4aP3mG++6y805cyVACPxkVKenbFbFkqULDwhUWHqGI8HAtjQjXkvAIzZwxQ+NDQjRh7NhyX8aPHaux48Zr7LgCo2JR2FKGflwiWSWOBE4c8fe5wqio0Gl88B88RkXFDW7+Dpa0h5bQABpAA2ggWDVwMaMiNTlJCxaG6fEOfVWvRUf3dA+rqhgR8q178ofvqR6lrqbw49APm+MhZtVaLV4cWmhWLAoN07dTp2v0N9+46gWbE+KnFqt0KDASzEz46SXkh8qIn2r3wu+/+WaMJk+ZqtXrU7SBOSqoLMCsOU8DGBXBn6tX6CPEqOCmMlhvKjkutI0G0AAaQAP+0sCFRoUN94iJXqFOrw52jx69t3Vn3d+miz4fMV5mYCQlFDx61C8mhZ+MCjcR5ZYsJW/crpVr4hUVs1LLo2I1f1GYps+cpRnfz9GMWZdfZs6aq+9mztaUqdM1eco0Tf62eMvU6TN+su0f7fv7OZo7f7FWrEnShi1ZJZtE0zf5JpNpnpfg+uvvgnbKN8YGlVFhT9k4duxYhU7MOfjzCWBUlG+AIcDDHw2gATSABtCA9zVQ1KhwJkR8vPoO/kz3/FBJYRUVgz/6SvHr1yslMaF0E2debEiIH4Z++J6Y4Uv6UzbuUHL6NiWkbVViWqYSN/z0kpy+XXHJm/RNyDgNHDBQb7/zzmWXwW+/LVvmLAhVUvo2JW3YVqz9uL6kZcr66J72gVGB0UA1xY80EDRGxapVq/SHP/xBbdu2lSWnvCBgBDAqvH9zxA0s5wgNoAE0gAbQQPlqoKhRYfNSjB43VQ88+rJ7DKmZFT1e/1CrVq5SalIpHkF6MYPC95kfjYoCwyLLVSmYaWFGwJUsm3fu18TJ09Wje3f17dv3sstrr72m117ro6XRq5WxPeeK9rNhyx5t2XlAmbvzzquo2Lxjv7buytXGzL3asfeQ7Pe0jF3nVVxkZuVp+578f2xHRcWPklxiSvnGFH/wDxqjwgJJpUqV9Pvf/17r168nS4eAI4BREfhByh+BjjbQARpAA2gADaCBS2vAZ1SkJSdp2bIoPd35DdVp3sHNTfF0lzcUEbHcTZ7pt6EePoPC9+53o2L3eYm9r9qiOO9bd+dqxqz56tWrl15//fXLLv369dNbgwZpdXyaNm3bd0X7NCNiUUSMZi+IUMqmnc50sM+Wxaxzn8WuTdbYidO1JHqtNm3LLmw7Y/s+zZofoUnTZikpffsPFRl7lJyy0T3m9aqdI9+5usT7nj17cUV1SgAAIABJREFUZDri7+zSf2ewuTI25WJU7D18Wqt2HNO6Xcd0/HTpqx8yMzN1zz336IEHHtDvfvc7DRw48Edp+pw5c9SzZ09169ZNgwcP1s6dO906NlTkk08+Uffu3d0yfvx4nTx50n2XlpamPn36uG169+6tqKgo93lCQkLh5xbEVq5c6T4PDw93Qc328eabb8q251W+BDAqriwgEEDhhQbQABpAA2ig4mnAEszsvXvdkI6BH3zphnzUb9lJjR59WeMmzVB6aor/h3sUTXg9YlRYBUbGjhxNnjpTvXr2vKxJYSaG/Ufp4MFva21i+hUbFZt35GjMhKm6s/bd+nbGPNnvZlQ8+fSzeuyJtpq1IELX33CT2j3fQWlbstx3ts6a+HRVqVZdtWrfpbWJG2XGRRoVFRgkQTh0pEyNipyjZ/Tqgr2q9flmXfPhRl374SbdNypTY9fllSqbHTZsmO644w5t2LBBnTp10g033KDt27cXtjlx4kT94he/UOfOnTV8+HB98MEH2rJli5vP4oUXXtBvfvMbZ1YMHTpU33zzjY4fP67ly5eratWqatmypUaPHq2HH37Y/T5r1iy1atXK/T5ixAgNGjRINuwkKSlJtWvX1osvvqivv/5a77zzjszQ4FW+BDAqKt7NFjfYnHM0gAbQABpAA1emgQMHDujAfkvQZ+nBx7qqfqvOqt+yo3oPHOoMCr9PnlnUpLCfy9CoMDPi/OUfQ0OsKmL1+jQN+fQz9end+yeNCquo6Nevr8KXr3SGgRkN9vQOG9Zx/j5+PFmmDUexeS3ad+iij4YOd0M5lkStceZE/0HvuX7c/0Bj3Xp7FS0Mj1bm7lzZkI+Phw7Xz372Mz3wYBOtS9qEURGECTrxqyB+lZlRsTX3lO4bvU2VeiarUvdEVeqZVLB0S9R/9EvR66HZOnXmyqsrcnNzVbduXbVp08ZlxIsXL9Y///M/69tvv3W/b9q0STVr1lT//v3Py5gtgZ0wYYJuvvlmWSVE0ZdVVFiFxSOPPOLMjyNHjig1NVV33XWXatSooVtuuUUjR44suokWLFigv/3tb7L98/IOAYyKK7tRITDCCw2gATSABtBAxdNA/sGDyti8Vc93e8s95cOqKR5+rpfClyy7evNSFDUrysioSN282w2zSLaJNn1L+nZnGKxPzlDY0hh9NuwLFRgQlx/24RsWYlUVH3z4sdvWhmLYYk8eKWx/4w6lXjDHhA1BMSPDzIovR45T/7feU2rGTo0Z/63atmsvG/axNiFdjzz+lP7jF7/QKz16u4qLxPRt6vvmIDVv0VrdevbRmoSNBcNCqKigoiIIDZsyMSpOnjmnTt/vVqVXk1SpT7Iq9U05f+mVrH/qm6JZKYd0pVZFaGiofv7zn+uJJ57Q0qVLNX36dP35z392k2qePXtWVgFx/fXXKzEx8UfZ8/PPP69mzZrp1KlT5323d+9eVa5cWbfffrsefPBB3XvvvWrUqJHuvvtuN7TDhoqYWfHUU09p3bp1bsJGMzPM3DCzwt6tuoNX+RPAqKh4N1vcYHPO0QAaQANoAA0UXwMH9u+X/cffl2Omqn6rTmrQurPubdNFI8ZMUWpSohLj/fwo0qIGhe/nMjAqrNohZk2Cps2YrWnfzdL0GbM1dfr3mjRlmnvKx/Avv9LQoZ/pww8/0kcff6JPPhmijz/55CeWIfr440/cNkOGDtVXI0Zq/MQpmvztd/p22kxNnzHLvS+OiCych6LoPBk2bGPmvDDVv7ehps6crxe79lDX7r1clUT0qgT17ttfXV7qpibNWriqiumzFrqfe/Z5Q4Pe/Uir4zdgVARhgk78KohfZWJUrN5xTP/RP02Vel/EpPCZFj2TddfXW3XiCuasOH36tLp27apf/epXatGihRuSYZUVVapU0W9/+1tt3LjRmRc33XSTG55xYdpsc0nYvBYXPtLUxunVqlVL7733ntvEDA9LeIu+bKjHk08+6UyQadOmFX4VERGhJk2auD7ExMQUfs4P5UMAo6L4NyoERVihATSABtAAGqh4Gsg/mKfolev00DOvuqd81H2og15982OtWb3m6jyK1GdOFH0vA6PCnsphhsGIkSMVEjL2vGVMyFjZEjJ2nMaOG69x4ydc8WLbFrZTpH0bVj51+kytT96s9K17CyfFNMPCzJO45Ay99c6H6vfmYHV+qbu+nxembVl5Wh67Tr36vqlJ02arSdMW6vJSd7Vt94LaPPqEvhn/rfr1H4xRgUkR1JUkZWJUjFiVq5/1S7l4NYXPqOiVrF+/labteedXN1wuvU1PT3eVDwMGDDhvtfj4eDepppVtWXVEvXr11Lp1ax09etStt2PHDjcr7aJFi/SXv/xFNseF75WRkeHWs8cNWdWEGRK+l+1vxYoVsu19rwYNGjhjIi8vr3CCTpvjwiorXnnlFd9qvJcTAYyKinfDxU025xwNoAE0gAbQQPE0YHNTZO/bp54Dh7ohH/Yo0tbP9tK8+aFX9ykfRU0K+7mMjIpF4cv19YivNWZMyPlLSIjG+Gu5oG2b6+7bad9pfVLGj4yKguEfWRr29Tf62/U36u469bQ8Ns49ltSMim6vvqa5ocs1/OsQXfPXa1W5SjXNnBOqKd/NVZ9+AzAqMCowKn7IMSuVNNfstXCvKr2WUrD4jIkL33sn6xcD0hSVeaTYu7GKB6uWsHkoLnx16dLFTW5pBoJNjGnGgT0ZxCbCtAkyN2/erBMnTriqCau+sM+tusLMDZujYvfu3WrevLmuvfbawm3q1KmjkJAQ2QScNhSkcePG+uMf/+jmuLChHg899JAbSlK/fn03oWdcXNyF3eL3MiaAUVG8GxVu6OCEBtAAGkADaKDiaeDI4UNaFBGtJk920z0PdXDDPoZ8ESJ7TGmZDPnwGRZlYFRYNcOa+A2avyhCcxeEae7CslnmLAh181ckbtjmJtksOvTDfnaPQ52zWP/1u9+ry8s9lJ65V1t27ncVFTY3xaz54VqTkK46deur1cOPKWPbPvfYUhsWwtCPivc3W5HidJlUVHwUmePmoLjo/BQ+w6J3sn45IE3p+04UO5XdunWrewSoDc248GUOsVVH2PAQe9kjTM2wsKEZZiD45qWwbdevX+8+tzkurE3fy0wOG75h29iydu1a+SbWtHVtSUlJcatbFYW1u2TJErcfe6oIr/IngFFBAK9IAZ1jRe9oAA2gATRQXA3kHjigvdnZem3wMN3drL3qNn9Bz3UdqNiYFWUzgabPpCijigozBayCwSa2dBNdbtqh5LJYNu5w81NcaFD4frenhNgEnGHLVrpHj5pRYf20J4LYPBXrUzZr0/Z9WrkutdCYWJu4STGrk5SyaYdbl8eT8ndf3L/7QFqvTIyKRZsO6f+8/tNDP/72ySYdPvlj06H80116EKgEMCoI3IEUkOkrekUDaAANoIGy0sDRI4e0MDxKTZ7oproPvaD7H35RX46eqPTUZPdI0oSiRsLV/rkMKioKjYEfPZ70wseVXp3fffu/2Ls9/WPrrlzZ41F935tZYZNt2nf22eYdOQWPIv1hbgv7ztZx6/PUj6AeAlFWMcFr+ykToyL3+Bk1GJWpSj2Szn/ah6+aok+Ke1Tph5E5P5q0MlATZPrtDQIYFdzweS3o0h80iQbQABpAA+Wtgby8XO3enaXX3x2u2k2eU/1WHfVs1wFauWKlkhMTgtqo8BkBQfWOUYFREYTzdZSJUWEp67pdx3TN+xtVqXviP+arsHkr7HGlPRLVKGSbDh6nmsIb6X3w9AKjgpvB8r4ZZP9oEA2gATSABrymgaOHD2lZ1Go98MjLqt+yoxo+8pImTpur1OSksjcpCod+bFLa1mzZMAaWK2SwNVvJKZvcpKRlWglTpNJmz5497mEFXtM6/Qnc+FtmRoWlvqt3HlOTMZkFjym1R5X2TNK/vJ6qLrOztDu/+E/7CJ40miO52gQwKgI3OHFh4dyhATSABtAAGvC/BmxuCksAPvlyvO5q+rwatOykp7q8qfSNGUpJSiwfo2J9nBITkpSUnMZSQgbGL2F9XDmdv/XCqPD/32pFj39lalRYUnrg2Bmt3HFUE+LyNCX+oJL3ntDJM+eudr5K+xWUAEYFQbOiB3mOn78BNIAG0AAaKKqBQ/kHlZK2SW2e66MGrTq5p30MGzXFJZpJCfHllugmxMUVVATEreO9JAzK0aSwKg6MCuJM0Tjjj5/L3KiooPkyh11OBDAqCJr+CJS0gY7QABpAA2ggGDSwf/9+2ZPxJn03X/VbdVKDVp3V6NGuWr0uUbkH9pefSVFkCEF5DV1gv+tLdf4xKoiR/o6RZW5U7D18WlsOnNS23FNuOcJTPsopha8Yu8WoIGj6O2jSHppCA2gADaCBQNWADfvIytqjl/t+qHotO6pOs/bq9+5w7dqdpZx9+0qVqJLoly7RD3R+GBXERX/HxTIzKiIzj+iN0GzdPzpTNb7YolpfFiwPT9ihz2L3KzOXOSoqhnVQtkeJUUHQ9HfQpD00hQbQABpAA4GqAXvax9r1yWr+dI8Co6J5e02bHaqjRw+70v1AT5bpf/mZJRgVxEV/x8WrblRszzulbvOz9Kd30gue+GGPKO2ZpEqv/rC8kqhKvZJV9bMMDYs9wHwVZZvHB/3eMCoImv4OmuXVnpXrssAADXhLA+UVD9gv17aSaMDix8GDeRr37Wz3lI+6D3XQoy/01eq1CTp69Ij2ZGVRUcEQlBJrAKOCuFSSuHS5ba6qUZGx/6TuH72twKAwc6JvysWXPimq1D1J/9I3RS/OztKJ00yuGfQOQhkdIEYFQfNyATAQvrOxxJlbtyo5KUmpycksMEADHtLAXh7Hp0CIo/Sx4F7AjAob+tFz4FA3gWbtJs+r3zvDtXt3lvLy8jAqMClKbFJYJQtGBffc/o61V82osMeNPjA60xkQlfokX9yguNC4sEeW9krWK/P2UFlRRol8sO8Go4Kg6e+gWdbtmVGRsWmT4tasUXxcHAsM0ICHNGD/A23JX1nHBfbHta0kGrBhH4nJG/REp9dVp/kLqvvQCxo1YYaOHT3sJtikoqL8hk0Ew5AVjAriUkni0uW2uSpGhT1utMP3uwsqKV67RBXFhSaF7/deyfr3fqkaszYv2HNojq8MCGBUEDQvFwAD4TszKjZnZGj9unWl+p+OYLgJ4hi4ifaaBjAquMYEwnXE18fDhw/puzmhavzEK86oaP1sby2NWqXDh/Od4YZRQYwtTYzFqCAe+mKNv96vilERlnFY//J6iopdSeEzKXzvPZL0908zlJl7sgxSWXYRzAQwKgia/gqW5dUORgU3jqW5cWTbq6sfjAquMeV1bSjJfo8dPaIhX01Q3eYddFfT59Wp57vaum27cnNzMSoY9lHq/wzBqCAeliQuXW4bvxsVVk3RetIOVepZzOEePnPiwvdXkzR8xYFgzqE5tjIggFFB0LxcAAyE7zAqrm6iSSIP39JoAKOCa0wgXEesjwd+mJD5tcHDdGfj55xR8fq7X7hqCvvehjB5o6IiTgnrWUrGoHzjOUYF8dDf8dDvRsWOg6f0m0FpqmTzTVxoPlzJ768m6aEJO5R/4kwZpLPsIlgJYFQQNP0dNMu6PYyK8r3xKk0Sy7bBf+4wKrjGlPU1oaT7yz94UMlpG/V898G6u2l73demi0aMm64jhw+5OVa8YVTEKyE+gaWkDNbHl7oqojTXLYwK4mFJ49OltvO7UTE9Mb90wz58ZkbvZP3x3XRtYfhHsHoIZXJcGBUEzUsFv0D5HKMi+JPd0twYsm356gOjgmtMoFxLjhw5pIjIlWrZrqfqNGuv5k/30IKwSOXnH/SGURG3Tsmp6UrbvFtpGTtZrpTB5t1KTklXQlz5zWeFUUE89Hc89LtR8cHyHP1Tv1LMT+EzKmwSzt7JWrfzWJkktOwkOAlgVBA0/R00y7o9jIryTUQxAuB/OQ1gVHCNKetrQkn3d+L4UU2dtcg9ltSe+PF4h35KS89w81NYm+VeUeGMio1K27JXaZuzWK6UwZa9Sk7ZiFGRQ0wqaYzw4nZ+Nyp6LNijSn3MqEhRJTMbSrrY9r2TFZ5xJDgzaI6qTAhgVBCwvRh4r6RPGBUkypdLlPmufPWBUcE15krieXmuaxNpjpowU7UefNY9lrR998GyJODAgYLH63rHqNhTUFVhlRUsxWewZQ9GBSZF0D0q2+9GRdvpu1Tp1SRV6pVcME+FzVVRksW275mkxZu8aVScOH1WJ8+cverJ9plz53T0FPN0lBQ0RgU3keV5Y+iPfWNUlG8iihEA/8tpAKOCa4w/4vzVbsOuI2ZEfPj5ODeRZr2WHdVn0DDZ5zbJpu0foyLAjRGMiqBL0q92XAiE9v1uVERlHlXI2lyNXZdXqiVkXZ5C1uVqd/7pkuaoxd7u6KnTWr07V4dO/vS+zkmak56le8dHakryjmLvo6Qrrtl9QE0nx+i96HSZOcLryghgVHATGQiB+HJ9xKggUb5cosx35asPjAquMZeL3175Li8vV9t37FS/d75wT/uwiTTtMaU+A8P6iVGBUVHa6wlzVBAP/R3z/G5UXFkaWf5rbz5wWF0XxuvG4aHqOD9O6fsPX7ZTWYePq9HEaD02Y5XScvIvu64/vsw6fEyDlqfptq/DtSxznz+arFBtYFQQNP0dNMu6PYyK8k1ES3vjxvbBff4wKrjGlPU1oST7syd+2HwUnXu/q7ubtVfDR17SxOnzlJtbUGlhbQavUeHd+S42bLG++ckgoaKCioogHPpS4Y2KtyM36PefzNP1XyzWf340V+9Gb7hsIp+yL191QpYrfEv2Zde71JeWOGdkZGj16tXKzv5HG7t371ZsbKzWrl0rcySLvg4cP6n7J0ZpbPy2oh/zczEIYFRwE1mSmzovbYNREdyJLkZGYJ9fjAquMV66XlyqL4fy8xWflKq2Lw2QTaTZ6LGuWhgepbzcXGdQ2HbBZlSkb90rvxoB/jIULmhn47Z9sr6W2rDAqMCowKgoRmYYYKv0W5KsP3+2QJVHhOtPQxfo1dDEyx5B/N481R+/XMu2lay6wRLnr776SjVq1tCwYcMK9zVnzhy1atVK9RvU13vvvVf4uf1w4NhJNZsSq1FxW8/7nF9+mgBGBTeRl7pxC5TPMSoCO5HFiAju84dRwTUmEK4lRw7na01coh59oa/qNn9BDz7+ipZErZINCfH1P1iMCjMnUjN2aV1CmlasjlPsqnV+WqyteMWu8k+bq9bGa3n0KoVGRGp98iZt2FrKSUQxKgq17NM074Efnyt8RcWXazbrfz9bqD9/ukA3DA/V3WOWaejKTZecKDPRjIpxy7WkFMMwrJLilW6v6LW+r+nMmYKJMu2PKSkpSYMHDdZLL710Xgaec/SkmmJUnMekuL9gVAR+kKroFxqMiuBOdDEyAvv8YlRwjQmEa9SRw4e0Ym28WrXr5R5P2viJVxS1cl0QGhVZStuSpTXrUxQWHqFFi0O1ONQfS7gWh87XoiUTtDhsjhaH2u8lazc0NFTh4RFauChUEydN0siRI/XdzFlKSNtSugoQjAqMCioqipseBs56+SdOadT6rXpwUrTGrM/Uml0H9OnKTRq4PE19I5KVvv+QztkMmj+8krPznZmxbHuOzpw5peTkZDeMY8OGDTp7tmCyS7to2dCOdevWFQ7jsIR548aN7vMTJ05oxMgRGjBwgE6fPn8Cz8lTJqtHjx6+3bn3fUdPqNGkaIUw9OM8LsX5BaOCm8hAuIm8XB8xKgI7kcWICO7zh1HBNeZy8dsr3x09cliRsWtdJUW9Fh3V9MluWhefHHRGhaum2LRTyyKjtTg0zJkVEeHhWlraJWy5liydoog1z2pJ5CgtDYsscZsREUsUtjhUUyZNUkjIWIWMHacxISEKWxqt9NJUVWBUYFRgVBQnNQzMdfKOn3Idt8S2T3iyq7D4wyfz1HBilBL3HnTfnThz1pkFDcZFKjP/hHKys9SyVUtVrVZVH3zwQeGBr1ixQk2bNlW1atVkQzpOnDyhjz76SA80esB93rFjRz3d9mm9/8H7hRUVvo3HhIz5kVFx6MRpPTx9ld5cmqJjp3lUqY9Vcd4xKriJ9MqNYkn7gVER3IkuRkZgn1+MCq4xJY3tZbmdGRXLolfr/odflM+oSEhOC0qjIjl9uyKWLFVoWLgzKuaHL9XsiOWaHbGsFIttv1Szl83U7CULNTsiskRtzYpYrlELl2nElOkaMX6SxoyboLHjxmtMyFjNmb8YoyIIE+2y/DsPxn1V+KEfFya7+4+edNULfxm2UDd9Gaq/fb5ICzftdatNTt7uPhuxdssPm53Tl19+qXbt2un48eOueiI9PV2WHM+YOcN9np+fr5CxIapfv74WL16sXbt2ady4cbr55ps1aPCgC3evixkVtlLY5r2qPmqJ3o5M06kzPKb0R+Au8QFGBTeRgR64MSoCO5HFiAju84dRwTUmEK4xx44eUejSWNVp1l71W3ZSs6e6K2PzVh3Myyv8X+hgmKPCKiqKGhXLwsM0eFm8HovM1FORW0q5bNVTkdv0VKS9l6ytJyK3qE14mlqEbdCzC+P0+aTpmjB2rDMq5i4IxajAqCj8ewyEuFIWfcSoKJLgnj13TlOSd+jmL0NlRsW1ny/SX4ctUtgPT/hYsjXbPX1jcGSajv9Q2ZCWlqZ2z7bTsWPH3Dizps2aupmTR40apU+GfOIqJto83EZjx44tsiepZ8+eeuONN5ypUfSLSxkVS7bu051jluqrtVsuOX9G0Xb4uYAARgU3kWURSK/mPjAqgjvRxcgI7POLUcE15mrGf3+17TMq7mr6/A9GRQ9t2bot6I2KqLBQdVmerltjclUlZr+q+mEpTTvVYvarWux+3b7yoBou26YhU2ZqYkgIRgUGBQbFJTSAUSFp+8Fj+jZ5hxZm7FGvsCQNWJaq+yZE6fovFmng8lTlHD1RmPeHbtmrO0YvUcKePPdZ3sE8NzHm/Pnz9elnn6phw4buMaOvvvqqFi1e5EyLJk2bKCYmprAN++HTTz9V//79izX049ipM3p61hr1Dk86rw1++WkCGBXcRPrrRq+82sGoCOxEFiMiuM8fRgXXmPK6NhR3v1YpcfhQvmbNj9DdP1RUPNy+j7Zmbg/6oR9mVLy8fIMzKGrG7NMdpVhqRO9T1eh9qvbDUpr2qq04oAeXbtVQjAoS9Esk6MX9+w729crMqJiWcUT3TdypKp9lqMrnm8tuGbZZlYdkqPaYbXou46TeypdOFJkcM3p7jpp9G6v//XSh6o1brrkbs3Tm7Dml7MuXVVCcvGCYRWpOvu4Zu1xW4WAve2rH6NGj9cwzz2jEiBHOgOjbt686duqorKwsNySkdZvW7nNfWm0TaD73/HN6a9Bbvo8K3ydNmqRevXsV/m4/2HCUJpNjNJrHk57HpTi/YFRwExnoQRyjIrgTXYyMwD6/GBVcY7x+jTGj4lD+QU2fvbjQqHiqy5vatn0HRkUxjAszJCpHZatGTLZ6b8hXyM6jar52v26PzHamRUnMD4wK4obX44ZX+lcmRsW0jUf0q8EbVOnVJFXqUcZL1wRVej1Vf196UPdmndPje6VjRYyKAUtT9Ich83Xj8MX6/ZD5ejs67bL5b8IPjyddWuTxpKtWrdI111yjr7/+2j3Z47bbbtUrr7xS2I7NUVG9RnVnZMTGxuqdd97Rddddp6efflo7d+50wz8SEhNkjyzq1auX2rRpo4iICIWHhys/94DyTpx2jyfFqChEWuwfMCq4GHgl2Ja0HxgVgZ3IYkQE9/nDqOAaU9LYXlbb+YyKabMWFRoVbV/qj1FRDJPCqif+Hpmtpmv2a9yuozp+tiCB2HD4tF5Pz1etmH26ZXm2rrS6AqOCuFFWf/+Bvp8yMSrqjttRYFC8lqJKfctw6Z2s//NGqqovPag2OVLTLKndBUaFPYLUjIrKI8L1u0/mqc9PDK/wGRXLihgVu3fv1mOPP6Z58+Y50+HxJx7XlClTCpPpU6dO6bPPPnMTat5///0aOHCghgwZIpu7YsGCBe6xph9/8rF7gog9DcQWa+PJJ59UalKCDp8956o+RlFRUci0uD9gVHAxCPQgjVER3IkuRkZgn99ANiosthw8eDDgl9zcXMrHL1M+fuDAfh3Yv1+jJswoNCpe7vuhdu7cpbwi7IJxMs2SDv0w4+HWyGzVjt2nfun5Sjt8+ke3neZZTMs6psfiDriKi2pR2cUeWoJRwb1poN+bllX/y8SoqPz55gKjoixNij7J+tnrqbp90QG1yZZa7ZGa7v6xUTE1Zadu/SpMv/14nm4avliTk3f8KBgV/SAp+6DuGbdckdtzCj+2oRxWGWEXfHtt375dhw8fLvze90NmZqY2bNhQOIGmXRTsaSH2OnTokLL3ZctuHOyiayfGRKCzZ3T41Gk9OClaY9Zn+privZgEMCq4GJRVML1a+8GoCOxEFiMiuM9foBoVFlfsXiUubr3WrVundeviPL/ExcUpPj5BiYlJhUt8QoI2bdrk7pfsnupqxeFAbjf3wAFl7dmj9z4bozrNX1C9lp301kcj3WcH/n/2zgKsjit943Tlv12pp9tuu92m2249bdy9bdybxtO4KyEhBoQYcU8I7hqc4K7BLtzLvZeLu7sFCLH3/3yHDAECBBI0DM9zMn5m7mTknN+83/uVFNefMx5U1HlYkA8FhXosjiqGXV4NHjZQYTfX9My59xBqiZUYFpiPHwLapq7gQQXfNu3Nz5SuPPauARWXuxhUKEoht0+Cr+0KsCAPmJ8HzMtpHlRQqk8K45B3j4ZrYi7uNfGkaPpQSi+rYqBil6sIWeV1kKHpOh05XXbvAfOmGHDTEy6JdWlSO7L+V70uHlTwL4OufKB2xr54UPFqd3R7PMgQRkMkknRdEYrR489J1NNrsjeCCvoYQh9OyATczNwcpmbmbEjRS/BaAAAgAElEQVTjPbmYmprByMgYRsYm9cXQyJgdc3R0NPvQw8OKZ9/5lII0NS0D8soXMH7uRkyYtxE3dC1RUFgAUltw7y0eVBRgSGABpoYVQT3tLtKrH7a5iXz/0WMEFt/DKlEphgQ+H1bwoOLZ65S7Dvkhf24aXgNdAyqudCGo2C+BnIIYn5lmY07WYyzIr4MULYEK7inU1DSTm990+ODRY2gIkjHgpgeMo9ObLu7w6dCsYozR88UOVxEq7t3v8Ppf9QpbAhXUUCM1CylZGt4QNE7zaFnDQvPoZqFOY1VVFcrLy5/Zrmk9/DT/sO2Ia6C7QUWUQAC+9NVzEIWoiDsQhvt3XYkI5EFFKzL+l32mcB35kJBQmJqZ4ZaVVa8pZuYW0DcwfKZoaevAxdUVubm57B39sufoVdu+vKwU8Ykp+H27CoMUBCrIWJPCPrjrgX5zXwYVI8PLMTyyGuNF1XCuePGWMeUDVE25hwH+rYeB8KCCbx++as+Zzvo9rxaoUJQww85P9DMxK+0hfi14CimeByra81h69PgxMsqrUVxT257NXmjdqvsPkVpWhXsPHr3Q9j15o+rqatBXkICAAGYe6u3tjaioqA495OZABXX8KCOLr68vpFIpSktLGXTgXthisZgZm9ra2sLGxoZ9dYqPjwcdb1ZWFks1S9tRPZ11Y/L18i8x7hroVlARGQlZTAziY2P50gfPQUJiFiJd98P30pvwu975xffqmwg0GAIRqSqEol4BLHqbooLec3l5efDy8oaFpWWvgRSWt24xFYWBoRGaFl09fdx2cmLvZ/69/Oy7kzJ+CMUyzFi6ExPnb8L4uRvgHRCCiiYfXPokqAguxPDAfAy0icLXmq749JI1Zmvbw9rDB+VFT0O8W2qY1tbWQhgVhTu+3ojw94GhZwBm+yRjcFg5CwVpKSMIDyqevU65Ng8/5M9Nw2vg1QEVZNS5V4wPNdMxPen+M5CiI0FFSw8sfn77zkB4eDj69euHkSNHYv78+Zg1axbefPNN3LhxgxmMtq+2p2tTQ4UyqBBUoD+apgudLnx6EZMaQkdHB3JycliyZAnzFqF1CFjQekuXLsX777+P6dOnY+7cufjqq68wevRoJCcnQyQS4eOPP4a8vDxTVjS8mfhx/uHaGdcAXZtJiYlM1dDVkvioiIhm/Xae3m382Kt+BtLCj8H9pBx8L3Z+8TknhwDtz3lQ0cmKit4IKkhN0RRQcNMEKpycnXlQ0cx1Q22e0tISOLr5YdL8zZg4fyPmrJRHVHQMKisbK0r7IqgYEVKCYX45eGfibLz5wUcY8MssvDV+Jv4yaT522/og8znfCO+Wl0HtqCq++mU2/j52OuT6fYS3Rk/BKLcEjAora9FckwcVfHuxM9qLr2KdrwaoeBLu8d61VExNvM8yfBCYaFo4M817zzHGedUbnj3l9925cwf//e9/mbKBOyZKz0qwQigUcrPaPaRtKf0rZWGhv4bmpNTpoxt50aJFDFQQdCBlBYVzcKBiwYIFDFBQuAf9UfpZLp0sHfNnn32GPXv28KCimUbRq/iQ7O7f1N2ggrsP2M3A/9PnzkBa+Al4nJKD7+XOLz4X5BCg8xUPKjrx2Uqd0d4IKsiXggMTTYc8qGi500f/3/QOu6plVqemmLMBlPEjMSkV5WVljVShfRdUZOON0VMw4NeVsC4FzhcBU6W1+DKkArNNPHHy7DmmwuUe/vfu3cPNmzcR6u+LaoBt81v8QwwXP8Cgc4Z46913MOzoDUyIrmkxbSkPKlq+Zru7zcXvv2f937waoGKvGO9cTsbPslosLHoWUHDAggMVtTyo4J633ToMCQlhAMDDw6P+OChda//+/Vk4CM0keLBz506muJg3bx52797N4lBpWWJiIlasWFG/jF4c9vb2LA0swY4RI0ZAXV0d+fl12VToJUxqCtrHDz/8gJUrV+Jf//oXDh48yHwpaBndEAsXLmTqDlJkUPYWghirV6/GwIEDWRjIl19+CQUFBR5UdGJjmn9RPH1R8KCi/vHAj3TDGeBBxVPjzOYUTXzoR+d7XJhbWrYIKQha8KDi6fui6buzpKSYgandSucxcd4mjJm5FmeuGbB59BGn4fqdCSrEQiGihcLWw7kiBZDExEOWnAtZUvYLldjkHEji0uHl7QN3D088Lz1pnaIiG2+MnYZv5y+HS1Etou8D5gX3sVpWhf9cd4LcG/2wWO06Up9Ee/t4emL61Kk4ZeOK7bGVGBRcjBHh5Vib8hAbfaX49qdpGHPBCOOE1Tyo4NuJje6xhvcbP97yc6vhuen9oGKvGG+eS8Sk6JpWIQXBirk5wK85wK5CQL4Tyu4ndea33Si4G5qdPWeXpFQgdYKBgQGTbJJaYdSoUSwcg4g1ffWh0AwKuwgKCoKrqysDDDt27GAAY/PmzZgxYwZoO/KT8PLyYunWrl+/zpQaqqqqLB0s90WBhpRCduvWrZgwYQLId2Lx4sUMjJBXBu2Tbohff/0VBEW4dLMERAh6UHgK+WmQuoIHFW17wDR82PDjL3bOeFDRc55ZPfFI7j98gIzsLESLRCgqLOrwQ+RBBQ8quttw09jUlAcVL9jhI8PM5NR0/LZuPzPSHDljDUytXVjYR1FR43dSZ4EKYWQkIgUCSKJFiJGIIRa14D/TjaDizXHT8cWUudCKkMFOlgLH+HS4FlThVGolPl2+Ff9YtA1zBMVwKnmEk2qnMG7tdvwUnI8BwSWY5JOKVf5x2OR8B/8ZNAyD5i/G8pB0jAor5UHFC163fHux8b3Zl89H7wYVCmK8fjwOYwV3nwspOFUFwYpp2cDUTii/PKkz80GHtxVfyQojIiLwwQcfYPDgwRg+fDhef/11rFq1iqkb6Afb2dkx/wpSRRDUICCxa9cufPTRR/D398eaNWswe/ZsBjQaniCCDqR+ILBBf1zoBykmaJ8UbkKQg/7MzMzYfo2MjECmSHRDELwg3wwrKysGQGgfBFQcHR1BRpuffvopDyr4l0+XUXIeVLBblf+nmTOQkZMJx1s2sLugB409J+Hi4NTMWi83iwcVPKjoTlBhYXkLhsbGPKh4wXcu+VOQceaMZbswfs4GzFi2Ez4BYai6W/nMO6wzQIVEJEJoSCgu3zSEurYJfH39maoiXiYFLWukUuo2UJGDd36aj7/3+wADxkzAkAmTMGf1BjgkZCD0HnBI1wQfDBqJr0xDMMQ1ER+M+gmfKmtgVHgZ1iTex5yLuvh8zER8Omw0/vbOe5ileh6/R+ZhZGgxDype8Lrtyx1z/rc3hjS9F1QoiPFnFRlGBFVgYSEwP7flkA8OUnT2cM4TX4wsHlS0qWXMhX6QEiIlJYXBik2bNtVve/jwYWZqSUoGrpC3xLp161gOeIIGU6dOxddff43Lly/Xh4RQvRTaQSoL+uNAxf3793Hp0iW89tprDHBcuXIF+/fvx9tvv82UG3QzUKeQwkk+/PBDTJs2jYWALFu2jEES2j4sLIwHFfyL55kGXme+WHhQUf9I4EcanIFIkRDG59Rx57IVpBqusLlmiII2uNQ3qKJNozyoeDVBhY93z8/6YWVtzVKoGhgaPhdUuLo6Iyc7i8/G1eD9TOCBMnucua7PjDRHz1yHLYqnEJuQBEpZ2vS91RmggtQTpKhQPHIRw6etxuL1B3DivAZs7Z0hCI9AvCwGUnF0HbDoNlBRF/rxzZwlsMksQ2BZLbyLquFTXIOA8gdwTsvHgrXr8etVQww+qo6/jpyCn12k2JlYjSNJ5VBOLINyYgUOxZVgqspZvP3hx/h622GME1RiGGUVCSp4pvAeFY07o02vRX6aPz/cNdA7QcU+Cf6sJMNgn1KW3aMnQAqCIDyoaFO7t34lDlRwygcCC1988QX8/PzYOhcuXGAhF6SEaO1PW1ubKSAIclAKUcomQqCC/Croj0AFFUpJOmXKFKaOIEXFxo0bQWEkFFpC2UfoeCjcgwv9oP1SelNSWtA4LeNBBf/w5B6eXTXkQUVrd3/fXCYSi6F37DKibjjCbu8lnFq0DSYXtZCakd7hJ4QHFa8WqCguKkZ2Ti5uu3rA3tocDjaWPbI42t6CvbUFrEwNYWFsAEuTlouFkR7MrO2RkJoBCnXoqmdzT98PvTvo/3q9/HGMnbUeI6evwZmrBgxSEJRoevwdASrIh4IKqSWk0dGIlUqQEBuD42fVMWrGWkycvxljZ69nqVLllc5B28AS/v5BiIuRQhot7F6PinnL4ZBfjdBqwL/8AXxL7sGv9D68i6ux6cgJDJkwGd9Nm4ePdp7ALmkhjqVWQTmpAiopd6GSWoVjWQ+gmlmLgfOW4P1JszEmKA/DQ4qfgRQELnhQwbclm95//HTz10TvAxX7JPjDwRj84FrcoyAFDyra3z6mUI5PPvmkPjsHZRegFKVkcvno0SNIpVJ89913LByETC0JGpBfhLW1NQv3kEgkzJOC9kwmm1QXvWgFAgG+/fZbFrpB2xCkIENM2o7CPsh0s+EfgRECFeRdQdtT1g9SU5CZJsEJ7uFB4xSCQqEntD+qk1vGD5t/wPDn5eXPCw8qGt6tr9Y4PecKigtRdY+849v2V1BSBNOLmhDecIT5tpPwWXAYNgv3w0DhLMzOazLg2raa2rYWDypeLVBRWlyEjOw8KFvcwdprbthww71Hls3qHvj9igvmnXbC/DOtl9lqjliv4QtxUhYqSusye/HvnkJUVJTDOyAU81ftZXBg6uLtsHXyQk313WbbLu0FFdHCKIhFdVCC/CcaloCAIDg5u8PEwhYaeuZYL38UE+ZuxM8Lt7IyecFmkMLjl9+2YdV2FRw9o85UFtGSOMSm5L2QkSYZcL6omeY/Rv2Mr2f+VqeoKK+Fd2FVnaqi5B6C7gIaPsH44N//xv/1/xIDzEOhkHafqSmUEstwOKEUSgnlUEmpwhIdK7zR75/4eushjIvkFRX8ffhibcDiokKUlxT1qELH1B3/n70LVOyTQE5Rgm8dC1jq0QV53R/u0TCchFdUtK3hy61FfhGDBg1Cw6wf5AtBcIJSixJkIF+Ir776CuPGjcOkSZMwdOhQKCsrM+XE6dOnMWzYMDb/P//5D3R0dPDw4UOkpaXhp59+Yt4X58+fZzcWQQZST3AmmgRF6IajFzOBDFJXEKBITU1l3hcUYtIcqKBj/v7770FhKXfvNv+y744bmd9n9zxAu+K886CCe2K8ekPKSKR//gZML2ox/5x7D+4/90d6OLvgzlVr+KkZwXG+Iqr3mCJt003o/bYHLke1YXNGC6FhYc+tp60r8KDi1QIVZcVFSM/JxxJ9KfopReAjVUGPKx+rCvCBSgT+b28I5OTvPL9sD8L4ayLI0vJQUfqsUqArntM9cR/VVXdxTceCAYIxs9Zh1Q5VSGXxKCt9NuyDjr+toILUEjKJmIVsUFhHRHgEfPwCYGhmw4DDBvmjLMTj1zV7MWv5bkxdvKMeUHCgghtOWrAZZPA5bs5G7DigBt9AARLTC7oYVOSg36wVeOPf/TFgzHgMHjcRA8dOwL6rmgiueoSgu4/hmJKLidNn4q1RP2PgbRn2JNfgRM4D/G7mgv4jx6H/yPHoP2o83v/ia4zfJI9VUQUYxXtUdEvHtifei+05ppLiQmTnFSA6JQ+i5DyIaNidJTkPcen5KCyiZ0TXt7V7D6hQlOC1fRJ8aZWHudmPsSC/Z0EKXlHR1mbv0/UePHjAFAvk/cD90RdGelmSgoL7I5CQnp7OAERmZiZTMtAygg00TWCCGvzcHwEOCtUg0EB1UUePLvTk5GTmhUHzGj40aDmFhXD1cPtquA43Tvuhemi/Tevh1uGHXf8ge5XPOQ8quDv71RumJCXD/qQWbqw5iNOb98PRwhZllRUt/tDKmruw1zBGlmUo7Hafh/j3syiUN0DeLl0krL0M4+UHEHjeAnZXDZGZldViPe1ZwIOKVxNULNaX4l1lAT5Ujexx5V+qkXjjYDjk5EMgt4cHFS/yfiMYkZqWju0HTmP0zLUgUKGkpo6KirIW2y7UpqF0u40MLqPqrn8K5yA4QSEaUYJIeHn5wcjUBsfOqoPAxJyV8iDFxk+/bsH4uRsxbs4GVijMg/ZN8zg4wQ0nzd/MDD7nr1LA6cva8PPzh5gpKrouPSnnHzHQMw1zveKgFxkPq+h4mEfHwzElj4V/UAiIb3E1nNLysSYsCwMCCrA7tgyqKZXYL87DDn9pfdkdHA/VpHKsj7uLEUH5vJlmA8+UF7mO+9o2RYWFqCkvgnZQJvqpyvCWSgzeOtLNRSUGbytLoRucicqSItAxduX/S+8AFYoSyO0Vo79JNmZnPGIhHw2VDD1lnFdUtKf523XrcqCitLSUgZHmAAPBEFpONx8NufGmNyNtS+oMWr/pMn66ax9efeV886Ci654VXbmnR48fISzgDoKuWsForQouz9wMHflTsNQ1Rkl5abOHkpyeAm91C+TbC2G36xykq84hf5ceMrdroXi3ASKXq+HWlpPwPGeCEL8gPHz0qNl62jOTBxWvJqhgigrlnqeoIDXFh0cE+BOpKQhStKXsCMIEXlHRqE1SVVUJR1dfTFu0gwGD6Ut3ws7Ji4WDtPTubA5UUGgHwQlKK+rj4w8jM1soq13DgtV7MXHeJmbSOXH+JlCh0I5xszdg1Mx1mDBvE6Yt2YGFaxXx+1YlLN14sBGoIIDxy29bsVf5PJycPRATHQ2JSMgUH7LkrgcVQ+6UYJn0LrzLHyG06jECKx/Dv+w+M9QkU02/0nsIqHiIbbF38b1/PgMVzEgzuRJH0msalROpd7FeUoIRQQU8qOjiTm1L13ZvmV9ZWoTkrAJMuJkAuV1iyFEkQU8oeyQYciUeqdkFKCvu2rZ+zwcV+wlSSPCxbiZmpT3ssZCCV1S0p+nbdeuSuoIDFb3lQcUfZ9c+BHv6+eZBRdc9L7pyT+VVlXDQNUeqsT98D2kiaKEKjFcchPHBi3CyskfVvZpnDicmVgb/61Youy2B44GrCF1xEkW7DZCxXRNZO7RRvFMfbktVYKV4Ce4W9qipfbaOZyp9zgweVPCgoq3hIf/qgDASAhXvHA5vG6DgIAYPKhpBipKSYuQXFODkRR1moDl+7gas3XUU6emZKClu2cOjIagQC4XMCDMyQgBzKwemnFi9XQWTF2xhxpykhqCwDQISBCfGzFqP2St2Y/3uozh07AquaRpB38QKdo6uCPAPhJ7xLcxctouFeNDxUF06hpZMvUGGm+R3IeqGrB+comJIYAEmhxThYmolAktqEFBSUw8pGKh4Mr1ZUtoIVCglloMryonlzLdiX3wZ5gmKMSyQBxU9vX3Vk46PwirulhVBNygTfzkghRz1f2nYE4pi3XFoBGay8LquVFX0bFCxX8qUFO/fSMX05AcsDWlPUU80dxy8ouI5Ld5uWMyDCr7T35NeRC9yLB0JKki+Sw3Q5qS9zc2LiohgIVbdcOu+8ruUxcXi9ll9VLvGwn7PBSStu4qoladhsuU4rNW0IIgQPHMOElOS4HXdHA/cExF+1QbuS5VRsdMQeTv1kL1DB8XyhohZfR5Gq5Vhr2OOhmF1z1TWxhk8qOBBRVtABakg3leOYIXG27JNc+sQ7Pi/fe1QUxCs4EFFI1Bx924FIoRipmagkAsyrryhZ4mystIWwz7o3VRcXISC/DzEiKMRJRDAyNwWOw6cYoCBjC8pnIOUEwQpJs7biCmLtmHNziNQOXUN2gYWsHd0hZ9fAMv6QZk+4mVSFi6SFBcLWwcXzF4pz7J9nL6sBX//QMTJpKD0pfXvnm4EFSwTR2ABxt0pxHZpKazzqhBUWgO/J4CCGzYHKghQqCSW41BiOVaLS/BzaBHL9DGsmbSkHBjhs37wbdOm7UEyz5Sl5WPE1Xj2gb5HAIqGkGSvBIOvxCMztwClXaiq6NmgQkGMty8lYUrc/R4PKXhFRRtbvV28Gg8q+JdB05dBb5vuSFBBxmfUKCR39vrG4ZMY5OameVDx9IFF/jl3q6sRGRMDb08vCKOiUF7d9mwdT2sCHgOwNjKHTNMVVW6xsNpxGrFrL6F4ux4clirB7vB13NazQFFJUcPNcPd+NayuG0Cm5QqX03o4PWsdXBceQvCKk4hefR7ZW7VQuEUbmrO2Q1XhMLz9fJGcksxMhhtV1I4JHlTwoKI5oNBwHgGKr04JscU6GZPVZfjwyIuFlJCa4u32qil4UNEIUtD7glQTN/VvsUwfBBZmr5BHpEjaookmvRNpm4ryMmRkZsLU0h5b953E9KV1YSPj52xgHhMEKMgYc/nmgzh1UYuBicCAIEQKBCw8hIWIiKNZJpCG7xMKG3G47Y4jp2/Axt4Z4ug6M86G67DxbgYVHKwYGFCAaWFFOJVcAe/iGgSV1MC/BUWFSlI5qJBnxRxBEUYEF4DUGa1BCrafO8WY5pOCi2Y2MNbTg66ePhyd3RGX8uJhLxQyI5HGM2XKM+e2lfd8R66bm5vbKgzrbe2vrjreuiwfhTjvlQ45+khPpSEk6Anj+6T4w0Epznpm4F55Y6+/zjxPPRdU7BXjjbOJmCypwcKinmecySsq2tHS7cZVeVDBg4rOfIB2Rd0dBSqosUjp4k5d1ESkIJLFHD+vgcKDCqCmpgZxsbGwc3SAopIS1g0eBr0Bw2A8ZDSurliDKImkTU+48qoqJKSnIzM7B3HJSbA6rYH7TjLk2ITj1sZjiF97GWXyRhD9fha2O87A6Zw+RILI+rqLSksQEBCAKwdOwPzAJXieNYLPeWN4qunDUekGTLaegNmKgzCbvQvX9xyBu7cXBJGRcHBwYGmVa2tr6+tqzwgPKnhQ0RBKNB3/QEWAd5WFOOaVxy6r4hpgi10G3lKOwhtKUXhbue3lTaUoyMmHQW5HKOR2tqNsuYMRVySIzypCzd1y5iNFXlLtK6UsTLQrnumduY/ysjLm87B4wwHmIUEqCGU1deTm5rXorVVeXoaiwiL4BoZD4cglTFm0nYV0MM+JORuYt8SSDQdw4OhFWFrfRmhIKERRQvYOIfVFI1VECx1iUmgQ0JC2tn4PABUEEQgyDAog4JCPDeJSWOTcRUhpXTgIp6iQjy3D8eSnKopJIYUY2oonBaek4Ia8ooJvmzZ8DpDvgzQ1H9+cj+uZagoOlChIMOBiHGLS8kF+Gg1/Q2eN90xQoSDGX0/GY3xUNX4tBObl8qCiPQ1Lft2nZ4AHFfzLoLMenl1Vb0eBCvraZW3njFHTVkL5+EUIqaEpjm5VWdFXQQV16lNSUhAUFARNTU3c1NDAuevXIT9lOqRTZgAqKqhevQ53vh2M05OnIS4l5elDp8kYZQnyDvDDISVlbB4yEtd+mgbVFesQreMG+KQhwcQXlr8rI2XjNeTv1kf2Fg3Yr1CBx0l9uJvZofbxQ0hkMTC8qAH3U/rIswjBPZcY3HeLw333eNS6x+G+Rzxq3OMQpe6Ac4eOISUrnR0FqUASExNhYmKCuLi4JkfWtkkeVPCgoimc4KYpTIPUFAtuhEAcn4Kc7Czk5WTBwEeKWZcDMO2CH2Zc9G9TmXnJH7+c98NoNW+MOtnOcswL67SDEBIlRUKcDDGy1otUKoVYLKkv0WIxYmNjWfYv8mnoqmd7R++HQjdKS0pwQ9cSE+ZuwuT5m1l4hndAKBiMaOa3VVaUIzMrG+q6lpixlDwkNrDQDhbmMW8TVm1TxiV1A/gHBCFGEs3UeKTIa08IIQFxFnYoek7YYQ8BFRxMGBpYByx+DivE2eQKeBRVY1dMGfOo2BtXBoW4MsyOqPOiIEjBbdeWIQ8qClk2vrt37zLFHxnUU4e0o++J3lAf+T1UlRZB1SUNfyAg0BPVFByooGNTkOCgUxpqK4q7JANIzwMVCmK8rhqL0SEVDFLM7yWQgg/9aFujtzvWqqmuQmVlBaruVvKFPwe97hqg6zc7M6M+NRwBhxcpackJcHbzxqiffsWo8VOhcvIKgxXS6JZhRV8DFfRCDA4Ohrm5OXR0dLBp0yaoKCtDEhcLYwtLXP12KLInz0Tqyg0QjpmCmO9Hw/QfH8Pk5Bk8bPBwy8vLQ1hYGMzNzKGuqQmFA/tx8MehkM2ah7hpM6A953cUOYrx2DsFQm0n2C1XRubmm8gmQ8zdBvBfehReR7ThcsMUt27dgvlpdSRpe+KxWwJqnGNQ7iBChWM0qp1jcM9FhsrbYtS6yBCn64FQn8D6I6HjWLx4Mfbu3YsYaQwoJXR7/3hQ0bdBxb9a8ZvopxKJuZd9YWVlBSsLU5iY1hVrS3M42Vq+UHG2s4TLCxQHGwt235qamcPMvPWib2AILW1daOvUFS1tHRgYGsHXz79Xy9ZLS0sQE5eAxRsPMjUFpSVVUruBnOxc0LKGnTaCGhXl5YiWyLBX9TImzNvICoWKkK/F0k0HcfG6fp2XRIwUkuhoBhuep8J7qeU9DFRwwGFQYAEIWqyNLsGvkcUYHJCP+ZHFmBxaiMFtCPPg6mk47OuggoAgwYnbt2/j+PHjDKSTAqrhNdrR47TP6upqEBzp6Lpfpr6KkiJEJefh656upuBghYIEX52LQ0RiLqrLOh/s9ixQsVeMPyvLMCygvNdBivaCirBICbSMbKBlZAttYzu+dNI50DK2xVUtM1zRNMUVLb7w56D3XQN0/Z69qocT527i5HmNFy5nLmlDkRqk05dg1IgxGDNpJpRPXmawghqhzTUw+wKoINWBTCaDra0tU08QoHBxcWFhFqqqqjAxNkZMQjw0tbVx878/IOSDb+D5r2/g+cHX8PvoOzj99SMYr1iLnPJyiCUS2NjYQE9Pj8EBZWVleAQE4NS2XfD/fjigeBB3VqyCz7GbqHaLw0PPBARfsoTrsiPI3arN0owW7NaHZPU5OO25CI+LJri0QwVF1gI8dE9AmYMIZQ5C1BCcsBMhSc8LcVpuKL4Vgceu8RBqOCA0ILieRVRWVrLf5ejoCJFIhHv37pVvxQgAACAASURBVNUva+sIDyr6JqggtcQ/VerMMWnIqSi4IRlm9jsihJqRMwMSt6ys0BuKxa1bMDQyhr6BEYMTBCio6OjqwdzCsteqKqgTRmaZlzSM61OFTluyEx6+waiqrGjUMePW9fYPxartRzBm1rq6DB5zNzI/i7NXdODl7cfgOIUMNvdu6JR5nQQqtvnFYmBQUX1oBoV2tKcQYCDFxICAAhC0GB5UyIacF0V76uLWHXSnGFP7sEcFKUXp/SQvL4+//vWv8Pf3ZxCB4EV5eXmjQgCDrlmCAbRd0+U0TfNpndLSZ0O4aF5FRQVTbBw7dgzXrl1j07TNywCGjtiWMn2Q34OCfSpe29fD1RQcqKDhHgkOOKaivKQQJUWdq9zuOaBinxh/OBSDH91LsCAf6E1KCs6voj1ZP1TOaGDgqGkYPXEWxkyazRf+HPDXAH8NtHwNTJ6DsS9bJs3BuJ/mYvykGRg7ZgJGjRqPMZNmtaqseFVBBWXDyM/Ph4+PD1NOaGlpMeUCNZYiIyMRHx+PkJAQ7N+/H4aGhpAlJEDP2BgXvh2KoH5fwueTAfD9zw/w/+QHeL39GU6NnIALGurQNzRgnhAUMnLkyBHo6esjQBCB04uXw/39LyD6fAi0PvkWwRfNcM8jAbUe8fA/Zwqf5UeRv12HgYqcHTpI36gO27VHEaZuDzc1PdS41qkoCFRQ2EeCrics1G7CWs8UDiZWMD2nAaH6bSTp++C2mQ2qHjQGEn4B/nBzd2vEJgpKipCSnYl7j1pXWfCgom+CCjLEHHlFAhW3TIy5JmEpQzlIQcM3D4VjlUUq7N18YHXLvFdACitra5iamTUCFByo0NM3gJm5BQv56gkdmPZ2giiEwzcoDPNX7wWl/xwzcx1UTt9Ebl4eCwdpWB8BDU/fOywrCKUVJRUFKSp2HDwD38BQFt5RlzL0OaEaLfhRvDDE6ERQ8UNQMQYHkY9EIYYFF2JocFG3loEhpZjim9pnzTTpHiN4cOjQIXz00UcszLKqqgqZmZlISkpi7+Do6GiIxWKkp6czvxkCETk5OaBwSgpplEgkEAqFTI1B9VGhdWkd7nqnTi7NS01NRUREBIYPH445c+awbXqC8WdVWRFCE/Lw1dlYFlLR4ww0G8KJhuP7pPjwuAyhCbmg38Cd784Y9gxQsU+C1w5I8Y1jAQMUC/J6hycFByi4YXtAxf4T1/Dj4DEYPWocRo+ewBf+HPDXAH8NtHoNjBk9AS9T6DkzZswEjB07EWPHTmJl1KhxTFlx6OgFhIaEPZMN5FUCFeRXQy9RathYWlrixo0bMDIygqenJ4MTpDigEkWNb5GIGVAePHiQfX0hcOHg5YnDU2fD9c1PEdp/ELw+GYCQ/oPg/8l3ODV/EdxD7rCGE8W/E+w4fPgwDI0MERQViePLfofDW/0R+sE30PrgCwScN0GtZ1IdqDhrAr/lx+pBRdZ2LeRv08btFSqI0nCEk5ousi3v4O5tMQv7SNTzhMH5G5DGxaL6Xg1q7teioKwETlZ2CL54C14XTeHq4gICEaWV5aA0qBqq56B1/CLKKsoZrIgQCKC/XRWGS/fB8qYeyqvvNoIYDSd4UNH3QAUpKH48J0JYegUePQa8E8vw/VlRPax453A4fjwfjcisakSGBrPOf29QU1jeugUjYxMYNFFTEKzgQAV1gnobqCADzfSMTOw+fJ6pI8hfYvGGgwgViFBRUd6oE1FRUYYwgQhLNh5k606ctwk//boFJy/pIiUtA6XFxW0yx3xhGNEa3OgEUOHr6YFzPgJs8E/ApidljYcEK1yisNJV2G1luWs0tjiG4IaxJQz19Z9k/XDrM1k/moIK+jBACosDBw7gzTffxHvvvYeRI0di8ODBGDBgAAIDA5kikMLMCGz87W9/w/fff49Jkybh/fffx9GjRxmI2Lx5MwsBIxUGgRACFIsWLcLUqVMxb9489OvXj22/YsUK9q6ndTqjc92WOkmJQClJ9zqk1kGKnuxN0RBS0PgTr4pt1qlMUVHaiaqK7gcVihK8pijFF9Z5mJfzmKkpuI5/bxu2B1QcUruBQUPHsS+bXKeBH9Z1nvjzwJ8H/hroomtgzAQMHTYWM35dB1sHV8RKpY1kvq8CqKDGDxnlubq6gpQTGpoasLe3R3h4OPtaIxSLESUSQSAQ1BeCFfQ158yZMyBYIRIKESmOhpqaGk79+0sEvPEfiP47BIWTZ8F8yCicO3YcIVFRDFDQFyD6ckNhHzdv3oRAIsaJAweh1++/EH7yI8ze6w/DNftQ7ZWMh95JTFHhvlQF+dvrQj8yt2uhaKce3JcdQcR1W7idNUCsngdq3WJRYSuC1WlNxCUlNGQJTPIaGS2EtYYRknW84X3ZDBY3dGGjZwpLtZvIMg5E5HV7BHr5wj3QF/JTlyBm6RmUbdaFw2wFWGjoofZRQ5eNp9XzoKJvggoCE0mFNfUXgmNMCf6nFoU3DoaBwj60QvLZMupAkEqhp4MKUlOQdwX5U3AqiobD3goqyGuCQIW2sS0oSwcpIyiNqJ6ZPSory+sl89RxIll9Tk4u9h+7AvKvmDhvIyYv2IwbuhZMFk9QIy8np9E7oFOAREuwoqNARXw6vLx94O7hCQ9PL3h5esLb0xN+Pj6wc/WAvokZDPX0GCAgSNB9xYBdj3RNUnrS2y4efR5UbNmyBX/84x+xbt06pq6g9zKBienTpzNVhZmZGVv+ww8/1IeL7N69G3//+9+xb98+rF69GgYGBmxdghBkij1x4kSsWbOG1Td79mysXbu2PlSkLUChs9YhJcKd+Fx8cSa2Z2f6aAopuOl9ErxxRIbwxFyQz0ZnnafuBRX7JZDbJ8GnJtmYm/0YCwvrQj4o7KM3lrlPjjurdSUte7kfOHENPwwahdEjn6gqSFnBF/4c8NcAfw108jVAYR8EgsaMmYgRI8Zj+vxVMDCxhkQkesYsrTeDCpJ7UmgHqSYIGFADh6YlYglI9RAllSAyIQ6RMikEQmE9pOCABa1DvhXr16+HhYUFkhITmd/Ekb2KOP/9cNz65Fuof/sjdv22GJdu3oSGhgZsbWyYGoNgxaVLl6CiooJoqRiGVrdwaOBI+L31GcI//Bo3B45BtI4rEJwLsa4rTJcoImvzTeTu1EXGdk0U79KH9zJV3LlgAb/L5oi4YQd4JyNRxwOOJlaofXC/vgNJI1u3bsX4yRPh5eGFKG0nwD0J6Qa+SNHzxgMnGRCYjbsO0Tgrr4Iti1bBYsYu3FUwRfZOHRRs1oL5wr0ICHxqwtmwch5U9D1QQf4U/ZQjsOFWMqpqH9VfDkYRhSzLx3KTBFTdr5sfFBjQ40GFlbUVODXFqwYqCEaERghZyMeEuRsYrCBlBWXyKClpHINPhuK2Tl74ZeHWJ+aZm6B6ThN5efkoKy1lUCP3FQAV0sRM+AUEwd3dg4EKghXe3t5wdnaBqakZ9PX0oG9gAH391gt1eA0IbLEhjT+/PK/OZ5YbGLIQQQoT9PQN6vOggt633377LXtHU4gm+U+QGTSpKihzFRldf/LJJ8wLijyXaHl2djYWLlzICoEKynLFKSoIVPz888/YsGEDCwmhsA/aR0Pfi87qYLdWb2lxXcd+u80TNQXX+W9uSOqFfZI61cUeCfOHII+IDi8KkvZlHKHjUpRgjUUyKksLUVzYOV4V3QcqCFIoSvFv/UzMyXyEhUXA/DyAwj56a5n75NjbAipOXNLFsMkLMW7aEoyfvpQvnXoOlmH8dL7w56B3XwMTZizDy5TxM5Zh4qyVmDhlPsaMHo8RI8djxoLVMDS1ARmmNZdurreBCopxZdk2zM2hoanJGpauLq5sHqUsFMfEIFIWA0F8LCJCQxF6QwtBC1chRO08ImNiGsEKChGhEBBSVWzbto2FiCQnJuG2pwd279uLuT//gqWLl+CKpiYzz7x+/TpuqKuzrCFkzunk5MS2I/WGMEaKU2pqOPa/H+H2Vn84fvwF9o6dAom+N2p902C25yzcFh5CyU595OzUYZk//FYcQ9A5M4Sp28H/ojngmwbxzdvwd/PCgybqB1KKHDtxHFKJBME3bVB7Owa1rrG4e1sCqY4rgq9YwUrlOmxVb8Jooypi111GHoMiWiDzzuTVl2C4V42FkNT3Sp+M8KCi74EK8qAg1cQ7SuE47JKBh4/rLobHjwELYSFi86vZjNKax3D29IO5ec9XVJhbWDSrpOBUFb1RUUGZPLJzcnHoxLW6MI75m5gZZlBIJEtH2rCjROtmZGXj4IlrGDVjDQMVv29TQXxiMirK67ItkAdAbwcVsqRsyJJyECmOhYeXN9w96mCFg6MTDAyNmWkq/V+3XvTZ8pagFnfNNB3S+q3X2/x+SU1h5+gEUUwyYpNzUPcb6He0syTnQiKNhyhS0G2qmLb6PrQU+kFKiiFDhjCDa8rOQSCC1IkDBw5EQkIC++Dw1VdfsfcsLePSmm7cuBGzZs3C8uXLGcygZaSooA8Wv/zyCwMVWVlZIEUF7YO2o+u94T3SVeOUjvRuaRGC43Px/jEZ5MhEszlAQfOeGGwOuBiHFSZJ2G6Tgq1WHV922qRiiVES/qFCxyNp+XiaHudeCfsNIfG5qCjtnPPZfaDiyY/9m1o83r2SjLfOJ+GtC728nEtkvyGhuLZpW++Z6cKiUiSmZiEpLYcvnXgOEtOyESWORYQwBgKRjC/8Oeh11wBdv36BYXBy9YKLu88LF2+fQOgY22Lc1MUYNmw0U1IQpJCKm4cUJPntDaCipqaGmW9RZgtSNVCn3cHBAcFBQcyPQhorgyg2FpFxcUw5EWZti2D5g/Af8Qt8P/kB/iOnIPSmDgQxUgYqKGyDVBUU/kEhIzQ8ceIEKKaVDDIpXekBJSWcvnIF2kaGDFJoamri4sWLbP+0LSkqKHSE3MUVFRWZRDUoIhynzpzG6rETsWHkWFw5fQpG17SZCWaJbSQMtx6D3fx9SN5wDYXbdJCyRR1ZOt7ItQlHumkA7rvFIV7bA86WdqhtwQAzMlyAwMuWeOASx1KWFliFweusEZxPakOi44ps61DYrD3KUqESEMncqY2M7VpIWnYBjosPIzgg6Jl3FQ8q+iaoIFhBqor3lSNwyjsbT1hFo+vjtG8+juo7wd7aokeHfnBqiqYdy4bTvQ1UUCervLwMFnZuzGOCQjjGz9nAwjhKmLFg404DmW1GREmwZMNBtt7PC7dCz8yOQQquw/YqgQrq8AuliQiLFCMoNBI+/iFMseDlFwwv39aLt98deHgHwtTcCpqUwlZPv/Wiqw8tXT3csrGvq7sN++COwdsvGAEhkYiOTUFsSl774URDmPGKgIpBgwYxRQWBClI+kN8TgQoy0CRFxccffwxjY2PU1tbi4cOH7CNC//79sX37duZrQWnFaVv6I2NrUmBQSAmBipkzZ4J8LEiNQbCiq+BEw/2QNwWpDzbeSq4HEc2Cin1SvHNEhlMe6ZCm5SE7r4Adb0FBITq6UPaR/IJCqLqk4Q8cIGkKJVqYfm2vBKvMU1BT3viZ0/A3v8x4t4MKRm72iCGn8AqU3dHsd8TmN3Zcb/Rm5ye6/AxUVVWylzG9qPnCn4Pedg3Q9ZuVkY4YcTTIif1FS2piPJxcvDBs0q+YNnc5U1JIxdGtGqf1VFBBklD6chMcHMxUE2SMSQ0YytoRFRmJaAIFcbGISkiAICYGER5eCDl5HgHTfoPv54Ph990oBK7cjFBtA0SEhkFAvhKCCOYxQU7iFPZBaoqAgAAmIyVncmrcUL73q1evMjihp6vLQkouXLjAwjy0tbWZvJiMNDknck6RQVLT69evQVtfDyY2NojLSMeDx4+RW5APE009eJ03Qb5NODxPGUBnxX5YL1RE0LLjyNPyQrVbLO46SVDhGI1ymyhYnLmJ1Kz0Z56jFfeqYK6hj0QdT9x3jUWZvRDlDiKmqqDtKXQkUsMR9ksPo3i3PnJ26SJfwQDBs49A/z9LYDV0I5zUDVHTBILwoKLvgoo6WBGOj44IoBGc1+iac48rxScnRDisfRu3bS17NKh4npqCgAUHKlJ6iZkm+UkIxTFYvvkQC/cYO3s9Nu9TQ2Jy6jNqCuokVN2tQGBoJGYs3cmygtCQzDZJacF1Il4dUFGnquDUCTGJWZBRadipb2U8LiUXtI2uvjEDzUrKymitHFZSwuHDh3DbxROxybntVkWwbVJy23x8Lf6OXgYqyD9qz549zF+CgALBhaVLl+KLL75gsJ8UkgQqFBQU8Pnnn7NMIBSO+ec//xnvvPMOexdTOvAvv/ySZfMgkEHr/ulPf8K5c+dgZ2fH5svJyYHgBWUDmTFjBiZMmAAPDw9kZGR0i3EuqSnsorLxhkpMy+oFRSlePxwDzYBMpr54XFWMR3eLGQygdKYdViqKcK+iCNVlRUwRUVZcyFKlsr65YitKj4bQYq8EHx2XwUOci9ryIhR0cAhI94OKhj+2t48r1sll4gp4UNGoRdONE+T0TxIzutC5lzE/7Jw4Mv68ds55peuX/BGiBC8n54yLkcLS2hFTftsCQxMrxJCSQiRsVSLa00AFnQtSK1ADRF1dHbq6unBxcWGqB4ILshgZhBIJBHFxiAgLR6iWPgJXbILfd6Ph+9kgBExbiJBTFxHu5QOBTIbIuFhEiEQQikRMakoqCDIHvHXrFlRVVZlclL7mkFqC4pP19fWZauLy5cs4f/48AxSmpqZwd3dnKg5KZUreFKSwcHNzAzmUk8KDPDJIqcF95Wn4SKyqrYGnlyduHDiJOD1P5NmRKuIWrA9chkzTBVVO0jpI4SBCrYsMkptOMLquheT0VDx88p07r7gAdtY28DhrhFonGcoJajiIWCHAUekYjfseCXA/oYvA309CtuwcnMfsQtL6q3AZuxtX3psDnX8vhOWeU8grLWp4eOBBRd8GFZyy4rMTkTCNKmDXRk75ffysIcPrByJw2sARnnZmcLS26LHFytQIlkb6rRZzA13YmJsiPjGpWzov7Xl/kpIiNS2dZfmgVKRkojl9yQ64eVNnr6JZSXt1VSU8fIMZpCDDzdkr5VnYB3lTcPt+tUBFg7CJ5BwGDwhctLUkZRbDzMIGe/bIM0NlMlVuqVCmCnpP+N+JREJaQZv3wYGU5MwipOWWNfKnSM4qRmpOKRLS8pFVcBc03RS2pOeWIyO/4ikY6UWggq41ghD0XiVfCfpAQNNXrlzBrl27mEqSC+2g9yrNo9SllLGLsnyMGTOGqSMIPCxYsIBtTyoJytpD5po0nyvkS0HvZGo/0JDCP8izgj4k0D64678rhsWkpigqxBy9pDoDzZYyfShIsNI0CXkFBagqLUJEYh6u+WcydcVpz3R0aPFIh21kNjsP5SWFDDSsMU+p88Bo6fia9td3S7DGPJmZapJipCPPJQ8qmp7sl5nmQUWjBm5PmOBBRcc+MDry4cPX1bb/m44CFZJoEby9/WBqYQcJ5ScnD4aW3NefzO8JoOLRo0fsSwpl7eBAAQEA+gJDoRlksEWeEAQCPHx9EebtgxDFI/Ab/gv8Pv0RfkN/QvCuAwiztocgOhqRiQmIlEohiIyEODqa1UG+FhQuQqEjZIBJX3n279/P5KIU9kGGnARG6CsNKSiosUNfdiilGm1L07SMoMXt27dZbnhKl0bmndRwet5fQmoyrh04Cb+zJrjnLMNjzyTc84hvBBwIPFQ4iNjyqOv2MDuvAVdbB3jedoXlDT14nTNihpl3ncQoewIpOFhBw2o3GRz2X4Hw9zOwH7IFZ9+YCr+pB+E6fg+u/3MeNN6fC/PNR5FXVJfNgTtmHlTwoIJgxXtKESxFqXV0CRQc0vD24XD0U4nEGh0/HLvlASVzzx5ZDph6YKeuE3Y8p2zRdoSisRsE8amgFJ099f1UWlqK/Lx8nLqsx7J2TJi/icGHizeNQPLtpgaa9DtoXnFREa7rWmDsrHWglKRLNx1CWnoGM9HkfusrCypaUU+0pE5IyS6BtZ0TM3IkRV1rhUDFyZNqiBDFM7DQUp3NzScQYWXvCm19M4hkFP6Ry+qwd/aCnpEFfIIEOHH6ImxveyIhvYCpLmKTs5GYXgAtPROcv3wDIllqHeToRaCCu+ZIVUEhHNTOoQ4pwXwCDtw0rUfr0DxaRm0A8qigrF3UvqdtSWFJ9wVtT+EctC7N55Y9ePCA1UF1UR20fnV1daN9cMfT2UNSL1gLsvHmEVnLmT4UpfirkhQW4dlAVTEkqfkYdjUecrvEkJOXdGzZLYHcLgmmaScygEIQhVKmZuQU1MEU2l9b+sX7JHj3SAwDHhQCQj4cHXUueVDRlv+Atq7Dgwqubdtjhjyo6LiHRUc9dPh62vd/0lGgQhgZBYIVpKx4HqDglnc1qKAGBX3loBAOyn9OoR0Ui0oggLJ2eHp6svAMghNkrEV+EL6+vmyZsZERFI6owP7CZUSMm4WAucsRqqGLiJBQCBLiERkfh0ixuM63QiJBTEwMU09Q/Zw6gr7WODs7szAS+tJDcIIcx3fs2AEyyySZKbnHU3gHQRI6Bm49CvfgwAkdL5lotuUvKy8Hxhc1kGVMPhR1IRtc2EaFw1NlBAcdSCFx3yUWeWZ3INZwglDdkWX4uOcUw0JEyhzqQj649WnIwkacJbDfcx7CZadh/L8VuPTuLLhP2IM7c47g2vtzofn+XNzafhK5xXVfzblj50EFDyoIVFD5p0oEPj8pZOM0/aGKAKM0ozDNRIhfjHpemWokxCjdCAzUCHtu+U49FBP1BQhNzAbnyN/T3lUEHKgjpm1sg4nzNzFQMXbOesgrX0B6RmazIR/0GyhMJCpail/XKrLtSIVx9JwmcnPzGoENHlTUqTAo9IOggJGpJfYqKLQKKQhgkNJCVfUoIkRxSEwvbFcIR1JGIcysHDB46DDoGVuC1BUENGbOnotFS1bgtrsvvvjfV/h10VJIEjIZxEjOLIZ/cBQ++/wLDBs+EhHR8QxcyHohqGjPPUbmmHp6eiA/Ci8vL6bAaM/23b0uPVdy8gowWy+xTq3QUt9yrwT9T8XCV5aL+5VFOOeVURci0pZQDJaJQ9p89g5uGdXDKSWezFtgkFQPKug8URaPpKx8zCXlB2UYaelYG87fI8EsvSSk5xR0aLpSHlQ0PMkvO86DCq5t22OGPKhoX6e4ux/k/P6f/f/qKFDBwYf2DLsCVJAZVl5eHosZJUUDfZ0iPwiCBwQRKLTjzp07zDeCQACBDE4BQWqHlStXsrjUkydO4NKVy7AwNEJM8B1ERIsgIDghi4GIwlzEYiYPpS8xpIY4efIk25b2Q+oMCvvg/CkIgJDCgkJLKGyDjon8KUhBkZSUxOoimELHR8toXZpPqg46PppvbW393OdgfkkRTDX1EXnNDg9c6wwwGwKG1sZrnGMYsKh1luGei4yZZ3KAo+l2DHgQqJA/B9HyMzD63wqcf2s6PCftRdrWm/AapwDHIZthd+I6SmrqTMi4g+dBBQ8qOFBBQzLXpIwgNP6BigATNAWYZyrAbOOeVeYYCzDdMAJjtEIwUvMORj2nDL0ZjGkGYQhLzOqRoIIABb0LjG85Ycqi7Rg/dyPGzd6AVduPQBITx/y3mnt/UpgIpSqlbB9ktjlp/mZMXrAFfkFh9dk+uO36CqigkIv41LwmJR/xafmIY4aWOfAJCIPaqdNQ3LevxZAPLhSE3gEHDuyHg5M7gwykkqC64lOpPN0PAZCmqgo6FmlCJnYrHMD5y+qgcA53nzv49rsBOHPhGsJFsZg2Yxb++8WXsLZ3Q2p2CVKySnDy9AX85fXXGdAQiBP6DKgg1eLgwYPh5+fX60BFbUURU0n8Q5m8KVrxf1CQYNDleEQl5aGqrAj7HdPqwAIHF5rrq3IQ4oAUfzwoxWsHm9RPy/dJ8doBKf7vcEwdeKDsHgQtFKVoCiromVBTVgRRSh5GXIlvWxiIohR/ORzDFCPkw9FRqoouARU/XE6CnLy4bUSmuf+A3jKPBxVc27bHDHlQ8WzHl2uU8MPecW5eRVBB9yVJNUmFQFJOCpOgcAuK8yUVA3X8CU4QPCD1BJlkEWigDBwECygGddKkSUzpQLGm5CFBvhK0PDQ8HAKpBFESMYMbBB9IAUGhI1Q3fQEjlQRBDsriQSEeOjo6rF7ORJPqoWMj9QRBB/KZoPXpOEnZQXna6bjJm4K+7FhYWDBAwWX8oGOhbcgMrLm/6vsPkJaVAeOburhzibJ0xKLy9rPqiabAoblpCvMgJQa8UwCvZBDAIGDRNPyjxj0ODgeuIHLlabiP2o3rH86HYOFJlOw3QfEWHdgvUISvm+cz2R14UMGDioagouF4jwYVJgJM1gtrE6QgiNGTQQVl8aDnpYWtK6Yu2o4Jczdh3NwNmPP7HvgGhqOioqzZTgEZR2dmZ+PYOU1Mmr8JkxZsZmlM1S7pMjhc2iTrQV8AFQQGJHHpoM69IDqeFVJChAllCIuKYefT2OwWTp0+A6XDh1lqTEqP+byipKTEVBWmFtYIDBUiXChDhIg8kOLq9hEdz9KPNgcqCGbc1DbCrj37IYxJxlV1HaxZvxmRkkSER8Vi2crVePe997Bh8w6mqKB19h1QxtLlq6B4UBnhXMhJJyoqoqOiUGe+3XrIaFvTk75o+5MMMSmckj5uvGgd3bEdhVOkZxdglu5z1BTU31WQYOiVeEQn14GKw07PARUEIRQk+P5CHJSd03DBOx2DLsc9DS15AjFGX0+Amkc6LMKzoOKShuHX4vHHJwCjOVBBoIHCOFzFOfj8TGzLxp8N++h7JfhFKwFZeQUoLe6YNnaXgIofryVDjjJ7NPwxr+I4gQpFCWJ5M83m2ubdMo8HFR3zoOiOBzu/z7r/u1cJVFDHPSUlBU5OTjh9+jSDE5S+k0ADhV2QkSWFZHBwgsABZd4gY0ryjqAvWJTdY+HChfjpp59A2T6oLlJJcCCDhqS8IMhBX13IiIvUEARCR0IMQgAAIABJREFUaHvaF8lHqRCgOHXqFFNwECShYyBVBHlecLAiNDSUKTBo3bNnz7Ic7AQh6NlCf+QcTuEfBFBEQiHbluDFTQ1NlFdUsHXoWqbGlUQmg4+7G84qK0Hz+AVE33Riqggyu2wOQrRlXq1rLBIMvGCkeA7BV6zwwD0B8E5FxW1xHbB4kv2j1j0OIdesYbJgD5J/v4TklZdRqWCKvI0auD1nH4wvqKO0uvKZ5zQPKnhQ0RBONBzvyaBiplEExmmHYKTG89UUPRlU0POfVBF2zl6YtXwX85cgZcT0pTth5eCG0pJSprRo+L4kPwoy1YxLSMKhk9fZNgQqxsxah/V7jkMWl9isAqMvgAoyu/QJDIOeviH0DYxY0dHVh4amNtTVb+Latev15foNddxoR7l2/em29PzX1tWDrp4B24eunj5s7Z0QLUtlPhQNgQX5TTh5+OPnKdOhb2KFLdvlsfeAElNJBIQIceCwKg4pHcUvU6bD0tYZuoYWmPzzVBw4pArVE2cQJoyt88boJFARLYxi2cECA4IRGhKK6Fb8rTobVND9QKabdK02vOZ78jj5PlSWFkEvOBN/IaXD80I4FCQYciUeojaCij8ekDIAEhSbi3sVxXhQUYyFhkmQ2/2k371Xgp81E5GcVcD8JxIy83G/oghJmfkYcS2BeV80ByronHKwwik6Bx+dJFjRRKnRtC+vKMUfDkphGZHFsoh0xP9Ll4CKRfa5jPawdCdEb7qiNDx5XbE/2oeCGH89Ho+k0vvPNPb4Gd1zBnhQwYOKjnhQdmcdrwKooK8gBCEohSfJZEkRcezYMWZSSb4TpF4gQEFwgUADeVOQSoFgxrRp0zBr1iwGJijNJ5lVklcEqS5ILUFQgbancQIUBC1oOYV0kFqCQAiBCgorIVNMOgbK2kHmlwQtCGTQMZDigsAHuY4T/OCOheomaEHqCVqX0pOqqamxdci0i4y+rKytERIejtjkFISLJbB3dYPKseNwsLeHo4M9TE3NoKGjgy2/zYfiwM+w5ev+CD5vAXinPWOY2RY4wa1T7RzD0o8uHD8dlILt434fYse83yHSdgF801l56B6PamdpXXGNhYuKBm7/roqQ5SdhOWUbrs7bCitdYxRWlDb7kOZBRd8GFf964k/REFBw4//shNCPGUYRmGoQjlkvEUoyx0SAKfrhzw33aBgO0hMVFZQ6lHwprBw9GKSgcA8qBClMrZ3ZMgoJ4d5P1HkrLytDRXk5vPxCsHHPcVDaUlJSjJu9Hqt2HEFElJh5VnDbNBz2BVBBHhJuXv7M94hS0nJFn7I6GRC8MISBIRWjFyx1dVA9XN001NHVhcUta0RJkp6ElzzNSkIhIWSkefrCVaaqIDWFk7s/0nPL4BcsgILiIVjYOOG3xcuxcvV6NlyzfhMMzWxwQOlop4IKghIyiRiOTu7Yc/gsrG2dWMawlkJIOxtUNLxee8s4qSnI72GcesJTlUPDPmrT8faAir0UJhLHoANl20jMzGchG78aPAEVe6V4/5gMzqJsFkYib5eK8eoJbBo1JTh4O431zxcaJeNBZRErFKJC5X5FMUuNSia99yuLMVkjoa4v3/R4m07vlbB16f+nIzKAdAmokBTfx4+adDLEddIRiovpzPIkBIMpOAggdOa+uLr3iiF3UIajwSWoflj3pa3ZVh8/s0vPAA8qeFDRW15mLR1nbwcVlPmCZLGkaCBIQaaULs7OIKWClEwtSb0glUJIhpcSMfR0dRmgmDhxIoYOHcpypBNwIJhA6gouHIRUFzROqgsaEkigukkZQaEdFKZBQIJ8JggwcFk7CFCQ7wTBDKqPPCUIdpDigUJEKKvHxo0bGbCg0A8CIFQ/FfKyoIwjBCsohERXR4el8nJwcsbJY8dwXukQVNYsx6H507F/0ghsHvwNVPcrIjQyCm7ePjg0YxLUf/gYJycMhUjLGbVu8S+spKDwjsdeKQhXt8f7b73LQAXBCir/+/hT7PttAzzOGSPVxI/tg7KJFFiHQ6bvAQ35E9ixcBWOHlLGnYgw3H8m4OPpY5oHFX0XVHygEsE8KWjIwYmGQ8oEMk6j4zwqCFKssBJBxTuBeV7MNGq/7wV5U8wyisB47dA2qyl6mqKCgEFFeRny8vKhYWD11JNizkbMWLqLQQpKK8qFbhQXF7FxghTR0lhcvGmMOSv3sAwf5ElBCoyNCicgEEpwt7KiHmw0fef0KVChpdkIJDSECp0xrqOrA4tbNs2CCgpHSUjLw3VNPbz//j8xZtwEBIWLkZFXDt+gCOzYvQ+Obr7QM7TABx98yPwr3L3vwNTSHnv3K3UqqCBI4ebuhdVbFDFl/lpY2txGgiwGUnr3NlMKCwtQVlYKgmx9oTS9h5pOUyefQMV1v4y6qALqkzbt2Dedbg+o2CfF0KvxuOybgUWGyTC4k4mHFUWoBxXyEoy5noCy4kJ4S3Pw7lEZ5LaJsdwkGaguhkt0Dvodl+Ffx2VYZ5FcX9ZaJGO5aRKu+WXgblkRU4QQ4KAQk+ce/z7ywZBCJygL1WUvr3zpElBBTZ7MygfwSboLnYgS6AtKO62YCktxyD0f7xyNZeEmA68mwTiqFAaRnbdP3YgSWEaXITy7Bvcf8ZDiaRO3+8d4UMGDiqYvjt423RtBBaUUJXkmqRsIThCooLAKUkpQeIRYKoU4LhaRsbEQxMoQ4ecPwYVrLEvH3oMHoLh/PwvHoHAP8nsg80xSS3AeEqS6oELggPwiSJ1BcIIgBZc+lAAFp56gkA2CC7QuhWUQkCAFR4w0pl4tQeuT6oIUG/Hx8SyjCAENmk/7IWBBhUJDyOCT6j6hpgYlVVVsnf4zDv74X5wf9Q0uj/oaN8Z8C8OJP0Dlx//CSFsLmYVFCAgJxbEF03BjSH+ojBuKKE2nlwYV8E2D3TFNvP2PNxuBCg5Y9HvzHXz+0acYN2AYds5bhVtK12CrdB0aapcQk5yAitqa5z6kmwMV3ufl4HX22eJzUQ7eF5rMPycHn0ty8L1cN/Q612A5LbtYt4wtvyCHAJ2vIBKKIRKK2pydpqWve10xPzcnp1fJkMuKi5Cek48l+lL0U24eQBCM+OBIBL44GYXfDOLx3Vkh3lMObwQr3jkcjikaMiy3FIPCLF7WTHOGkQAzjCPhkliMqgePcT0sA78Y1s2j+W0tM40jMVk/AkM1QjBMMwTDaNiGMlD9Dn42CEd4cg4qykpZdg1SK7RU6LnctFBH/2XfL+RHQYqIxORUnLqsi8kL6kDDuDnrMXMZQQonBiXq1BYlDGiQ6kIqi8dlTVMs3XgQE+bVpSwdP2cj2/7IWQ0WBkKeFa0dX18AFaReiBInMi8Kn4BQ+HZR8fEPQVCoEJL4DBCYaBj6QePJWcW47eaL777/AQeVj7GsI5QRxD8kCvsPqcDR1QfRsWlYuGgZNm7ZCcr8YWxuC2VVNYSL4jo89KNOSSGBm7s3Nuw4iOGjfsKMBatgbGGPSEEkQkLCmy3JqelIz8xBWkb2K16ykJGZxVKitnZPkU8DhViQ54Tc3jZ08glatAdUHJDiz4di8HelGPzxkBQ3/DPwqLK4DlRQOlMFCZYYJQE1xWzZX5ViILdTjOFX45FfUIiIxDx8diq2zkeSIETDskPMQkooTIRCV5gipC2ggn7DHgnG3khEVm4BgyStnaPnLesyUPHc1lAHrhCaXo1PTlHO2WjMNUrvwJr5qnrbGeBBBQ8qnvcQ7OnLexOoKC8vZyk7KSyDUnRSZ56UDqRaILAQHfNEOREfhwiBAGEmFgjaJA+/QRPg9/H3CD98HGa2trh+4waDA7QNAQUCBAQpaJrgB9VPYRuktNi3bx/zmSDIQFCB/CNIWUGhHwQtaB7BB1JwkHKCgAeFc1AoioOjI/QNDWBuYYGg4GDW8aAc69wf/R46fgoHIW8M2jcpOej3kP+Fmbk5Tp87h23LFuHw8G+gN+47GE8dDt2pw2H0yxCojv0ROrp6ECYmw97dE4dnTML1IZ/i6KTRkOp64J5r3EspKghUuJ7Sx7tvvNUsqOCABQ3/+fZ7EGs6I98yDC6WbUudSuehEai4JAe/K39EuPEAiGx+QpTlaAjMhkBoNYFN39H+CMHaHyLSYgSE1pPYPKHVeASqv8kABgGLcOPv65dFWY1HkMZ7T0EGDypa7Uh2xLOqLaDigyMClobUILwA1fcfQTskDx8eiUA/pQh8fFSA95TC8Z/jkfCKL8PpgCRM1g17KVBBcGGqYQROeslQWFqOe9XVCEvJw1LTUCwyuoPFxiFtLouMQjBLNwi/aAdgSjvKZE1//GoYjCBpEnKyMpn3DPnPtFQyMzNBIW05ubn1JT8/vx5evMj/FaURpee9t18I1ssfr0tBOn8TC9tYsGYf7Jy82Ffq6qq7TBmRk5MLoViG6zoWWLT+QH3qUQr3GDtrPRau2w8Dc0d2fKTQeJ4Lf18AFQQFCBTEJuc+GdJ415WmgKJ+OjkHMYlZiBQnQhKfXg8zKCMImWcS4CDTTXFcOhsn4ELjwpgUth2rp4M8KghSxEqfQopRY3/G6FHjMXHqr5ixaDNmL9mKWUu2NFvmLNuGvlBmLt6MFVsOIyk5lSlImrvf6X6jrB2n3NPxp7Z4U3DKinaCCmanoCAFQQjNwMzGoEJRgi1WKUw9QaqLvxCo2C3BN+fjWEaP7LwCfHch7mlWj4ZWCfISzDdIYilSCVQw2NLWVKWKErx+SArNgCwWTtLc+WnrvFcSVASnVeHfT0DFHEMeVHCN7r445EEFDyra+jDsqev1dFDx4MEDlprTw8ODwQPKwkFKBFJBEFgQR0cjSihEZBypJ2IQ7uqGEJWTCJg0B379B8Lvh7EI2rALocbmiAgNhSRGysAEwQCCFAQWyCOC6icIQeoMBQUF5sJOQILCOghGkL8EgQkCFBTmQUoMggkUspGQkMDqIkWHnZ0dTExNoGeoD4tbFrgTFIzMtAzkFxTgAR41+5jMyspiIR83NTTg6u0LaXwiAxZhoaG47egILX1DKOzZg93jh+H66G9hNHU4TKaNwP7h32LXjJ9wevUS7J8/AxsHf40rI/6H4x0EKh55JCLB0Av9P/oP/vnaXzDh7x/jb3/4U7PQYuQ3A5FnHYFEA294u3g0+zubm9kQVBBo8L/2OpIC96Eg0RZVxTI8fliL0iw/Nk3wIj1CDbV3s1GU6sTm5cUaI0Tvf/C+8BfE+2xBbWUmStI9UJBgi1yZEQRmg+Fz4YniggcVPQJU/FMlAgPOihCVWZeq9uGjxzjrm83CQN5VCgepKQ46ZbDL5Zhv4kuBCoIU843DoWTpDTsXd3i4u+K2iwuMbf6fvbMAjyLL2j+r339dvvVvd2d2d1bGdhRJcIZh0EFnYIDB3QnBCSFAgKAJECQhHkLc3d29Ox3tuLs7vP/n3E5lOqGTdEegyRTPc6nq6qpb1bcqp6t+/Z73uOD+E0c8sFa83bdyZNvS9vK2e1aOeGjtBHtnF7i6uQ3aCHDSOl7e3vD28eltAYFBLNaVlZcppLKhFI6W5kaIc/Nxz9gWi9ce6i0lqrp4CzbuO4uImAR0dbYxBUWqMAMunoE4d/Uhlm9Sx8ylOxikoOmUBZuxdOMR9l5MQioz4pT2sRjse+7bAiqk4YCI1A0vquV840vRewxSy1gKSEElpMuY0jICFDSlbbhypzSfnlvGXvf2NQqgQmKcmQQPTz9s23cCKtM/harqDEybNhvTps6CisoMTJkyHVOm0FRWm47JU8Z/+/gjFXzy+WZk5uShob5OZtyur5WoKf57M1O+lInhggra7pgQP9aQBSqE2GMvARW3gwrx/3pAxX+uZSBBXI4+oILbPzdVE7CypZ1NEkUFGXySUmLI1A9u+8OpmKqfheyiSqbIGCz2DPbeuAQV4XnfgIolPKiQde/5rVnGgwoeVAwWAF+F95QVVNDNL3k8kHKCUjQIIFAKBk0JCBBkoDSJ+MQExCclIdrYDKErNyD435MQ9MZHCFuyBtE37iAuJJRBjISsTMQnS4wrORUFpVxQ3XRtbW2mnKCqHWSwSUoNMsakfZOygnwnSPVApURJAUHKB1JPEKDgSpNSOVFan4wvXV1cYXbnIR5p3cSD0zrQPaKFe6euwMXEGqL09D7xsVMKXni4OGHD7Km4c1UH4fGJyBLnMhBCXhaW1rbQOHce++bPxrUp/4HxrP9i2z//iC3/+QuOf/hP7P/v37Ht3b/j1pR/Q3vONKQZ+41IUUGGmk1uqejwycT+z7/GnV+roO7N7bj9pxlY8LPX8Kcf/KQPsLiy7Sie+ufCX88KKampfT7jYC+kQQWlZ1Dzvz4BvpcmIDv4INoa8hBj/hZ8tCeA0joK4q+iLM0YwXrfZev46UiWR5m8juZqIYqTbjN1he9lSQoIn/qheIymG2N5Hz77xzh5FBWU+vGbM7FYYCBCXm07uzw6up/htGcBfnQ8Gp/cT0NJvUR5RH4SQykqyBxzvpns9JDPLBKx1SIUTnY2sLO1gbWNpBFodLAbZrO3hcMwmr2dLWxsh27WNrawsHwMquQg3SRVHoyRKhCw1Lf+Yy/9mqAAxXZKxygpKYWdiy92H72Mmct29Fbp+PSLvTh39QHS0rNQUFQM74BwXL1jik37NZmpJlXxmEVlR5fvgsrCLVi8/hAu3jBEcEQsU16QZwXlyEvvd7D5bx2okIIEvQ/7r/KyUQAVgpRk9v154PhFqMyYD1WVaRJIQaCCtVmYNo1vKpOn4bMV2wYFFaSm0PLMxw/pwf24Ag/4iioqqP+BQIWaAF+a5QDtNdDjFBUHU/H+rUzkFlcgvaAC/7qaIRukjBRUsCITAuj4FaC5rgpU/WSw+DPQezyoGOwOjX/vlR8BHlQMLzAMFDD45S9+PJURVISEhDAoQeCA4ARBAg4EUIUNep+UDPEEKlJTEJ8Qj7D1OxD8/gxEHNNErIsbM85MyM5EgiiN/QqZkpyMdFE6gxuOjo64c+cOq9hB6R3UJ72mMqC0H5on3wlST1DZUErtiIyMZAoOSs0g0EEQhdI1SGlB29HrvLw8dHZ1wdnWHhf2HYeDoSXCfQMR4R8MK30jPDp6BfeOXYKVlRUCff3haeMEFzNreDy2R7B3APRv3cK6//s5Trz5JxxfswImZhZIEqUjOzubpZY4u7njqq4uNi9diK2zVaF1aD/MTc3g7uEBQ2NjqM+bhrsfvw6tWSoQPPIeMaiod0lGZ4AY3kd1kfLXVWj8z07UvbUDFW9ug9frn+PP3/kRgxWffjyNGWk2OaXA7q4Jmtta5I7tskAF5ychDjvGQEX8k4kg3wqCDgVxV0AqivCHlNLxHQTpfoe9F2n0FzRVJaM4+S6CdL/buz4HP7g+eY+KwWMMAQqfgHBkZosH/CVvsDgtL6j4o2Y8fnEqFpuf5KCutYtdL/VtXQxWeGd8UyHmjF8W5hgPnPpBkOK0byYOuKdhvmlcn2oeZJZJFTp0nIIZlLC1s8Or0AhmmJlbyKwK8dDAEAkJiaC0MenzwIEJOn/kL0GGg5Qq4uEXgoOnr2Puqj2sfOgnK3eD2tKv1XBK+w7uGdlA+5YRM8MkpcXkBZtYJY9Zy3b2KVV66ZYRQiPjQaVJSZ1BBpvS+5dnngcVgyselB5mjAKooLQPakZmT7D0yy1QmTobU6fO7IUUqqozmaqClBXf5jZpoirmLh1YUdFcV43UvAq8f6snrYJTGcgzHQ6oUBfif06n4UGoJPVjmUkO86KgNI95Btl41lKD+6GF+OHpNEzYn4L5htnobq6Bn4DKjopk+2eMFFTQZ1UX4J9X05GSW46WOsVjEsUtHlTIfbvGr/gqjgAPKga/6ZXn5oVf5+WOobKBCnooJ4NMKtFJkIBLvSCVA6VikLqCUi4o7SM+Ph7xCQlsGuvnj7jwcMRTCkhGOhJ7qmkIyLsiJQWkSqDUDs74kqprkFqCoASldpAHBaeeIPggndpB6gnysOD8K+hYqC8qM0qqCnpokP5XWV4Bap1Pu3sX17c04dG9B7iw7gAen7yJmLuOyHzkgwKzYBRbhCHspjW0t5/Ag0MaOP7hv3H277/E8clv4/SenXDy8ERmVharYhIcEoIHRsbYq6YGKzs7ZOaIkZ1fgNC4BJxfuRB3P3wNZ6d9hIQHriMy0+RKlHb4ZyNQ2xgef16I6n9sRNWb29Dx9h4U/209Jv/kD1j72XKILYOAkCJE69rB282z9zPLM6MIqCAjzcL4a+hoKUd9SRhqCwNRlKSHsPu/gv+170PkvZ6BjabKBJA/ReDN7/WmffCgQr44Q1UbjmjexN5jl5CXX8hSARSJ0fKCClJVUArIL0/H4rRXQW9dmPaub9KjnAW1WGyWNKCZJkGKzY6pyKxqRl5dK7Y6prKyoZzxJvlSHPJIQ1h0HGxtbV4JSEEghbxpBipfaWD4CImJSWhra2U+EqSYaGpqZGCCbrjJ04KML02snLH3xBUsXHuQAYrZy3di7qrdrH22eh8WfnWA+U7QVHXRFqgu3MIAxfTPtzMFxfw1+7Fd7SIMzB0QHZfMKoQ0NzeCzDgVuR6k133poCIxESlJyUhJoUpL9L3AN8XGQMDGb6QmwqnJSchIS4PlE0csXb0VKqqzMVV1BmZ/uhSLv9yOJYO0pV/twreh0Tis3KSGzOzc54AxKQfI0+G8VwG+R5Uh5an0IQ0wFAQV3zkhxPeOC/EzzTQYhFHVjxqsNs/BD9UF+J66gHlQZBZUsBKpb97IwA9PCXE7sJCpLC56F+B7A/lnjAaooM+uLsAV3wI01g5PVcGDCnnu1Ph1XtkR4EGFfDe/0jcr/LxyjZmygYqcnByQkoJAxa1bt5iagsAAwQTypqD3SOFA3hKxpKggWEEtNQUJQgFSqCQpVdzoSQ2xt7dnZpiHDx/G5s2bWdlQDjyQnwSnnKBSowRFvL29WX/UP61H6SXkX0FpH7R/UkNQukdTUxO6u78BEYMFsfauTjjbOsDpsgEq7WLR7Z2JTg8ROjxFoLKe9Nrt3ANE6NmjK70ePsZ2ODprKi786zc48+YfsWSaCjR1riIoLByJScnwDwiA1oWLcHFzgzg3l4EKj4BAnJw/E/cn/QOaqu8j8rbdqICKFg8hip1i8WjJbgT/fgHy/7Iaoj8sx8N/L4LL+Ydo9U7HM79sNDulwOHaIxSUFA02FM+9pwio4BQVVTmOiLP8LyIfvYYIg98zA056j7woIh/9BeUZj9HWkI+SlPsIu/+/vZU/6H1ZigrO3C0jTQhlaw11NSBzw5bmphfS8KwLR8/dwrsfz4H6mSvIKyhGU79f7weL4YqACpYCohELMtd8EFne59pIK2+Bqp4AE+/GYtlj2WVESWlxLiALXDG0sPxarLRKxHyzWCwwi8Nqm2TEF9VBkJwMaxvrVwZUmFtYDgoqkpKSmSQ8NiGVlQSlsqCe/qHQM3iMPccvY+kGNaagmLF0O6vQQWoK6UYpH6SqoLKilN5BvhOUErJk/WFs3KcJiXoiDkXFJcwLg4wyh5sKJH2tKAOoSE5MQHIC34Y9BjR+iYOXVJbnfQmsEMLiiQOWfrkVk6bMwoLlG6D3wAKu7j5wcPaU2YLCYhAWlcDUPaTwGa8tJCIecQkClJeXP+dHQykfsdlleGOglAppKCFrXhFQcVTIjDF1/AphElHMDDLb6qsRkV4Km9hifGaYjR+fFkI/WAImEnPK4ZBQgqa6KiSKy/HezQHSPui4RgNUUD9HBXj9SjrSC8pZqVbpmCPPPA8q+nz18i/G2wjwoEK5HrrlCUr8On3PmbKBCvqb8vLyYsaVBBeoLCj5UpCCgVIsNDQ0mAqC84cglQOZYab1VO0g3wlra2toampi9+7dUFNTY74TZIBJagwHBwemgiC4QcCBSoFSlQ/ajlQT1C+pNUi1Qf2Q74SxsTH8/PyYC7+iMaz7aTd8PL1gp3EHTz0zAP9ctLiksmocTc5JeOaVBbF5ICyO30CrfwYgKgfymyCwD8P5pV/ixNv/h1Nv/gFffPgOtmzZijNaWtA4fwF3DQwREBIGv+AQOHt649yh/bio8jaMZ72LMxP/A9/LRujyzRl21Q9OUUHTdq905NqEw2r7WVh+shVmn+9F0DVLdAfkoM0jDV3eGUi56wIPW2d0dktk/PKO03BARZnIFKH6P2GeFb0eFLckXhXkY0FpIgLXpWhrzEd2iBpbbyBFBUGK+Ng4uHn4ws7JE/ZK1gJCohESGQ+6cX0RLTo+FbuPXcFHk2ZgsirBCh1WBnCo0pNcXFUUVEhgRRz+dTkJXumSlA+qBLLRKhs/ORGDGQ/jBwQVC83jsNwqAW4ZFb2Xm62gjEEKUltYC8vQ/fQpkhOTWOWdVyHtYzA1BaksDB8ZsTh16MwNBhiovCh5SJBigvwkuJQNWi4NJ6TnWUnSpduxYM0BfL33LNQ1b7LSox5+ocgvKGK/4FL6CJlwDifFg7sW+k+VA1SM/CFbngdxfp2hx5liL4FhUlYsWrkZn63YDFsHd2SJ0kBeFrJaVWUlUw+x65Ou0XHe+v8N1dZUsYfxc1757AFdYTUFPdgrAirUBVC5mwl/YSkEeRWIySpHVGYZEnLKEZ9TjtUWYgYc3rqWAYOwwt73HBNKWOlRgggDHuNogQpSVRwT4JhrHiglZqjqQ/3HdFyCCr7qR+89wbd+hgcVfR96+wcA/rXyj4+ygQouqLS1tYG8JAgSUFoGQQtSVhA4OHjwIGxsbCAWi1l1DIIOHh4eDGRQugilblBZ0XXr1rE0EkoZsbS0hJaWFnR0dJhSgkqI0nYEJch3IjMzk1UScXZ27t0PzVPaCB3LcP/lFeTD6tJdNDsL0O6ehkg9W1hfuAvjY1dhc0Ef4fr2MDt6DXH6TkB8EbrSitERk4tnAbmock6F6eHzODbxHZx763fQVHkHx+ao4MSSebjw9Rc4u2IhTiycg2OzpzBIYTpvIgyy+vC4AAAgAElEQVTnfICzH/wN1scuo9svd1RARYOzBFY0+2agwCUelZ6p6PTNQmOP4WaLUwpstO8hIytT4WEaHFQcR3tjAfp6VOigLM0EIbe/DzLMJDNNSgkJu/cLxD3+ACF3fwyfixPYNq11WRBHnBoUVIgEqfDzD8ayrw9g7pL1+GzpRuVqyzbis+WbMP8Ftk+WrMe0GVQycDomq86FusZV5BUWo1EOZcVwQAXBCqr2oXpbgOSSFtwMKWUlSn93Nh4zBwEVlOJBJpqrrZMQW1zPrj1KHdEJFUPDLxMtPWkkSYmJrwSoIG+KwdQUA4EKAg+c94Q0kJA1z/wpNqhBXfMW7Jx9kZGVg6amBnS0tzLjTVJOEFAYi+9uHlQM/fD+bQMcHKwwsbDFuh3H8cTWGSKBYEDVRlmZYhVvxuI6fpl9NtRWIzS9x/fhmAIGmtLKCkVAxXFJtY9/X8vAuzczWJoHlRt9p2f+11oiSZUOdYmy4a+XRaCKHz8gr4qjZPIpHLiKx2iBih748pdL6UjLr0Cdgv454xJURBe04i895UmXmvPlSRW+Mx1HG/CgQvkfxF/ml8qrsG9lBRUUJqhsJ0EKStGgNJAtW7Yw0EDzpJSgKaVkELygKh1UDaSgoACdnZ3o6OhgqRxUxYM8L6hyB0EPKj1K0IKUE5QeQmVKKbWD0j4IcJBBJpU+LS0tHXGkevrsGSvVGX/HCU99suFx1QRuzs4IDAzE3UPn4f7EATHxsbhz6hKq7OPwNLkYnalFaPZNQ51DAjq9M9Dln4fwO444u3gpTrz5B+h/9BoMpr0NfdU3oa/yJu6rvgXD6e/A9NOPYTR/Cgw/+QhXPvobbq3bgmbPDDS7SdQb0gqJ4czXuyShyTUF7Z4itLoLQfCi3jkJT32yEKNrDxcbB3R0SSo1KDJwg4GK3PATaG8qQvyTSUwlwTwqEm70KU9KaSCx5m8hwuB3rGRpXXEIK03aWi9GVa4booz/PmjqR7pQAA/vAEydt4aVxVOdOhvK1FRUZ+FFt6lTOQf+2ZiqMgOTps7FkTNXkCMuGDIFYLiggmDFbzXioKInwD+0E/EHzTj8Xg5Q8blFPD41icUOZyHENa3s0qtt7URFUweb7+h6CrfgKFbtQ5kVFVQtaCg1hTSoIIPMyZ9t6qOiIFUFqSs+Wdk31UMaWBCoWLz+MDPPPHNJHw9M7Vi1jxxxnsSEs66uR0kxfC+Kgb73eFDBgwpZIIZgBaVneXj6Ijw8AqlJSd8qUEGqJXngYE1NFSqrqrD+sVh2FQ1pGDHYvCKggvrp8YEgL4jn2jEpEEHrkYKC1pNePtCxjCaoOC7E944KccAhD20NioFWpQYVJY1dUPMoxzrrImyyK5arbbEvxkKTAvzkrIidEAIWm+3l25b2sdGuGF/bFMMwtrY3r1KRmzp+XeUaAR5U8KBioJuyV2W5MoMK+mvPz89n6RoEFwg2XLx4kaV1kMJiz549IFNMWqexsfG54EDLSYVB/hO7du1iVT5u3LiBAwcOsL5IlUEpJbSOv78/CgsL0doqedh5rrNhLKA0CM8nDih/HIm0h17wsHdBO54hJTYRNqf0IIpLRm1rA7zuPkaTuwBPhSVoj81Fg2sKgwAEAlrcBHjmn4dSh0QY7D+DQx+/A50PXoPR7PdgMn8yjD7raZ9OhNGc92Hy6UQYzngbRya9izA9O3T7ZrO+hgMnZG1DwIKWU0UQSgmpeBwJS517yC3MH8YIAQOBiqBbExh8IAhBKgl6TS3y0f8hwXoykuxnI9nhE9bC7v+SlSuNtXgHSfaz2LJEG1VmsklpIJT2MVDqB4EKT59AzFywFqpTqFQeXxpPMgbfwAqVKdPxkcpcaF7RR2Vl1aDpAByoWG0ixG804kAAQpH2q9OxzGSTtpEHVHDGmXNNYnHUOwNVLRJAwV2MKWUNuGTjy0qTKjOosLGzYyVJTUzNBvSn4EAFwVUDcyecuHAH5649xLFzuth8QAtLN6qBTDAJRkz/fAdLB5GGFNz8nJW7mXGmysLNLFVkyXo1rN9zBicu3Ia9mx/Eufms7Ch5U9TXkcJidL7neVDBgwpZoIKWEawQCQUMWAy0Di0fj4qK8vIK1NbWDBpX6X6yrqYKZRVVmKafJYEBAwGAoZYrCiqk+yMAIQ+EkN5moPnRBBW0j8MCLH6Ug+baKoVillKDirSKdvxROwMTDqVIKBCRIHmatNyGI0jybMeRJrVUrLcpRvc35tbcdyo/fcVGgAcVo3MD86o81I/H41R2UEEhgRQSBBBoSiaWZHJJ6Rr19fVDGlqSMoLSQkiZoa2tzYw1qSQp+VeQwoJSPkYTTkiHsK7ublaCtNAkGPH3XREcEARxUQHsrj6EvdY95IhzIBKlI/i2NVp9ROgWlqItIgcNzkmSRkCA5l1T0OGdgQ7fHAYfTi1YhFPvvYb709/Fo08nwXjeROjNeB8nVd7FtanvQmfyf6A2YxoCr1uiyycLHFyQBR6Gu6zZXYB2VyFcLhogKChI+mMrND8gqNCVmGOS50QgQYoe2ECqCv+rfRv3PkEJ6fdoXW67oUDFjPlroDJZlbnPkwP9t71Nm9YDKqbOxMRJ07F64z4EhEajprZm0JvAkYIKaaihCKigUqTzTGNxJVSMtp6Uj4b2bpzwScdpcw8421jBweaJUjZHW2vYWlnCwsSopxnDwkR2M354H0kJCaiprUNZWTnKystRWlrGjC+pQgCVlr31wBJbDmphwZr9zCyTjDLnrtrb0/aAzDQXrzvEgAZV/CBDzWlLtjFDzblf7MG63Weg9/AxYuKTUVxSwlJDGhrqR5wOwoMKHlQMBiHkeW+8gQry/rG0c4ezZwBLrRvME4a8Fyj1wzq2BN8/NURaxUBwgJYPB1SQSkJNwPb7XarioUbPy1JqCuqXnoePCBgwYFNab7DjGE1QcVSAn59Ng0VUMRprx5GiIrWsDT86I8KEHYmYsC9ZsbY/GROoKbrd3mRM2J2E5RZFPKhQ6HZWOVfmQQUPKl51ePEqgIrR/OunGx2q6CFLgTGa+6G+ngGIi42F66VHqLFPgP8DW7jcMIbXWQM4mT5BF54iJjIaEXq2aPNLR7ewBK1h2WhwIlCR/Jy/RDOpKwLyUOSYiGtf78DZ9/8Go9nvw2Dme9BctQRmVtY4sXMrlk6ejPDbDkxNMVwQMdR23V4ZiLppAytjc7R19f0VW5FxHAxUSEOG0ZiXVfWDKSq8A6Ayby0+mPwJPlKdp1Ttgylz8cHkF9fenzwXU2cvxowZczFVtQdSbNrPnPbpYXUoiXJtTTXKK6pw0D4TPz8Viz8qqKgYLqggZcVCszhmpGmcUAzyqnicUsqWqduGwsQ9AI+UtBm6B+COgw90bT2hZzd4u2rliujUdDQ3NrBfYalcKP0aS8aXnLEgeYmQKaa9iy+On9djJUoJSDAvi1USULFmx0nsVNfGoTPXsXLzUZC6QmXRFgYryJBz5tIdWPDVAZy4eAeObn7IyslFS3Mj28dwv/N4UMGDCnlgxGDrjDdQ0dHWggs3DDBr8QZ4+ASzH2IGi7H1tdUorajEKrMcCSwYDAQM9J6ioOKoAL87L8I6SzGu+RdA26cAnxtn46dn0piJJYMRPekenzzIxmbrXMy8nzW08mK0QAUBEnUBlpnkMJhKKTKKxCilVlRUNnfhRlg1NL3LoelX8WKabwU0fSrgmNbIp34ocjerpOvyoEKxgKBI8ODXfTFj+20DFS86lLS0t8L5iS3ctA2RpOuMwAumsNYzQmGxpIxnZHgEou7YfwMqQrMGBBUED0hhgZBCpBr74eiUD/BQ5Q1c+fA1qG9eD0G2GLcfPsDO3XuRZOCOTq+M52DHUABCnvepnKrogSeMrt9FRU3ViIb0ZYMKyo2OiIiE7j1T6OgZ4+pt5Wr6xrZ4YOaA+y+oPXrsgg37NDFFdQ4+/ngavty4D2HRCezXvsFuoLl4Tb/60S9ansnFePNKIn5yIpa1n56MhaLt/x2LxdT7cVg+QHlSLu1DekplSb94kohbEXnY4piKeaZx2OyRCc2YMmhElypdOxtdiuMRxdgfXIiDIUVDth2BhfDLLkfzIL8a0nkigNHc1Mhu2N19QkBVQmav2AUqWUqpHwQttqtdgKWtGwJComD02AmHNK5j3pf7oLpoK/O+IL+LaYu3Yfrn27H76CXYOHr3KiwG++WXuxb6T3lQwYMKghApiYkgQDycUtD19XUvtFzzWJeFBp7imr4F3v5gOhat2AAPvzD2dztYrCUPBufEEvz4VNrgZpWjASqOCfCbc2l4FF6EZy01aG+oZq21vhr7HXPxPdrHUQH+cF6E4675DFLjaR2cEkskyoqBjoGWjxaoOCrAT8+mwTWpRGE1BcUopQYVI7q74jfmR4B+MX32DPSgRxd6/y9l/vWLedDmx3lk48yDirEPZc1trYgKj4SPoztC/IJQWlHeu9PoiChE3rZDq7cIXYJitARloN4pcVDA0OKeihavTOhvO4D9b/0Z+1UmYc2KVdC4qI2TWlo4svcwMk380O4hGrQfeaBEn3Vck/HUNxs5Rv4wuqQHcX5e7+cY7szLBhVUESI1OQnZ6SLkZKQjJ4OmytNaGuvR2dHGqjJQZYaxbqQDOnFBD2+/P5Wle4RFJaCxsWFIJYV0HK6tppu/KgQKi/E4qgCWUQVsSvPyNquoAtjEFGKHQyo+M42DNIwYap6UFZQGssg8Dost4rHVPR3no4pwLrJQqZpWZCE0IwpxJCgPanK23f658M8qHRRU9DkXtRJgUVBYBEePAGzcfxbTl2xjppvTP9+GRWsPwtDCEY2N9SyFxD8kCtfummHllqNMVTFzmcSgkxQZZNJJCgx3n2B2v0MPjTUKVAjhQQUPKsgoMy42DvoGlrhw9T60rz9QqN16YIHbBo+hN07afRNbbFPTxuRpn2LiJFUsWrGJwYqmpsYBPSvqa6oYEGClQQ+lDp5eIQsUKKKoOCzAWsscNNRUI6uoAitMcrDJKhd5JZVIzSvHjzXS8KNTQugGFoLgRU5RBTOztIopfjGgokdNQQajFZUSHw/p+CfPPA8qhnv3xm/3SowADypG9pAsTxDh1xnbMeZBxYsLNe3dz1fFSExMRMhtG1adoy1CjCYvAeop9cPl+dQPblm9SyI6vTORYx4IuzO3IDIJwKXdx7B66SJsWbYIB+YvRpVdHFo90gbth+tPekqVPZrcUplZpvTyFncBnvlmI+muKwwu6SInVzwqA/eyQcVgMmNleK+stFQhSDDSeNnc3Ij9J3Ww5KvdCI2Mk1tJIb1fcqavqa5Ca0MNOpuG17qaaoC2Omj4iDDHKFYhUEEggwAFNyVQcSGqCAQGlK1phBcySEGwQp62R0FQwZ2Xhvo65jUhTM/EuasPQMaalN5BjZQT5689ZD4XXZ3t7IeX1LQMPLb3wK6jl9i6pMQgr4upi7dh4VcHmfFmdHwyGurrUVdXJ9cPNcoDKhKQnMC3YY9B4vCBS1pqCsLCI7Hwy92YMmMRps35XKE2dfYSjLc2fe5STJ/xKaapzsSkydOxaKUEVpAiaiDlUkejRFVBagfmrSgLSAy0TF5QcUyIH5wUwjyqCN3NNbgZUChJNzksYF4QpK6YdDsTvz4ngkFYEau4cdQlD60N5KMhP6igWF9VWYn3bmUons5yVIifaKTBPakEzXWKeVNwsZEHFaNyK8d3oqwjwIOKsX2I5gIJPx27ceZBxcuNLlnibPjctkSjQxIDBLK8KaSBAc0TTKBpi0caunxzgOBieJzTx+H/vg69yW/g4qdzkPs4HK2eiikqGl1TUO0Qj0bah5uApZnQsi7vDJB5ZvRtB1z++jDMHhqP2qDxoGLwm/4XDSrowfOOoRW8AyJAnhQD3SiPdUymFJKmuhqc9ErDJ8aKgwpOdUHAYoubCGcjCnEmvECpmkZEAQ4H5eFgYK7cbYefGH4KKCqkzxOBAqrkQVUGzG1cmTcFmWjOWr6TQYgDp65BKMpEa3MTU9GQ70VhUTGs7D2x6cA5VkWEmW4u3cHSQVZsPgrjx04oLCph14r0vmTNKwuoSElOQUqKACkpqXxTeAwESB6kfOhQcJdARWhYJD5dvgVTJk9lPjjkhSNvU1WdifHWpk6lSlPfmBdPnjwDC1dshIObL4PU9HfT/++JQHBLfTW+sszBhMMKqirkBRXqAvzzWgais8rYvvbY50oMNA+m4qR7PjP23G6Ti+8eE+DnmiKWhkKvCWAoCioqKirx35vDABVHBNhqk4vyikqQ0qT/OMnzmgcVo3Y7x3ekjCPAg4rhBQZ5gge/zosZWx5UvNzIUtvUANf7lqixjUWza+qQCohGF07xkASCCAQtOn2zEXXbDpoq78F05ps4P3sqBI980K6gR0WrhxAiYx94XjJCm6cInT5ZDFKQcsPqlC6sTuuizDoaHjfNkJYuGpWB40GFcoEKirsUE+ghVdYN8ouKy6MFKghYrHUSYl9AHvb65468BeRij78YO3xzsMtPjL0Bw+9zt78YGzyz8LUCbYVrJtzTS9A6zF8P6fzV1tYyYBEWGYd1e06zih+kqqCUkB1HLiJVmA4mPSevi9papsTIFufhnrENK2M6lTwslu1gpU1JkXHy4h2kZ2aDKhgMdn0oBahIiIcwXQyRuAyinBK+KToG4lKkpqYhOSEeQ0EJWe9zoOKzldugojL9mwd07kGdn2KqynR8OGk21E7roLiklMViWX9XlGrhkVyCX50TYcKRISpsSKsr5AUVRwRMMSHIq2DeDwQEWGlSNUoHEaOwtBL7HXqWUQUQdQH22ue9OFChLsDrV9IRnlHG0k1kjZE8y3hQMSq3cnwnyjoCPKh4MQ/T8gQbfp3hnQseVLzc6EKVQdysHJBt5IdWN8GgoKLZVYAaxwRE37FHuW00WtyFTPVAQCHLPAgaM6dCf8o/cH76RwxcdHhnPdcfgQ0CHP1VGvSaQEmdUyKenNJF8E0rlNvHwUPbCCZHryL05hM0uwvR7S9GtqEfrO4Zo6mtZcSDx4MK5QMV9EBJoOBlxlRFQAUZaC40l+1jscgiHqsdBQwoEGAYadvll4N9AWKWSqIenIftvjnD7nOzdzbWuGcq1JY4Z8BVVDwiUEHnlc4xwYjEFCGr/kGQggw2yTxTAisymG8Fdw0QuCKvkuRUEfOwWLj2AFNVzFmxG1OXbGXeFaLMbLYOt03/KQ8qxgEYGSVQQYqKyZNUoKoy/VvfqBT2tGkSVQXNT5wyC3uPaEEoyhoQUrC/4SqJqmKDlRjfOSqQ31hTAVDxgW4mksQSULFNClSsNhejsKwSZzzyJfCCvCKOvkBQ0VMK9bBTHprrJKmG/eONvK95UDHi2zi+A2UeAR5UvNybWXkDEb/ewOeJBxUvP8LExsbC/7oFOocwvyQwUWodCVuN26i0j2PpGFQFpMMrHZVOKbiybBWuffwatFXfgbvWPXT7iWUCCVmQglvW5pmGWqdE3Dt4Hpe3qiNc1wYVdrHo9snq3V+nZzr8dczh4eo+4sHjQYXygQpliJfygor5prHY4SzA13bJmN/PdJPMND+3iMcer8xhw4T+YGOrTzZLHylobEdAQT32B+Rip5/isGK3nxhfe2QxSPGVeybkbZ+PEqjgzjHlwZMagkwyZ5BfxYpdzIeCvCloOcEJbl2akmqCTDQ9/UOxef85Bitom2lLtuKwxg1kZImZWkN6G26eBxU8qBCmpCA8LBJL1x/AtM/WYObCtQq1GQvWYry12Yu/xozZ86E6ZRomTpmNvepaEGWK2d9edfXA9270d9VQW4XIjDL8XDONKRpYqVBp9YSseXlBhboAf7uSjtD0MjTXV2OLdY964lAqjrjkMx+i3XY9y140qDgiUVNEZJaztBQuxgxnyoOKEd/G8R0o8wjwoGLwIDqcoMFv82LHlAcVLz/CNDQ3wuqWASqsokCmlRw06D9loMImCk5a91FpHysBB+RV4SZAi3cWDHcewYUP/oprKv+G+SFN5l/BqSea3QRMhRFywwpVDnHMvLN///S63iUZXd6ZKHgcivsHtBCn7wQE5LJ9EBShdegYGx2T8ETrDqJiokc0gDyo4EGFrJgvD6j4zCQWO52FyKhsRlxxPb6ySWLVPjh/is9MY3HQXQSj1DKWptEfOij6moDEXn8xgorq2TX/7BlwLa4YW7yzFQIh1Mc2n2y54YQ0xBhtUEFj39zUgMzsXKhp3GDlS1kayOfbcfD0NWTl5D7nP8GlgwjS0nHk7E0GK2Yt24mpi7fi1MW7oAojZN7Z/7zyoIIHFSmJSUiMj4evXxA8vQPh6aNYi0lIRUKKCPHJ46OJsnJxRuchPpw0CxMnz2SQIi0j5zlA2P9viXtNXhVUZYm8IZipJgEDWXBCepm8oOKoAL/REsErtRTtjdU46JgrMbs8kIpLvgXMNHOpSY5EUUGpH2qp2GUnSf14QmaaB4dQefSUJyUzTYU8Ko4JMeG4AEdd8kcMKWgceVAxols4fmNlHwEeVLzYh2ouOPPT0Rt3HlQoR5QJCQpGwFULPPXKZOkcsiACAQJK/XA+/wBi80C0e4okhpcuyej2y4XbOX2c/uAf0J3yD+it34pGj3Q09fhecJDD/uwdVNnHMQ8KDjz03xctJwNNgiEmx67B67Ix2jyEPWBEAito3yXmIbC69gAlFaXDHkQeVPCgQlY8lwdUkMnmMe8MtHZ1s+vPP6cKK60SQSoLauttk5FS1gjH7BrmKaEomJBen/wkKM3DQlQJSteif7n1bTgVlo/tPoorKjZ4ZWONm/xKCg5WjAWooPEnpURmtlgCKz7fzowzSWFx7tpDlJWXoa6utg94IOhAJU1zxHlQO3sD0z6XmHJS6oihhQOrBELfLdLndvyCilKIcpS4ienYRgmSjDD1g3wrUhITIRKkIl0oULjVUbnd5kZ2vdI1+6o3oBs6d8zw1odzsPfIOaRlZDMwSPFP+m9nsPnG2mrEZJXjtcvpErNLaSgha15eUHFciO8cEeB+aBGetdYgKK0Uv9VMw5vX0xGVWYaS8kr863oGJhwT4H9OS8qUHnKSgAobAhVqQ0CT4YIKdQFeu5KOuOxyNI7Aq4cbUx5U9Hyh8ZPxOQI8qJA/mHJBgZ8q15jxoEI5YlN1fS2e6Bqi1DK8F0D0BwhUNpSaj44ZEu+7oNtHAjUILDzzz0GyoSdOqX4E3Umv4eKCech7Einpi/wn3FKZN4XL+YeIumMHBOWDzDMHgxWUUkJpIFYnb0oMNqncqWtP2VTXFHS4pzEvjIiQsGEPIg8qeFAh6ztBHlCx2Dwe883iYBBXiK6nEnzgLCrHYvM4fGYaB6+sSnZd2mZWj8hLgoDFFp9spp6o75BAkZbObtxKKB2WmoLAxlp3xdM+CFaMFaigc0APfVk5Yhw6c61XJfHJil3QN7ZGTW0NM1ntf66oMkyqMAPb1S4wNQaZbC7fqI6YntKl0uuPN1CRkVuG9NGEAKMFE/r1Q8eYlV+B9NEwEB0FUCHLZFPeZWVlZS/V5Ff6eh6N+fa2Fmjq3MeGvWcgSpdACkX7JUVFQ201znvlY8IRwegpKghyqAnwpXkOSzEh5QOpKwhY0Pxx13yWbvLb8yJoeRXALKqYGVtSSWpRfgWu+hXi68di/OhMmkR10R+aDAdUkGLkmBCn3QsYpBgqNUaeseRBxbBv3/gNX4UR4EGFcj10yxOU+HX6njMeVChHpHmKZwgLDkXg9cfoHqRaR4uHEBF6tgi8ZolO7wzUuyQx2NDuJUKlSyq0l67E1Q/+jHNT30PwjceAf24vjGj3SEP+4xCYHL2CgGuWTG0B35wB000IYlC/VGmEDDaT7rui0yu9t782NyGSH7ghMih02IPIgwoeVMiKyfKACkrxIBNNKkFqkypR9XQ/ewaThCLciylAR/dTdl3aZlYNCSqoisc2H0klD2klBc3Te8dC8pFT18b6o30459QwJQUpLfqvP9TrTd5Zw1JTjDWooPNAnhXC9CxsPqDFqoHMXLodn325D45u/sx7gmBD3/NVzQBHUFg0Fq8/BEnayDZc0zdjkmppVcV4ARUcnEhIyUBkTCIiouNHsSUhIpra6PQZHZeEwJAIBIREIEWUO3JYwYOKftd/3/upvn8bQ79Hfi/+wZFISBGCSkM///c1dB+0T6oAkpBTjjeupg/tVSGvooLAwnEBfnFWhBOu+QgRlTEDTWFeOS77FODXVJL0cCr+ejkdVjElSM0tR2RmGYJFZQxYiAoqcCOgUFK6lMw+RwNUHJWoKVJyyxmcUXS8Za3Pg4ph377xG74KI8CDCvmCqKzgwC9TjrHjQYXyRJqi0hI46Zqi2jqGVfTor6ig11Q2VGDoCa/LJr0qCW69bv88WKhdgMZ//4ork/4Bw93H0Omf26fKB6VsFD+JgPsFQ+jt1oD3JWPU2MQyAMH5WXD90ZRASIeXCMJHXnDXfsSMOxtcJKVRW5xTEHnXAXFRscMeRB5U8KBC1neBvKCCYAVV/VjxOAHBuTXsOmzveoq2Tonyoa3zKa5EFmDHAIaXBBrI2PJOYim88upwNCS/D9QgXwp6P6SoofcaF1S14FBgLuuTbU99yNE46EHAYbVbJoMVlP7xXBvEXHMsFRXceSBYERIRhxWbjjKVxLQl29h8VFwyWpobn3tQq2Vqi2rcvG/BqobMWr4Tq7efRHqWuE/KyPgAFZI0irjkNPj5B8Dbx2f0mrc/vPwt4e1vBW8f3xH16+PjAz+/ALi6ecDYxBQGho/g4u4FYVbhyFQgSg4q6urq0NDQ0KeRpwp3bSvblB6SSclEyqSRHBspCwhWaHrmS3wkBvOqOCLAx3qZSBFLjChPuedLKoYMtA15QhwTstSSyXcy8fb1DHzvJFX5IJAhxPdPpeHP2un459V0vKGT0dv+dTUDv78gwndpXVl9qwmw3DSHqTMqK+v1pkwAACAASURBVCrx35sZkmPvDzS419THcSEueBegrqaamXmOZMy4bXlQ0fvVxs+MxxHgQYVyPGxzAYefKn4+eFChPJGptbMDXjbOyDD0kSgXXHrSLKSmBCqyTf3hdckY9c7JLBWEAQXnJDz1y0ayoTeOT/kQtz7+K87OnY10i1A89ctBvVMiM8Js80gDfHIQr+eIO5dvwNbOFpbX7iNWz4FVHWHpIFL7o77JGyOL9qljim7fLFBlEFJatLsJEaJvh6Tk5GEPIg8qeFAhK24rAioIVswzjcVG+xQIKxr7XIsh+bVY75zGQIIspQOBiCPBeSht7mDbhRY3sPKjpKLY5S/GVp8cWIqqQCoK+lfb3gXt6CJmhimrv8GWkYnmVm+JieZa90wM1Dg/ClnTFwEqCCiQGaa9qy/mr9nP/CrIKJNSQvLyCmQaZbY0NzG48dnqfZi5dAc++3I/gsJjxx2oIDVFWlYRgkLDGEzw9fOHv58fAkej+YTAP0od/tEHEejng0A//2H1G+DnB3//ALi7uMLM1JSBCiNjE5iamSMsOhGZeeXD96xQUlBB12xTUxMoNUQoFCIpKQnJyclIS0tjyp7GxucBm6y4Q8uor+bmZtTXjwwecP3TcSmyf247Ract9dVM1TDkA38/RcVJN6kSoxwU6D8lSKAukIAESi8heMGtw71Hy/s3WUoK2o62OSLAGoscdDfVoKC0Em/fyBg8deWIABNvZyItvwJNtf2VXYrf+3Ljy4OKPl+Z/IvxNgI8qBh+cOCCBD99uWPIgwrlikoRQaGI13dCxwClSkkRkWMWCD8dMzS5CZhaglI0qDW5pqDVKwu6G3bhwn//iAsT38DDvafQFZCPLr9sdHlmoOpJNNy0H8HK0BTVdTXoevYUJRVlsDZ7DI+rJmhxFTDvCmlVBaWYhN2yxuX1B5H60B2lDjGodk1ErnkIrC/fR3pG+rAHkQcVPKiQ9R2gKKggWDHXOBb73dNQ0ihJ0ShpaMduVwFWOaRib0CuzBQNUksQXHAX1/Zew34FdQxsbPTKwtW4YtS3d7H3CFUQtCBTTdpul58YN+JLYJhajgcpZUM2/aQy6MaXQi9x8KYenD9g2dIXASrofNCv0PTApvvQEpT+MWfFbqau0DeyAaegkD5vjQ0NSBGmY+N+TZYyMu/LfQx0cP3QutRfWWkp5PUjGJP1EuIhTBdDNEy/BgIVpErwDwiCj68f/Pz84eEXCGf/oBG2YDj7hcA50A3OgU5w9qc+gxXu08U/CA5+Qbjv4o17Fk9gYGoBE1MzBito6h8Ujsy8inEFKui6IhWFSCTCkiVL8Oabb2LWrFmYOXMmXn/9dezcuRMlJSXM4FX6mpU1T32VlpYiJiaG9SeduiRr/cGWUV8VFRWIj49HSkrKsNM6BttH//fIO+KMex6+S4BAGiZwUIGm6gL84YII3qml6G6uxsPQIgmEIBDRo54Y8yntS12AU275DFSQMSaVQh3QY+OYEN8/LoReUBGr9EHVTvp/9uG+5kFF71cfPzMeR4AHFaMXLIYbZPjtRnYOeFChXJEpMSYekXft0eYq+Ma4skfhQKkZZHDpe8UMHtqPgMBcPPXNYuVESeVAhpnP/MRINvTCMZUPcW/y36Ax/SP4XzVDlasQ0bp2ML90F74+PmjpkDzMcZ++uaMVZ9VPwuTQZUmFj55qIWTe2eyVBtuDV+D65Sm47L4My62asNutDZMv1XFzoxpy8/O4bhSe8qCCBxWyYvhwQAWZa841jsH5oGwUN7ThRngeU1qscRQMCCoIUuz0lZQdDSmWlB2li9g5uwanwwqQWdfae01HlzZiX49nBW1Hqgun7GrEljUioqRhiNYIz9w6BBbWI6iwQWYL7llOcISlg8hIAXlRoILOCeXM5+YVYKe6NqYullT1WLzuMPyCIphfhfR5o1z7bHEuK2lK6ou5q/aw6h8ENeiBjdal6XgDFUF+ftAJSsDaEDHWhuRiXYh4hC0P60LyR9THV0FZWOmThs/9MnDQORTGpuYwMTFhwMI/OGLcgQpSK8TGxuLdd9/Fv/71L/j5+TEFA6WBPH78GL///e/x6aefoqCggKku2traGNiga5IeUum67OjoQGtrK+i9/Px8TJkyBZcuXWJ/+6SuePpU4ndD9/xco/3S/ZOs/trb29l6tM7ixYuxZ88e9pqOifYp/bczmvNkqplRUIG3qBrHQMaapGY4LMDt4EKgtQZ5JZVYYZKDn2qk4Xun0vCD02PbKFXkx6fSMOt+FvPV6G6qhlF4EX52lkw3ZXhZEFw5LGDri4srQVVORnPMeFDR+xXHz4zHEeBBxcgekkcz2PB9De9c8KBCuSJTakIyIvUd0OoiqdIhrWxg/hLWEdDZcRyP1C7B/6o5Yu46INPED8U2EahzSkSTYxJaXIS4t+Mktv/lV7j0n//F5jffwK5lX8Pa4glyCmRDhYTUJBicuQbjw5chMvJBW4+io907nflTOKw7g6d3g9Cu54/MLboQbbyO7PU34LXzEtIzM4c9iDyo4EGFrNg9HFBBqopF5nGgKSkr1lgnMf+Kr5yEg4IKgg6kkjgclIfkymZ2LXd2P0N2j3kmLShp6sTZiEJmuEnrc6DCMasaMWWNCC9pGLARxCCVhneeBFQQrJDVgnqWX41VDlBB54BKkAaFxeDzDWqYuWwHZny+HTvULiI3v4CpLrhzR+VLi4tLcPqSPlQXbQH5VJy9cg/1dXXjGlSE+PniWLAQ74dX473wGnwQXj3iRn2NpJ8PI6pB7Z2oBqz2FsDQzBKmxuMTVNCDf3FxMVauXMmARHh4OLq6uhhAoHsbukcnWPHDH/4Qd+7cQVFREXsdGRnJ1iHFD6ktHj58CBsbG0RHR2Pbtm343e9+h0mTJkFPTw8BAQHQ0tKCuro6Aw7bt2/HoUOHEBcXx/qztLREVFRUn/4ePXqE69ev48iRI/jrX/+Kt956C5qamiwVZbRSSri/vf7T1oZq3AwoxPfJG2KgB/8jAky/l4m84krmEZFfUgnTyGLcDS7CvdCxbfohRTCKKEZqXjk6G6uRX1KBuQ+zJKoOaeUHN39MgB+dFOJ2UCFbv//nHelrHlQM+/aN3/BVGAEeVAzv4XikgYXffvTGnQcVyhVpEqLjEHnH7jlFBakpWjwEcDx3D2F6diiyiUKEri3cLz6CveZdOJ69h0dql2F6XhdeBtZwNHgCjf37cXnb17h/4Sw8vD3Q3i2RsPf/xPUtzTA8ewXX5m9DsoE76jwE6PDOQLO7AM8CxDDcfQ4+67QAywTUXHZB6V5DVB0yQfnOh/DcfAGJ8Qn9u5T7NQ8qeFAhK54PF1QQpCBlBXlWcBVB5AEVBB7Ij+JUWD7yGvqqjdq6n7L0jq0+2X28LkhR4SiHoiKypIGllvgXkJpi4Bbc856ygAo6L/T9QGqJB2Z2mLlsJ4MVVNnDwMIBTU2NfSBEY0M99I1toLpwC0sTWbPzFEQZ2b2eFuNRUUGg4kSwABPDK/FxeBUmhVcOu1EfH4ZJ2gdhlfgobPh90XG8H1mLtV4p4xpUUMqHQCBgagqCBy0tLb3XJHf9EozYsWMH9u3bx+DCihUrYGhoyDwoyD8iNzcXkydPxpdffsn6On/+PEsZWbhwIZycnHD//n1MmDCBtQ0bNuDu3bv44x//iA8//BAWFhb44osvYGRk1Kc/UmR88skn0NXVxTvvvANVVVUQvMjOzpYrBUVWTJR3WV1NFUrKqzBVPwsTKAWEFBTcQ7/09EgqdtjkgmJte2M1njXXAC0vptG+KE2FjnOfQy5+wKDKAMepJsC0e1koLK1Efc3o3fty48mDCrlv1/gVX8UR4EHF6AcNLnjw0xcztjyoUK7IExkSjjh9J7S7pzHzS05RQWVBqfKGzRk9Vvmj0ycTpLAgX4oG91RkGwfCUOsmYpMTUFFVifrGBjS1tKKqrh6y8YTkcz/DM4SHhMJ51QmItunBcocW3C4YIt3MD5XOCRBbBENf+waMj1xE8QV7tFx0Qcmehyjeb4DqPY8QukEbUf7Bwx5EHlTwoEJWrB8JqCBYwTUqXSovqJDAimzoxBajqrWz95oOKKxnaR67+lUOoUofx0PzcSa8AKcHaSdDC7A/IBdkprkvYOi2pcdw82WZafY/H2SsmV9YhIOnrzP/CaoC8vVeDSQLRGhsbOiVYVO1kNDIeCzfqI7pS7Zh1rIduKJnzCoacF4V4y31Y7RAxQdhFfhvaAWWxlXDoLAZB9LqGfx4N7QCHw8TfnwbQAWpE8g8c/ny5bh37x5L35C+fgmO0Trnzp3DwYMHmV8EwQYzMzO2nFIz8vLyWGoILac0jsLCQkydOhVXrlxhMYAUE7/85S9x4sQJllJCC/39/fG3v/0NX331FbZu3cqABe2H62/OnDnYvXs3SzGhY9u7dy+6u7sZpBjL1A/67JLYWY0nMSUSSDEQqDguxPdOpDE1g2FYEUvDIGUFpVeMZcstqQSVLnVMKMEK02z8gODJQH4aR4X4n1NpTOnR1jC6KR/cdcKDit6vOn5mPI4ADypezMM0F1D46eiPNw8qlCcyUUHFcN8gpD/yRofHN6CCYESzmwAWp24ixzyAVQSpc5ZU8aAqHfDORuA1S/h5+Sr8YepbmmCjdQvpW3QB01iUX7CHxxenYL5aHXZbtXB92W4EevtAJM7Co0NaiFp7ESVb76FyjyGyvr4Bt0VHEOrqo/B+uQ14UMGDCllxnQMVJ7zS8IlxbC944ACEvFNFQQXBh20+OUxB0dH9jKkrjvUrWcqlftCUqoZQ2gipK2Q1ev9rzyx84ZqBVXK21W4ZkAUpaNmL9KiQPi+knvAJisSS9YdZ+gelgNy8Z9Ersad16buEbvrPXX3IgAalilDVEBtnHzQ3NbAKIDyo6KuS+DisEu+EVGBaZCVOZjQgs1mClduePoN5cQsWx1Xj/dAKfBBaobBS49sAKkhRkZqaChUVFVy+fBnkDSF93RIgKy8vZ+aapKRISEjAli1bYGVl1QsqyLti/vz52LhxIwMNBD5IYUGpGpRGYmpqin/+858ICQlh1UDoOqdGCo5Vq1ax7aytrfv0N2/ePFCKCKWakEcFpZNwsE76+MZqnrwq8ksrMet+9sBeFRwgOCrAD0+n4edn05jJ5p8vpbNyo1RydKzan7TT8SMN8qQYBFLQ8alTpY8sFJVVonYM1BQ0/jyo4O7G+Om4HAEeVIz+g/NYBW6+X9nnigcVyhOa6lubYPnAGGLTICA4nykq6pwSmGEmVds4sWQjYvQdgaBcdHploMk1lVXyiLxuDTN9A9Q39y3NKM8na2xtgd0VfWQeMQKsElB9zg6Vew1RuscAJTsfwH/FKYR7SACIuCgf5jq3YbvxDHxXnYHuuoO4fUQTooQUeXYlcx0eVPCgQlZs5kDFWZ80zDKKwUKzeCw0V7wtMI/HasehPSqk4QNV86CqHo9FlaxCB4EI6fcJZhCUoPWkl8uap3UJVJA55kDwQZHlLwtU0PcE/TqtefU+ZiyVeFUs26iO8OgENDc19T4ckgFnfJIAX2w9zlQVBDRIYeHhG4KWlmZUlpePq6ofI1FUEICgti6pFj6V7TLjY1FbNzQzGxmkIKBB6SHyppd8G0AFeVSQImLp0qVYtGgRq9hBsIIePul6pX++vr5MEUEKCYIaCxYsYOkblPZBqSK0PYGJzZs3Dwgq3njjDYSGhrL1STlBhptz585l+6QUEUoPke5v4sSJLN3kZYGK6uoqkALhcXQx/ocUFQOpKrhUEAIGlCbyIhvtc7DjOibED04JYRBWJDHQHMVKH9LfOTyokBl6+IXjZQR4UCH74Vc6CPDzyj1GPKhQnmiUnJiE80u34vFebWRYhaDTLwtPA/PQ7pcFhzN34LNLB6ZfHYXHRUMU2kWhwzcbGUa+eKiji5Ly0mF/kOioKDjuvYSuh+Go0rRBwe77KNxngJqDpohce4GBClJ70L8OPEWKUAB/V08kC1JQ29qErgG8L3o2GXTCgwoeVAz0HUH5yMHphdjplIyVj+PxxZOEYbVNrmlDmmn2hwwDwQhavjdAjBOh+SyNgyqG9N+We02pHuR7oQiIGGrdlwUq6ByRV0V8UipWbjmKWct2QmXhFly9Y4bKnnKm3HkkrworBw98+sVett70z7czcOHuGwIqKyhMSX55sGKUy5MOB1RQKse7IRVYEFuN+/nNIBgx2L+Op4BXZRs2Jtfi7ZAKub0rvg2ggmAEAQLykvjpT3/KIASVKaV/nZ2d8PT0ZGoIqghCQIKMM6dNm8ZKmIrFYrYemV6S2SaVMaXUDfK8+Pjjj6Gtrc3eJzPOn/3sZ9i0aRNTZ5DK4vjx4/jFL37BjDkpzYN8KAhe0L+rV6/iBz/4AfPEoDQSAiOUBkLHQ6oKejDm/lbGckqqipLySiwzycGEQ6myfSo4UKGMU3UBPnnQ400xypU+pMedBxXssuX/G68jwIMK5X4Ilw5G/Lzsc8WDCuWITnVNjXh8Xhfpao8Qe0gfhquPwP6ELqLvOcPqtC7sD11F2w0f5G6/C4eVR2Gy8SSe7NHGjQMaEOfnjuhDtLS3wVLvAeIO30OLlhOK9j5E4d6HqD5ogoivLiDExQtdeDaifQy0MQ8qeFAxWGxurK1Ban4pwjIKEZ5ZpFCLzCpCaEYhdKPzsFMO9QMHGLgpQQlunpuSoealmCKWEhJQUA+1IOr7eVhBkII8LUZTTUEQ42WCipqaalC50buPrBmAoMoelAoSHZfSx6uCvlPogeyRpSM+Wbkbs5fvBMGKpRuO4J6xDeJi4pCWmorU5KQXDyxeMqigVI/JEZU4mFaPxIZvfFAGio/Sy0vbu6GX14xpEVWgfoZSVnwbQAXFDrrWaOrh4YH33nuPVdhYtmwZUzv89re/xdq1a5mPBSkhCGq4uLjgT3/6E6vqQWoIghBklsl5SnCeFVTqlNI/Hjx4wCAIrUOmmAQefvzjH0NHR4d5WlB/f/jDH5gqg94jYELrHjhwgEEJAhx/+ctfmMIiJSWltzTqYHFvtN6j0p+W0cX4yalBKoAoI6QgNcVJISyjitFUVw1SiIzWmPTvhwcV0lGGnx93I8CDirELHv2DCf96bMaaBxXKEZYiA0PgveMyYJ6A5mueyN6qh5C15+Gx5gxuL9iO6DNGaDzvhPK9hijba8iAhf+iYzC7eAsdzwb/RU6eTyguKcS9g5pIXHMJNfuMUX7ACLX7jBG5/Cx8HzugE5I68vL0pcg6PKjgQcVQsb2xthrNdTUKt9b6GtCvihYpRdjh+zx04OCDvFNK9zgUlIvUqpbeS5yMN8n8UlYfpKZY4z46KR+c0uJlggo6Tw0N9UgVZmDZxiOsBOn0JdtxRc8EFZWVDGJw55I9PFZXw9DcgcGKmUt3sIohc1bswt6jl+Dk6oWU5CSkCV4wsHiJoGJiGFUGqYRmViMau4YPfr0r2zE3ugofhg3uW/FtARX0oEn3MR0dHcjIyICbmxscHBxY8/b2ZukgZJJJ1yYH0cirggADrefj44OgoCCmpCCFBq2XnJzMwAeVO6UKIf/4xz9Yeoe7uzscHR1ZyVJKOyH4Qdd6fHw864/e4/ojrwvqjxQeXl5eoGMhPww6Bu7vZKyn5OtAD/mLjbMx4fArpKpQE2CZaQ6r9NFQOzb3vtzY86Ci9+uMnxmPI8CDirENIFwg4adjN848qHj5kakbz+BhaYe4fXeAxwmo0HiCsr0GKN/3CLX7jeG75iyCdl9H3XErpnYo2m+AhsMWiFx9HkHOnqDtR+NfkjAVD/dqIGyVJrLX34DrmtO4uGgzwr0DRmkPzx8lDyp4UDFW8Z3SDMorK2GSVDhiUMGlgjhn1/RexHHlTTgcnMf8KvqDClqf1BQcYBit6csGFaSooBv7q3dMMXXxVgYrSFURlyhAfV1dnwewurpa9lBmbuuGJesPMYNNShmhMqeL1x3C2ct34e0TAEFyMkRCAVKSBv9bSE4chfdfJqgIr8RbIRWYG10N+9JWNHQpCH+fPWNmm5dympiiYqjypd8WUCEdPyh1g6AE11pbW5+rtEHwoLm5uXcdbl0y5uT6IuUFLefMNEldERkZySp30HLql+6d6G9hqP6oX9qG/DBeJKTgPgt5VTgnluCXmiJmTimzVKkyqSqOCvC/50RwTy5hZVO5zzFWUx5U9H6l8TPjcQR4UDF2D9BjFZT4fvueMx5UKEdkEqWnw3KHJlqve6NawwYFu+6haJ8ESHis1cDJOash+PoaGg6Zo/KQCVoPmsN73TkkJSSO6gcoLC+Fm9FjPD6uAzdre0QlxbO83VHdiVRnPKgY/OGLqiRwv/Lxsatv7BpqPBQBFQQW+pcflYYPW3yycSu+FK09D5flLZ3QiiwEpYJIr0fzlPZBlUNGC05I9/OyQQWNOZUhjYxNxLINapi1dAeDFTcfWDAPi/7Xam1NDVNh+ASGY+uh81BdtIWBitkrdjGFxbINR3BN7xECAoKRniZAOgMWY5gS8pJABZlgTomoxNqkWkyNqMK7IZXYJ6xDdF2HVDQEq1pha2sLfX19Zvh4//49uLu6ILe2CVblnZgXU82qhMyOrsL0yKpBzTW/jaBiqJig6PsELB4+fAhKISGlBCkoFO3jZa9PcbC+phqLjXoqgAxmYKkMwEJNgPWWYlRVVaKuZmxKkkqfEx5U9AlB/IvxNgI8qFDsxlE6OPDzyjF2PKhQjqjU+bQLTlY2sFuujvqDZig/YMxARct+cyRsvY6Hd/RhrK6NsOUaiF19EWFLTsPq65PIzc8bkw9Q39U2ZioK6QPmQQUPKsbqu0BeUEEVPghUUFoHpXf0Bw9U9eN4SD7E9W3s0m3vfgYjQcWAKR+cmmK00z4IWCgDqKDvjOqaalzRM8aUBZtZFZBN+zWRl1/YJ/2DO68kPSe4kZaehRv3zJm6YuribaA0EFJYUGWQ9btP4/odI7i5+0CQksKABXlYKKKyoPWH9L14SaCCPCWmRlbBsbwVhoXN+CKhBv8MKsesqCrcK2hB1TMgNioSy5ctwztvv82MGA8fOIBtmzfjz//7K8w8pweV+CZMjKjCysQaHMloYKVLPwgd2KuCBxUjv8ei9I6IiAhW+pRSOTg/DO7aflWmlD7nnVqCX2ulSSp7KAOQkHUMRwT4zQURvFNL0d4w9pCCzh8PKqTvyPj5cTcCPKgY+RfBqxLox+tx8qBCecJSY1sLzG7dw5NFB5G/URcVOx/Ce+kJ3Jy3BekJqSgoK4H9HSMYaVzFrUMasNUzQFu77LJ2yvOpBj8SHlTwoGKsYqs8oIKgAplh3kksQ0JFE1NJkBqCgxX0HpUhDSys772QQ4sbGNggwEHrUR/c+jQllQVBBQIVw2nSCor+88oAKuh8tbW2wNM/FAvW7GdGmQvWHICDm18fU83+57WpkaT1lcyf4uQFPcxfsx/kXUHqCjLbpLZqy1Gon70OYws7xMbEQpiaAkFKMmsScCFbbZGSlISwsAjExcaxbQYEFi8RVKhGVsGmrAXxDR3wqGyDRmYDpkRW4q3IOqywC8XfX38dq1etRHZGeu+1ZlwJvKfvjNcN/DAvthq7RfXQyG6AlrgRC+OqwYOKsb0HpYdYSt2gFBCCFv2v6VflNcXC2uoq7LHLlYAKZVRV0DEdFWCbTR4rRzqWBprS540HFb3hhp8ZjyPAg4qx/ZKQDib8/NiMNQ8qlCsyNbe3wcvFDRaHLuDJFg1Y3TWEj68Pqisq2YG2dHWgpqke1fV1aGxuUq6DH8bR8KCCBxVjFdvlARUEItRD8lDcJJHgJ1U091FWkFGmYWo5Op9KfGAKGjtwLCQfpLIgKEEQg1JGuEbwgrwpvnTLxOphtjVuAxtwKguoIP+J/IIi7D91laVzkELilPZd9otz//QP7vzS8oryMqaWSIhPgL2jOw6e0sH81ft7lRUMWCzZzgDIpn1nceWWAZxdvRAVGY3EhAQGLESC1B4YkQwCFORdQcvuGlhg7zFt2Di4seVUWYR7v9ff4iWDCuvSFoTXtbMWWtsG49I2fBlfiR8tXIcJf3sHR2LyUQsgrKYDXyfV4oPwKkxLbsemjDYcz6zHuZwGBirO5jTwoKJqbO6JuOt1vE2b66oRk1WG35wXYcIxofKVK1UX4LcXRAgUloGO9UWNPw8qhnHjxm/y6owADyr4L4oXFUzHaj88qFC+eEMWa7XNjSgsL0FHd5fyHeAoHhEPKnhQMWaxTQ4zTQINBwJzEVPa2HtV++TVYadvDjZ5Z0ErqhClzRKI0db9DHqJpUwxQSoKauRTcS22GDoxxbgaWwztqCKcDS+EZkQhzirYuG3I46K/koJ7rSyggs5Za0sT7pvYsvKj0xZvxZodJxEdlzygqoJABXmuEDQglQRV/EiIi4etvRuOad7Eis3qLB1k2pJtLJ2E1BZzV+3Bgq8O4KsdJ3HyvC4MTa3h5R2AiPBIJMTHMyPOrHQRCsXZ0NF9hGmLtzGlhtbVewgKCmUAIy015ZsyqEoCKgJr2hBc24bIxi445lZg2vpt+Nexa5gS14RZ0dWYFlOHySmdWJH9FMdKgfPFXSA4cSZb0nhQwd97Kho362qqQPD2kFMeJqgJlAtUMDWFENtt8sAdp6Kfb7jr86Ci96uPnxmPI8CDCv7LYrjBUVm240HFeIxMr85n4kEFDyrGKhbKo6ggVQRBiSPBeUiubGZ/OE+fPYOZsAK7/XIQXfqNaslNXNuroKDtyM/CMbsasWWNiCxpAKWEeOfXwT+/HsGF9QhSsHHbEPAgVYUsjwtlAhUN9XWITUjBqq3HWUWPmct2wPixM9pammX+GioNKjiFA1X84NI7/PyDoHPLEJv3a2Lel/ugumgrSwchH4tZy3di9nIy4NyJhV8dwM4jF3Duij5u3jWB2WMHOLt6Q13jBmYtk5h70rGs3XkShibWiIuJRQZn8OvUpAAAIABJREFU0qlEoIJgRWhjF1yyizBv1ZfYdu0utmV14N3warznlIK3TlzHvHM3seLmI+xwj8TprHpo5DQyWMGDCv7eczhxkyqARGSU4U8XqQKIEqkqqNKHlghBaWWStI8XqJbhQcWrc7/IH+kwRoAHFfyXxXC+LJRpm5cNKqhMGP/v2zsCBbGa8Dk/AYHXx74F6ExAyMM/IzkpFclJyd/8yjoaZQ/HqA++6sfwv2PkBRUEHciX4nhoPrJqJYaZ9e1dCC9uQHdP5d+0mlYGM7ZL+VcwUJFVjZiyRkSVNsA7rw4e4loGKcjTQtFGYIO2eVVARU11Nagd1riB6Uu3Y/KCTThz+R4qKipA1T76f8/JAhUcsKAUDVJZZIrSEBYeAWNzG5w8f4uZbM5ZsRuUWsL8LJbvkgCLpTsYxCD1BQENAhsEMEiBwTWCFWTYefCkDhxdPJmCQ5CcBGG6GCJxGUQ5JQq3dHEphFmF8A8Igo+vH0L8fHEiWMCqb3wcXoVJ4bLNLclMkzwquNQPghQSUNEN9/wKfDRrDlau3wC9wlZMjavHnP/P3nmAxXFka1ub/rvh7trrTb6+67X3eoN311kJgYRyzlmWZTko54BQzjlb2ZIRSTlLgBJRZBCZmQEGZsg5Z1D+/ucr1GiEAAECZoDW85SqY1V1D11d9fZ3zrkSgK7TF+LTsV/iZ7/4JT4e8yVWqvOwNr5UBhU5zWcWUPVvuKWv83mlWcUyuwS0m6dAu4VKtFtkGGn+5XjhRyMvt+F9fkN+HxlUtN3xZ5u4chlUNG+H0pBOSD6n9t9In6AiNDgYmpgYJMTFyamN3oOI4Bu4e3MHAhybId3egUDXIwgLoV179U75pImToeQyqKi9/6qtf68PqCCsmOKoxRrvxMroHtIgJqfsIXYGpoAhSnmclCRFRWBGEbxTC+GUkA/nBqopCClamqKCzu4KCvJhcfIy+oydLVQVk2avQXCYChWOM5//7WoDFbrPmyo8HNGRKgESnZzdcO6iHXYesMScZVsx5IuFwp8F1RVMVFowUWlBKCFBCinvNXqWaNfwLxdj/Y7DcGMY1JgEgwEV7gUPwPTNirX43euvYeo5R/SNeIgxkfew+z6wNrYEb3c0xsejvpBBRUgI0tPT5XDNr6g2KM7PgSIuA1scE7HmeiLW3tB/WncjEYq4TBFGtbY+vSn2yaBCetPJeau8AzKoeH4g0hSdiFxm095jfYIKDk5DAgMRHBAgpzZ6D0JDlFAoYxGuaIYk6olpEUoKaeImg4qG93/1BRUVsEKDbXdTkPrUL8UTPMHF6GwBKapG95j51EfF7sAUbL+bjPW+z3xT0N9EQ1NL8VHBdzOdavoHhWHol4tABQNDjV674Sr8V1R9d9cVVEh/+4qwMOFjIiYqAlz29fXDbSdXWJ+6iK17jmHusm2YNGu1gBdUU/QdO+dFUDFqpvB3QeVFv7FzsHX39whRRCM6PqPeagoqMBpbUSGpKq7GJKPPmHF4/X//gnfnb8Kg2xFYdDcWU6954o//+hAdJk3Dquh8WVEhg4oXlEpVn7OXrWdlZ6MgNxsEFgW5OSjIM4CUm4PmVlJI90kGFa1yei5flHQHZFDR8EGk1EnIuX7vob5BhTQobes5bbWjJDvqWswIqEKhRFoTFQkO4Jm4rI5QtqgJeFv/vet6/TKoaHj/2BBQQRhBM5C9QanILX+IkMwSzHWlH4tnSgpJUcGczjgZ6WOqo6bBUT6qRgepzjeFITrT5Ls7Ly8XaenpmLFkiwAVxoO/xe7DttWaf9QXVOg+I4rQUFBpwegeyvBwsB9kKNK7/gHw9fETqouJM1YK8xCqKejXgnCC8GLC9OVYt+0grly7ibt+flBGag1GUSGZgHgUPoJXUTm+XLcNv3r/Y/yhkyne7dId73buho9GTcTcOwqsSyyXnWnKoOKVQYU05mb/aEhJaldz5zKokGa0ct4q74AMKho+iGzuzkiur/rfSgYVtTsz1B0sN9UywQMH3TdvuQgI8UJIPR1wwWM9Pb1hfeoSTpy9JpL1qcu4dPW6GLyHh+r/eprqPrXFcmVQUX2/VZf+vCGggvCBsILhRncGpAqVBEOY6sKJqss8/qtbMcL5JSHDqyYJSlSXG5IzTf4GfH/kZGfjoMVZEf2DiooZS7YiWhMHOtvU/Z1eBVToPvvsHwkuCHfZH6ojVXBz88Ck2athNPAbmAyZgmGTFmHusq04bHEKXl7eAnIQdChCQ/Tmo8LENxtXM8rgV3BP+KeQIIWU3y1+hIMp94Uvi+EB2VgZnY/VMQVYG1cqkhTxY42mEOtjCzE4MAefelbvE4O+Mj7xzcPEW+GwsD0FGytrWNvYwsXdB9HxmQ1SkwifHrFpUCgiEBYcpBcwLpt+NLw/1H0W5eVn91EGFa1yei5flHQHZFDx7GGXO76WeS9kUKHfiT0H2+Ehodiw8zCGfzEPJ89dFV8Na4IVVFCcPm+HT7qPQafuQ9Gp+zB8bDIE38xbi5CgICjCWobvBd2Jh7xc89+gDCoa3q82FFRIIII+KF4GKWimweMmXo+uMaRodcChodsMDVTwvV+Qnw9HN+8KnxEjZmDwFwur9VPRWKCian9BlcU1+1sY9fUSjJu6DBt3HsH5S/YifCmdc4o+NvRpv6inqB8dvQgUsrE2phAuOeXwzq9wpilBCua++fewL6EEJn45GBmSj9WxxVgbW4w1scXPlBSaQqzTFmJWRD5M/bLRvgbnnTKoaHi/IY9l29a9k0GFNKOV81Z5B2RQ0bY6tNb4ApNBRc2TxKoD4sZe59dAOnXcsvsouvUdi45d+mDQ2Gk4df6a8FDPr4ZV6+TA+9yl6+jccwSMjbrAuIsJOhl1xxzzzTKo0FGeVL1vLXVdBhUNf8dIoMIqNAnTazDdkKDEq+Rf39Y0C6Qg3DBEUFFUWABFhFr4iug5cobwCWF/+45wtEk4Ib03mwpUsB91cXXHibNX4OTkhghFONQRquqhrZ5ABcEBI3909M7Cl2F5sEkthU/+PXjklePO0wggAlTEF8PYJwsjgnKxSlMIqieopGBOQLE0ugBjQ3Jh4pMtyqspyogMKhreb0h/r3Le9PcwPz8fBQUFlX1Ebfecx+bl5dXp2NrKqbpPBhWtcnouX5R0B2RQ0fQdWdVORV5v3Hsugwr9gArKkKma2Lz7KLr2G4suxj3Q1dgUnY17YfC46c9gRdjzYTQlUGHUaxRMjLvBxKS7OEcGFfr5HZsagMigouH9nQQqbEKTMK2JQMUM51h8caPC3KOhKon6nDf0mhr2kSkoy38GAPT9TqSiIjYuAXOWbROQgk41D1icBScAfL9I7WsqUMFnMDQ4RCjRXurnR4+ggvCgvVcWPvbMRA+/bCyOKoB9Zhl88ssFsKgOVKzVFGKtthArYgoxTZmH3v4VgILl1AYpZFDR8H5D+nttqXlRURHKy8ufe/b0cS183hl+nm2RUllZGQgcpPYkJiYiPj5e9BXStupy9iUJCQlITk6uPLe64xqyTQYV0oxWzlvlHZBBRdt9GTSkQzTEc2RQ0fwTXJUiXCglNu86gq59RsHIyBRdTXqga9ee6CrAQ08MHjsFp85eEcoKXTMQGVQ0/+/V1DCitvJlUNHwdwx9J9C7vWtMGr52pBlHhfNLOsBsrDTpZgxG26sxphnSSDvWEw2XmFSUGhCo4FfOtPQM7DhojW7DpglHlovW7EFKaupzX0CbElTU2TePnkGFBBc+9coC07iQXBxKKIJLbjmCCu9jn46iYo22QkUxPzIfQ4JyYPQUdFCVIZVTWy77qGh432GIY7W6tIkQQKlU4s6dOyKUqy4orMv5jXUMn/XMzEwEBgbi1q1buHz5Mq5cuQIXFxfRLgKMtLQ0fPPNN+jbty80Gg0KCwurhRDczv0DBgyAubm56FMaU1khg4pWOT2XL0q6AzKoaHsvgsbqyA2lHBlUNO/El2H2/Hz9sGrzfrTvOR4dTAaiW4+B6Natl4AV3Uz7wKT7QHxiPAg9RkzDUcszT51kVpiByKCieX+v2iBCc+yTQcWrvWPyc3IQl5aF/YGJmOdaEaGDfiVeNdFUhOXNc9FijrOm6ZOTBrOdNPjOPwGa1EzwugzlHcJJSWFhAc5dvQ1G/WDEjXFTlyMhMUmEL5Xa2ZSgos7PooGACgIGAofPPCvyuap8OGSV4UhiMUx8sjA6OBfLowswOTxP+KKQzEZqAxNV98mg4tX6DunvtqXknNDHxcWhe/fuaNeuHZydnUF1hT7aT3MOtqVLly549913MXToUPTp0wevvfYazMzMhLkHAcHo0aPRvn17xMTE1AoquL9z586YNWuWDCqkCaicy3egLndABhVt60Wgjw6/qeuUQUXzTnwJKu7c8cTO/cdFWr31MIZNnAWTrr1gYmwKE9N+GD9lCbbstcDWvcdwxOIUAgMChJkIB+MyqGje36vOE6Am8o8hg4pXf8cU5OYgLTMLdzRpuK1OhWMjJSo17salIyg+HYFNnALi0hESny6uIz/n1e9JY79XykqL4ezuK8KDElQMnrgAUdEa4WhTqksGFdUrITp4V5iDjAzKwTRlPhgdpPfdHAwKyBEwg/urQoi6rMugwvCeE+lZaIr83r17uHbtmoABBBWzZ88W5h8c4/HZKy0txf379yvTw4cPwXOoTqDCoaqigcfTVINtJXh48OCBSCyDx1K9oVuerrmJBCo6deokwMTjx4/FsYsXL8Zbb70FDw8Pcf6ECRNgZGRUCSoIVliPVC6X2QaCChMTk8qyHj16JI7RrbOh91RWVNRltisf02LvgAwq2taLoKEdoSGfJ4OK5p/4ElbEREUiITYGrq4emPjtAuGjgqDCyKQP5i/diLCQMLGfTuF0Zc0yqGj+30ufsEIGFY3zjqG/iuK8HJQ0YmJ5hbnNm3gdhvg+KSkugm9ACIZPNgNDlA78fD7u+AQgPy9PhC9lm1szqCBMaO+dLcAClRINSR97ZeGTp74n6IPis6fONxtSFs/5WA5PapDPSlM8v4QGGRkZ+Prrr9GtWzcMGTIE//znPxEWFiZUFSkpKSAkGDRoEAYPHoxhw4YJlcP48ePh7++PI0eO4OrVqwJsEFywrF27dmH9+vXiuaU6Y8yYMeJclsFjaWLCbVxnWrVqlfAhQUghgQpCiEWLFok2cKJnb2+PgQMHwtPTU5QrgQqadhCa0EyE+6UyR40ahdDQUNCXRe/evfHee++JNvAapDp5bayvofdVBhUtdgouN7wud0AGFYY5aGpoh9UWz5NBhf4mvvRVcf2GEyZ8M/85UDHHbD18fPwh+bLQnSjLoEJ/v5fu79BcyzKokN8xLeG9xMgf4aoofD1/A7oOnYp+4+bgop2j+FpLQMFraK2gYpm7Ep95Z+NT7xx08M5GB0bk8MlpUGr/CudWrfMjvwJMuK2Ahe0p2FhZw9rGFi7uPoiOz0SkNrVhKTYNCkUEwoKDXohI1Rx9Ynp6uvg7agnPRHO2kYoIqhTef/99HDx4EK6urkJZsXr1auHIkuCB2+gnwsnJCWvWrMGPf/xjzJs3DxEREZg8eTJ27twpnldO+nmfR4wYAVNTUwEvrKyshDnJn//8Z5w7dw6XLl0SQISwwMvLC4cOHcI777yDjRs3it+HygjJ9IN+KKKjo2FnZ4f//Oc/Qukh3RuCEsIMOsok/Hj77beFz4obN24IdQiPp2kIQQnhBJUi/fr1A/evXbsWP/vZzzB//nzRXl0nnVL5dcllUFGX2a58TIu9AzKokAeRdekIDfkYGVTob+Irgwr93fvmGFQ3Rh0yqJDfMYb8/pDaVlCQD01sPBau3g2TIVPQZ8xsHLO9iLy8Ctk5j2uNoMLN2Qn73QIwwyO6Inlq8LVrJL68GYIvb4XqNU28HQ6zq+44bnsSNtYyqJD+VltbzjEcVRDLli3Dm2++ieDgYDGnon8IJk7EJfMO7mCUDaoTvvrqK/FMUq0wdepU7Nu37zlQMXHiRKFaYPkEFW+88QYOHDggyt6xY4com9vd3NwE/KCzS6o4VCqVMDNhPV27dhXwoUePHsLHxG9/+1ts27ZNwA/CE4IKtlGtVuOLL74QMIKRPWjyQdMUHx8f/Pvf/xZApX///ujZs6dwrMm5F01TCCk++OADhISEoLi4uEGqChlUtNgpuNzwutwBGVTIg8iW/tKTQYX+JssyqNDfvW8MiNAcZcigQn7HtIR3TH5+HhKTkrF80wHhULP36FnY+/1JMSFpjYoKV7c7cHRyhpOzC5ydXeDq7Iw7Li644egMmzPnYGtlBVtra70nGxsboaSwsq7IXd19ZUVFduvqUyT1wscff4w//OEPQi1B6EAYQbhAvxWc1FMpQQhAsxACBJpb0BcE8xkzZgjzD6oSmBixgyoLKiY4RrS0tBSKCaox6J+CpiNUUDCn0oFlDh8+XKgltFqtgAZUVFAtQdUGy2Das2cP/vd//xebNm0S5iWEIfQ9QfMT+rOgAoTqEPYZhCtsx4oVK7BkyRKh7qD5Cq+XZdFUhMoOAgyaknB7Q/pKGVTUZbYrH9Ni74AMKlpXh9+QTq6ln8MOX6vRICRIP1LO5pjsGWodMqiQQcXL/jZlUCG/Y1rCO4bKidS0NKzd8T26DPoGPUfOxJa9x8WEorWBioiYZHh4+cDR0UmACsIKFxc33L7thDNnzomvz9YEBIQDtSRCBBsbW1TkXH55qq28GvfZ2MLSygonTp6GX5AS6riMhpl90FxENv1o0GS4qZ5hPlucoJ89exa//vWvBTiYO3euAA/0V/HLX/5SqCUIKggAOOkn0AgICBCQgucSLBA0EAIQZvDY1NRU9OrVS0AI1nH8+HGhlvD19RXlsGxG8qCKgf+ogJD+cUxJ2CGBioULF1aWS8eY9EFBqEFzD6oojI2NoVAoxPaZM2eK+nk+gQhVGYQl3M72EKiwzayXjjSXLl0qFBcMgyqDCukXkHP5DujcARlUyIPIpnoBNVe5MqjQ32RZBhX6u/cvAwSGsl8GFfI7prneBa9SD0EFv35u+c7yKaiYgbXbj7Y6UCH5dggOV8PZxQ2OTk5wppLi5m2cOn0Gxy0tQfXCyxNNMWxgY3uiXqmiXOs6lP+sDZZW1qIORxd3RGjomyJNBhWtRFVB1UFaWhrGjh0rFBRUTEj/qDggUPjTn/4Eb29voZigeoGqCMIIPq8c/1FR8O233+I3v/mN8P1AmLBlyxbhw4Iwgsf88MMP+Otf/yqUC1RhnDlzRkTvIPhgGwgW6Efi1KlTAnIQGhBU0L8Eo4+wb2F7COP++7//WzjppOnHuHHj0KFDBwEk9u7dKxQh27dvF5CC9dIk5fe//z0sLCyEbwouU91BUEE1xeuvvw6CENbPdjSkD5MVFdJfjJy3yjsggwp5ENmQjtGQzpFBhf4myzKo0N+9NxQQ8bJ2yKCi9b5jOLjmhKGhA2xDeo8QVGRlPQMVDFG6auth5ObmILcVOdOUQEVUbBpCVVrcDVbANyAUd7z84ezmLZxVutzxwcvSHU9/XLxih6MWx2FhZf3S9IOlFSxtTsDRxQM033hZ+br7XT184RMQBlVMEthu6RoalMuKigZNhpvqWaUCgmYPH330Efbv3y/6E6kuKigIJTp37iyUFMzprJJ+Hmj6wURFA5UN9CtBxcK//vUvYWJB8wwqNGj+wTGira2tgA5UVBBCcHJPXxN0rsly6HSTviS+++47YbZBNQTLpd+Kv/3tb+IY+qlg1A6acVClQVBCR5t9+vRBbGysKJMOMulng+Wx3L/85S/CySbLGj16NH7xi1/g3XffFfv//ve/g6YjdPzJ+yBdd31zGVS0yum5fFHSHZBBResdRNa3s2upx8ugQn+TZRlU6O/evwwQGMr+tgQq2BdRQswvb/ruTwkP6Mzt0aNHlYlfEtnGxmgbB+qUXPNLJ+XNXG+McvVVBttfUJCHfcdOofPAr9F9+HThWJPbCSvYLi7z71mvz1ZwEFRRsYiMTX+1Cbs2tXLSH6FNRYQmpV7laZNzcP22G9asWYtVq1Zj9Zo1taaVK1diz779UKgToI6rX9sJJ6Ji0yvb2yBAIUUJkUGFQT2nfKZophETEyMm7FyX+gBpmc4yqW5g5I2oqCgRspQhP5kIKAgMJP8VNMGgY0pGAqHvCp7L8lgHYQJVEFxn/8i+kOWxHJ7Dc6nukOolAGDfxrKkY1gfzyfIYC61jceyDSwzMjJSlMdzeF0EIyyTZbFNLIP1MTwqIYVUFstrSJJBxdMZbX75M/sdaZJbU67NK8FO32h4JmbXdEijbdfkFmOnTzQ8E5q+rkZrtAEVJIOKhnUMDelM5HOa5l7zxSD7qNDPhFkGFfq573qdKIXU75rbCqjgQJQDZoa+Y5g69kvSgLe5+37RJ2q14isi5ciUItMJ3IULF0S7XqaAYLsJWyihrqntHFxTTk1Z9vnz5xtsX11T+c29nddcWJiPAz+cqQQV81fuFL9hawUVzyb8BAH1S5qkbLh7B2LT5k3Czp4S+toSIzocs7BGhCZZgIr61vesrQ0MSyqDihqf5eZ+1qrWV/HsFYq+qbp9BABUbzFnv6ObuE06h8fo7uMyt3E/+0Qeq9snc1vV47lNKo95dXXq9p9Su6RzqitTqrO69umWJZVR37zNg4qi+w9xRpmECZfuwiokHgUvARaF9x7gG7tAfPi9E25p05t8Sq7KKsSQM97obOkGLsv/6ncHZFDRNJPn+nY08vEN/x34YpBBRf0mj4010a0rqAgPDQGPjVQqEK+JxqWrt2DUaxRMjLvBxKQ7Ohv3wtylW6AMD4M6QokIpQLKsDD9frms54S8se5payunrYAKfjWzs7NDu3bthJyYX9J0B9Hsp6pL7Pulgazue4DHStuZ654rnaO7TTqW+zj4vn37trClphyazuno0I1SaIILacBetVypPH51pE01AQQH0lLZ0n7mvF4e8z//8z+4ePGicFAn7ZeO170eQ19mm8tKS3DM9hI6DfgK3YZNxbTFm8S1t35QUf/JvyYxG26ed7Fx0yYRVpKKiZoSAcby5ctx+txlodpoiPmGNikHcSl5z6kq4lJyQWVHTEImkjKKoEnMek4VwnoS0wsRl5r3bLusqHhuIm7oz6XcvpePjds8qDgWHIe/7r+FP+12wNvf3cDRwNhaZ8KR2UUwsnTDhYhnDlFqPaGanZQrUqKo+4/yRXpIFduf6O4BqOAwtryDk+GJz++Q1156B2RQ8fJOQO4oDfsecXAsgwrDBRWKsFD4+frj7AU7WJ+6iPOX7LF9vxVM+o6pBBXGXfvg67lrYHvmCk6evSKOu37TCeGhoSDkaG2T97Z0PW0FVNCe2szMTICKn/70p8LWWVeRwMEkFRdMnBRLX/q4rAsDpPcN97Nv4zpzaZ3nc12CDVJ5XJeOJ6i4deuWsKe+fv26GAdwG22kaTdNCTLL0y1TGuzyONpT02ndhAkTRJlSfWwnj2PicfSkT1vwy5cvC3DBtvAYqW3StbSU/EF5GazOXBWgouvQqZg8d60MKiQlgk5OAMDJ/w3HO1i1ahVWLF9eI6QgvJBAxdkLl6GOS6uX6YekvDj4vSV27zvynOnI/sMWOPKDDa7ecMHU6XNw9bqzgBVRsamiDqo3Fi5Zgc3b9zwDJDKokEFFA00sDLUfk/rul074ALSry0Et7Zilzgq8uccBnxx1xh922WOZs6LWSwjLyEcPG3d4NdDsgxNnygmHDR8mJJRSZXzZ0mkKX5xW1lbSZpFT5THkjA8IVeR/9bsDMqgw7Em4oXaMhtQuDqJlUKGfyXxdFBUVsCEU3x22xqDP56H/iMnoN3wSTHsPRVeT7ujatQe6mfZB78HjMWD4JPQbNQXfzFsLRyc3KMJkVUVLhxptAVTQg7u/vz8+++wz4SGeMKBfv37CLpoA4+7du8IpGyf/3bt3F+Hs6PSN3uTp48Hc3Bzu7u4CHBAA0MZ5zJgx+P777wUooOnGf/7zHxGWr2/fviI0Hx3Pffrpp8Ip2yeffIKNGzc+nVRXyJmpqKDjtytXrohBAdu4evVqTJkyRdhVs110MNelSxd069ZNOKybNGkS7O3tRd2/+93vhFqC29geDw8PdOzYUQAMXsf69euFouK3v/2tgBWdOnUS5dApHgEG+2VCGEN6V7ysLffKSnHq4nUQUnQdMkWACgkM8VxeD/+e9fpMNqKPiprMKQgH1PEZiH4uZSI6viIxPGhAaBQOHvoe5kuW1GryIZmDLFu6FNt37kRQmFqUSxVERXnP18O6q7YrJjELx6xO4bMOnXDFwQkJaQXw8AvFv//zAZavXIeL127izbfewvRZ84Xigu3mMVYnzuP//dd/YfS4z0WZwjeGDCpa1DP5smdW3p8twDGhc13+tUpQsd1bLUDFO/tv4C/7bqKHjQccoms26ZBAhWt8Zl3uWbXHUDI58YuJWL5iOR4/fiyOoSOVGzduYO68uSLpnphdeh+Dz/jgBxlU6N6WOi3LoEIGFS29o5dBhX4gBQfrdQEVPI7AISgoCBt2HEb3gZ+jc5ceAlB07Urv3Uw9YGxsik5dB2Ds14twzf62KFuvEwLZ9KNRJmRtAVQw8sXmzZuFx/ng4GChpqCqgv4qqAKlI7ewsDDhrI2O2T7//HNhHnLnzh24ublh5MiRcHBwEEoEAgUe+/7774Me5KlQmDlzplBqzJo1S0CDnTt34oMPPhBh7qheILSgZ3qGziPoYKK3fHqc5xdvLs+YMUPUSTMNKj3YJnqspySfDt28vLwE2OBxgYGBIlQgPwzRAZ2Pj08lJOFz7OfnJwALgcTPf/5zUQ/D+tFRXO/evQXgYHlsW0t6v5SXleD81dvoMWK6gBVfzFqFuPhEMCIIr6OtgApVTDKClRoEhUdXJoIJJp+74bC/4YRdu/eKvy3CrzVr1rw8rV4tjifcuO3iKcpThHJGAAAgAElEQVRieYFhagSGq5/WoxaKiaqgguAhMDwai5Ysh/WpC0jOKob1yQv45NP2sLvpChePu+hkZIx/vP9vXL/tUWkiMm3mXPz2t29g5tyFMqhoJSoC9im6DoKpwJeUXi2pr2nMtrZ5RUVcXglWuqrQ0cIVa+6oYB2agA0ekbAMjYdVaAIySu49NyGOyC5EN+s7cI3PwuOHD4SEUB2tFrkEHUh+6GlVq9EK6i4VkJaeJl7CPO7YD8ewes1q4bVa2s+cL0PGnNX9l1V6HwPPeMM6LF53s7xchzsggwoZVDRmh6mPsmRQYfiggsBBGR6O8LBQbNl9FL0GT4SxSU90NSGw6Cn8VHQxHYgJU8xw/YYzoiJUjTJJlkGH/v42pHvf2kEFoQAn6FQbUEXBf/ywQpMI+oYgeOBAmj4dOLbh5J5Q4cyZM2Ld1dVVKEVv3rxZCSrCw8OFWmLTpk3i3OnTpwuIQC/y7O+GDx8ufE4cOHAATDt27BAQYtSoUUKVwbpcXFxEmLwOHTqI46nkoMLi6NGjwrM9B/z8R+/zR44cEb4r2rdvj4EDB4rrITwhIOFEYNGiRUJJweukCS7LJ5yxtLTEH//4R3FNBDJ0wEk4Q78VzHmcPt4JDa2ztLQYdrfc0H/cXKGoGD9tBRQqNfLz8toMqCAU8AlU4OTpc7CytoW1zUlY2djiB4vjOHrMAocOHcbBg4dE4vLhw0fqnA4dPlJx7oGD4DLLPM6wpdY2sLY5IZbdve6+YBoiRQnZunMf5sw3Q1hkHMyWrsTSFWuFj4rbrt4YMWos/vznt8W2xPQCuHgGYMbs+cIkZOuufSK0qayoaNnjXfYn7FsPHjwoHASz32M4UUYfYr/I/eyvOMfk5L2h/UBLO6/Ngwq+yB4+fgJFZgHKHz4SLzaqLN47cAtv7rmOSVfuIjavRGznf5cjU2B03A3ReWXIz8rA5K8mo3ef3ti9e7egYDzG188XY8eNRZ++feBw3UGce/r0aYwdNwajRo/CqtWrMGfuHGzZuqXyHKkCSytL8dKU1pkzIsngM97Y4hmlu1leruMdKM7PQ35ONnJzWnYnZiidS052NoryclBSkIOS/GZMBTkozmfM97b1O8qgQn+T0boqKqRJK2FFWChhxbFKWGHSxRTG3QdhPCHFTWeoI1QIl9UMrQbUtHZQwQk6zSt+9rOfCUUFVQ/Tpk0T4ICqCCosaGZBFQNVE3/+85+F+oLbOOl3dnYGzSuYEx4QbFB1QcAggQqaa9CcJDk5WYS0++tf/4oePXoI0xHWRZBBmHDy5MlKKCKZfly7dk2MBAhLqJ54/fXXhZNMDu5pUvJ///d/6Nmzpyjr3//+twASbPOIESOECoOD/qFDhwpzEJpBcJ3vWk4KCF14PfRRwXYT2rDed999t0VGAikpLsQdr7sY9Y05jIdMwcivl8DdOwCFT6+5LSgqaJLh7hsEa1tbWFpZw8raRiRrARMIFAgvbGFje6LBSSqDZUrlM7c4fhyuHr6IEuFLnzcBiU3OwZmLdhg6fJRQVXw1ZToOH7NGfFo+7G+5Yfmq9Vi/aQd69OyDa9ddBLDoP2Aw1m7Yhm27D0AZnVgBQGTTjxY5gWe/o1arMWzYMLD/o9kc+7558+aJD9zsX2lGx+hGNFXTVXNxjKibdE3SuFx1X3XbpPlF1X3SudJ+aV3Kpe1Nmcugospkl2YWfU94Csea/zh4G+/su4mbmgpTEDt1Gjr84Iq9fjGgwca98nJs3LRR0HySeN5MOmniH9yxo8cwdPhQpKSmiFBepP3W1tbw8PQQf2jv/+t9EfaoSvWoDlQ8fvIEV6JSYGJ1B4fuanHvUYW5SNVz5fUX70Ba8T3cVKfCNToVielZKMjNBifaTflQteayc55CguthqbD0SYa1b/MlC+9kXAhMRXJ6VpuCFXwhyD4q9AMrCCocrjti7OS56NipGzp3MkGHzj0xc9Fa+Pj4V2u+wXOorNi65xh6Dvocxt0HY8K3ZnC46SIghQQ15Fw/v2lj3/fWDCo4+efAlSYUVFDQ/INRNahy4ECa8IJmGZQqq1Qq4Z+CilAOqgkpqECg8oFmHIcPHxbbqbogtHjzzTexbds2AR4IKuibgqCAjjDpU4JOCqv+Y5kcZ0nAgBCCIUlZz4MHD0Clxttvvy2+QjJCCf1J0LcFoQnrHTduHOhrgioLqjYkRQXbTFBCuMG2E1LwHIIKXjfr4DbWSxPdlgoqigoLEBymwpdz1sJ48LcY9PkCXHZwBrdz3MLfmn/Pjf2M1Ku8JvZRQVDh4RcMa9sTz4EKXaDQVMsWxy1qBBVs193QKOEYc9JXU/DN1FnwDVKB6gmafywyX4mr110wcvR4fDH5W/TtPwhbdn6HY5ansHHrLhlUtOBxPZ879i3sVwlofX19RddHRTj7LfbDVHhxP8EpYSnBKZ9ZzjclaMH+k9u4znO4zPEjj2HO/ayL69wnrfN47uc5umVJx3I790vHSfWwHKkeltdUSS+govzxE+SVPWr+VPoI+aWPUCWoxnPvwtvaDHz4vbMAFH/df1MoKxy1Ff4orsekwdjSDTt91JVl8MsAX7L8YyKIoJKCP+bJUyexe89uUfa48eNw+Mjhynr4xzdr9ixhz8bzdP9VByq43ycpW0CSXT7RQgGie468/OIdKH3wCJdjsrHZLx6rvGKx1jsWW/3iBLDIy8kGU1M9VK253KL8HARpM/D+bjV+vVqF36yLaLb032si8PsNkTjgnoR7hS3Lidmr/E3wBSGDCv1Magkdbt5yxuRZK9F/zHQMHj8T/cZMx+LVO+Hr41ctqOCgXMCK0FBs3HEYE6cvh52DI6JUsrlHvSYsLUR10ppBBQfDNN34+9//Lib8uuMV+n2go0o62KS/BppU8Gsg1Qo0faUfCkIHSpkJHggQPD09xSCczioZ5pTSZg50qbjgNvqVYJ1UWvzhD3/Arl27hJkG/UZwmcoGDo45qKcpCc0y9u3bJ+rjV8YhQ4YIsEDHn1ZWVnjjjTeECQrbMH/+fFEn20xQwWNpSsKPS3RmTrOR8ePHC7UHQQrr4tfL3//+9zh79mwlqKAzTtZL0xbCi1fp25v73Pz8PGjjEjB72XZ0GfQN+oyZjR9OXEJxUaG4jrYAKujMkuoDb78QuHn6404zJjcPPwSFRSNS+7yagj4raLZBWLF241YBACd+8TWU0UlISC8Q0T7mzF8Ed59g7D1wFL/85a/Qs3c/BCu1YGSQNeu3yKCiCSfKTf2cSqDi2LFjwqkwFWwEE+wL2T8ynDL7v3/+85/41a9+BToXZlAG9j/0eTh27FgBYE1NTYVSjQq0tLQ00U/SFI6Oij/88EPRDxO0Llu2TJjy8Xg6LGY/zHEm+985c+aAJnLss1kPVXOc47KfZKQlKuG4j6aAkydPFvWzP27Ke9TsoCIo4x4Gn03BGxvVeGN9JN7YENX0aWNFHa+viUC3S+koe/Q8qkgpKhOqCefYTCx2DIeZYzh62Xrg7wdvYamLAmnF5WImTGWDQ0w6jK3chKkIN/KPiHaajo6O4ksDY3rzJWm2hLbI1wW9GjhoIHx8fZ6bTe/bv08456G9ke6/6kBF2YNH+NYuCEucFDKk0L1ZNSwX3HsEa1UazNw1MPfQYoVXLFZ4xmIplz1j4RCZiuws2RSkvh0L1RT5uTmYcSEW7ZYoK5K5Eu2aMy1QosOBaMQkZwozkPpeQ0s8XgYV+oEU0qQ6hM71fP3h63sXfn534evrj7v+dxEaHFzrl0dleBiCAoPg5eUrnG0yOohUppzr9zdtzPvfWkGF9DWNA90+ffqISBwcPEt9KJfFx5mxY7FhwwYxqDUyMhJmFhzIMq1bt04oExhRg18KjY2NReLAmSoLOsdk/0ZnhRwMc6DMQS9zKioIQahGpdqBTiwpfeaHICZ+dWQdrJMDbmnwTOedVENwoE7ZtG60DkYiYT1UwG7dulUMyBltjWoQgglpEE6YQXNeOuak0oNQhO1ivXQQSl8dHPA39QBduteNlfNesyzz9fvQecA3MB02DVv3WaK0pOLrbFsAFYQCFSFB05/mac2aV3Wkqbsen5qHc5cc0KfvQNicughtUg60Sdm47eqDTVt3wTtAgYAwNaZMm419hy2EWchx27MCVqhikmTTjxYMKziXTElJwZdffilMP9g/UeFFFRmfW+6jKRthBSEpn2NCisGDBwuF19WrVwUUZqSj1157TajFOMFn30woTCirVCqFwm3AgAHCnI91Sv5/CGOpMPvTn/4klGQsm5GPqJpj/0r/iey/qT5jP0GYyz588eLFAqRIfUtj9VW65TQrqIgvfogOP8Sj3YLwZxMdacLTVDknUSx7QTj++1A8xsQ/hK57TP+UXAw/7ytMPQgnrkenielvcFq+gBf0X6H7T5VVCFOrO3CNq1BZEDSQbH311VfCidPe7/ZixfIVwvaRL8rSsjKMHDVSUH+pHEoUv/r6KyGjlLZJOf9Yli5bKq2KPLv0HgadlqN+PHdTalgpe/gYJyMzYOauxUqvWKGmoKJCSss9Y7HMg7AiRfitkM1A6qYsycrORnlhDhxCU/H6+sgKOLFchXbNnZapxPO87mYCygsZHq5u7dft9FraMl8A+lJUcDIeHRWFWE0MtDFtM/HaE2K1SIiLrczjtVrE1uF+xGk1iI/Vttj7F6vRIFKleimUacyJf0srq7WCCt1+kgPa6gaiVDdIMmIewwEsZcFS4gCT5UjHcZ2Jx3KbVCbXmaQ6uUwooFsel6XjeRzXpbql+nTP47Esg8dyP9d5PI/hucy5jfu4zmOldbZRqo/ncFlqG5erbpP2GXrO8U5ZaTG2fHdcmH50GfQt5q/ciYyMivvDa2vtph+6YCCSoUKbO2lTXwhPqtsmoaxIzBIhTqXtIpyq8GtRobzQJGYJ9QX36+4Tx8s+KiqfVUN/Hqu2T+qD6PyX0JTKBsJSAlGa11ElRmUElWn8x/ki1W7008O5KBUY9ClEE72PP/5YRDeiOo3ma4yMxLknzeRo3kZlGJ12EgjTnGTixImibIaMZlk8hu3jdqrdpk6dKkAFAQpNUGjKRzhMJRoBSFNCW/bH7HPr8u+Vw5NeiipGu6UqtFuqbN4JjpkCbxyIQ2/NA0zJBcp02MNqNxX+uMsB/z7iiD/ssscG94ha74UUntQtPqvyuLsBAYKA8ctDjCYGH370IRYsWFC53/aELdp3+Az7D+wXfxzr1q/De397D+PHjRdkn6YgDI9FL9Lz5s/D0GFDcenSJVy6fAmZGenIv/dIhCe1CImrLFNeePEO0IrmgjpLKClWej6DExKkkHLCiuUesXCLSUNRbo7ss6IOFDovJ0cMMEfbaNHOrJmf36owxEyJ93ZEIUCTjrI2YALCwbO+QIUqPBw/HLPAxg2bsW3rdjm1sXuwYf1GXDh3QcCKlgYQmqu9rR1USBP2qoNqrkv7pJx9lW7iduk83e3SsrRfOl86Vrds6Vjmuvu5rLtPWtY9RipX2iflVcuvus7jeK50PnPdcqX9uttaynJJcRFsztqh79jZMBkyBZPmrBZ+KwqfgqE2BSpeAg0kUNCcuQQemD+rt0L1Ia1zn7Rfd1nsl0HFc89qS3kupXYSoBIU0GyOan2CACq6CCosLCyEioGqMR5DhQVNM2jKRoUbJ/QEDDTR4Mdzhlmmqo2+ehQKhVCa0WcQocNbb70lTDdovkEVBQEIozXROoBlEAzQ5IT7CU1o6kFnxDQrYaKjT5rT0SQlMZEhjp+BZulaGitvVlBxLrygQk1RdeLRlOuLFXhtlxZ9Iu9jeBbwVcbzoGKlqxJv7b2OD4444k+7HbDMRfHiDFhnS2hGPnrYuMM9IbtyK201qZC4cfMGCB24fPHSxcr9JFy0PRowcACGDB0ipDbfH/1eRAyhfIbnHDx0UNhpzpg5A0xTpk3BtOnToI5QouQxMPSsD44Fy6Ci8qZWXXgCOGhysMRdI8w7JChRU77sqRmIhyYNhTKseGnHfr8oBxcDU4U/inZL9KCkqNpHLFZihUO8cI7a2v2NcFCsD1BBU4XoyEh8MXEy/vGPD/DJJx3l1MbuwXvvvY81q9eByormmvi3tHpaO6horMGmXI5hqP8KCwuEX4ZRX5sLUDF44gI4OLqjpLhYgBkZVNSueJBggcHmMqh46XjWUPsiAlGqKpiofuA6/UQw4hHXqd6nuUVtigoqJqiikBQVNP2g+RvNSOjTgnCBpnT0y8N/VEPQnITmbIQVkqKCJic0wevfv78w/aAfDDogZhm6/whQqoLcxr6/rRtUmCnwi01qdAsqwZhsYHDqi6DCTp2Kzsfd8OYeB7T/wQWXo1J0f4MXlhnG1MTKHS5PTT94gOSVlRSK/zix4B9L1X+paamIi48TJIz7cnJzBAXjMv8wSa9y8yrkiZKU8dGDB8gtf4C+Jz1hGRpftUh5/ekduBmXC7M7Giz31FaaedQEKbh9tVeFzwrmfnHpKM6TlRU1dS4FeTlIy8jCKKopFutZTSEBC3MVfrchUqgqGCa1pra3hu36BBXqiAhMnTID7dsboWvXnnJqY/eAcGrTxi3C7KelAYTmaq8MKgxjAt4a+vrmuIa8vFzExSdi8tx16DpkqoAVFicu4155qWGAipAQhIeFIzxcifBwhZzqfQ+UIkR2c/V/Vevhh9umnrg2x3PSnHXwflHBQCeadOAbGBgo/E8wYhHNNhiWmUCAoIKhS0+fPi3uMf1IDBo0CO+8844w/6AK48SJE/jtb38LhpHmBH/p0qUCbvBYQgaGZabCIjo6WvjboVKCPix4PMM0M6IRzU1iY2Oxdu1a4aOCPi3oT4hmJnR8TJ8+DCRhaWkpTEDo5oDj1Ka6Z60XVCxR4GfrotDRoxCjs4AR6dWDCjrIDEnPx1bPKASk5ILrtf1LLSoT4UsnXg6AJre4tkMbZV922QNs8ojER9874Y6OuUmjFN5KCnGKz8MSdzrKfBFS0Hkm1RNM1fmsWOYZi3XesQhMkGFFdZ0MbVpL8nNg7ZOCX6yKqDDdkmCBPvOnvirMrsWjKC+nVYcrlUGFDEj0BYlkUPFyp58yqJBBRXXvTkPdxklRQUE+zNbtRbdh02A08Bus33lMTGry8/L076NCRPsJRhidFcupYfdAjxGTZFDRsP6QH6tp0kHHlVQ8SBE5qHDgGJCmHe7u7sKxMZ1aUqVP8EDgQLVD586dheNhggczM7NKZQbDSTOaEcEDfVjQzUDPnhxTdRVRm+hgmM6NWQ+jNdHUgwoMOjGmM+PXX39dHEtFBn1iMEoIfVOwfayLzjslvz9N1ee1TlBhrsRPVkXgE6c8jMoERqYDI9KqBxUNmatfjUpFv5NeOKdKasjp9TonKC0Pw8/6YIe3GuUPH9Xr3LZwsEdyQUVkj2p8UjDKB+HEzoBEbPVPEFE/lnu8CDMIKzb7xiE8MV2YEjTVw9YSyy3Ky4Y2OROmR2L075uiKhgxV+KNDZHwi8lAYX7rVVXIoEIGFTKoeDkwqPplr7nWZVDRsIF5S3wftoY2C1CRn4+jNhdFeFKqKr5dsAEKVRRKiooMBFQY7vPeXP1KS61HBhUN7w851uPzKSnqK6BihZNf9j3cT+UFJ+5M3MZ1Qg6u8zxu47rkM4LnSMvS8TyHx/Ic7uM6Ey0BJF8XXOfxo0ePFkqL5ORksY/lSe3jfq4zb8rEdrI9dfn3ys40m8VHxVIlfrxchX/ZZVdAiowKSNGYoII3iyFD7z18XJf79krHPHryBCX3nw9h+koFtqKT/dMKhT+K6pQUVFDsDkyCb1ohEgvvQ5NXDsf4XGz0jRPqiqpmIYQam33iEJuWiYLc1jvprU9nQjVFYV4ODnsk4SfLlWhHFUNVWKDPdbbHXIkvTsdWqCqauLOsz71rzGP5ItCXjwrZ9KNtQxJZUfHihCmc0nSdULMyqGjaQWpj9qVyWRW/VX5+Hrz9gjDo8wUwHT4dvUfPwk1nT5SXlcqgQo9qhJYKJ3TbLYOKV+sPOd7TTYQVuv2WtE93u7RNynX3cZnbqytDOp4QgOFP6bRTrVaLWSKdddIM5Xe/+51wmEmfFVJZ0nnMdevSraMxl1sXqGA0EXMl/u9cGkakPRGggoBCStX5qGhF8/Y2dSnhWcVY6xOHahUSHlrsCkiEJr/8hXsSklmMTX7xWKZjJkI/FTQdmeCgxi7feKRkZInQpY35oLXEsuibIi4lEx99F10R4rcmKCEi+TCaTyOnmurT3b5EiT9ujISzMhWt1VcFXwYyqGjbwKAlKCoUYWFoK4nRcJTh4QJYyKDi1QbmLfHd2NLbTD8VSckp+HreOvQYMQMMU3rghzPCR1pmRobsOFeGFQ3+G5BBRcvrDznGZJ/GsKY07Rg2bJhwovnaa6/h22+/FfCCKg199XutB1RwkrREibdtUjA0+XGFXwodSCEpKr7OAGr3QvHC3FbeYGB3QJVTgs1+8cKUo6oygqYe5u4a3I7PE61OyDkNr5gxuBs3DYVlFRFdHLTZWOEVC90QptNux2CsnRqjr0XhgH88UjOz2rQZCNUURfk5+M4tSSiUBITQBQRcfuon4scrVPjlmgj8ak2EyLn8Konl/Ndq+sOoo+NOMyXGn4xFTk42WmMEEBlUyJDCkEEF1QWctPt4eeHypUs4c/p060ynTuH82bM4YWsLSwsLeLq7I0KpRIbsPE5vA1h9DZxber18p2RlZ2PnQRsBKkyHT8PMJVsRG58gwrXrfiGXl19UVcn3pOZ7IoOKlgcq2J/RBIR+KOzt7XH58mXh2JOhTOkok74tCAv01e+1HlCxOBxvHk3EkITHGEXnmVUgBdeHpAKTMoCo+0Dcg6ZL2gdAqmyt0SR4Q5NXJnxOmLu/6GuC0IIKiy1+8dDkP8T9B1q4qwfDLvRdXAt9G2FJKwHcR1zBfWz0jRcRQtZ4x2KBqwYTHdRCUTHOXo0x9mpYBCchMysb+bkts9N51Q6lMC8bkYmZ+HBvDWqKZSr8aJkSHfZHY7tzEm4r0uCsTINTIyRXVRouBaXgs/3quvnFMFfi9bUROBeQAoZRfdVrN7TzZVAhgwpDBhVKhQKuzs7YuGEDFixcKEKpMZxac6SFCxZj7mxzLFiwuEnrW7hwIZYsWSKclNHZGJ2J0UHZ+XPnkFuNtNbQ+hC5PW3zPV7T7065Ns0/bjh5oufImeg5cgb6jZ0Dn7sh4u9ZnojXPBGX703t90YGFS23r6EJCE08pMRIlpKvipr6kubY3jpAxeJw/G5/HPpF369WSVEVWgxNA5oy9UoFzHOaZJ7epgtNLCqvFVIQVNDXBJ1nphYDuUVOcIowxg3Fh3AI+yd8tZPx4FEWssqALf4JWOFVEQ3kq5vRGG+vxucOFYnLY+3VsA5JFF8XWuNX+pd1LuWFOdhwKxE/pXKiqrKBkGKpCuNOxEKTnInHJblAWeOlx8W5uFeYA9/oDPxthxrtFinRbsVL/GMsVGCUrRYZWdmtTgkjgwoZVBgqqKCSwt/PD9u3bcOcOXNEjPYFCxagOdK8eQuxYs107Dw0HktXzMS8uQubpF7GnZcgBePIm5iYiNTZyAiDBg+Gn5+fcF72sj5V3t9yB/Ct8bcrLCyAOiYWE6avRI+RM9B9+HTsP3ZGfEGlCZc8Ia99Qi7fn+rvjwwq5H6usfvLlg8qFivwm50a9FLdqxOkILQY1sSpTyqwTAYVjQpVMksf4FBoivAlUdXcQ3d9uQfDjcZBkX0P9x8m4o56AOzC/oprIW8jPHk1gIcIyyrFOp844YhzprPmOUihCyuosjgTloRcerbNaTudD8ORhsZl4IO9arRbXI35hbkSH+xRQ5WQKRQMgZp0HHRPxh7XJOxze7W02zURl4JSkZaZjftFubgVnoZ3NkVW3w5dU5SlKvx6lQoXg1Jxr5WpKpoaVISHVj/goKRfdqbZtiHJy5xpElRct7evBBRUHjRXmjPbDHt/GAuftH9g+/5JmDNrSePXvWABlpqbY/HixcJulyHdpNBszI2MjLBt2zYhi+Vz2tgDNLm8tvPebe7fmn+v9N6/+/AJmAyZImDFpFlrEB2jhUoRLoMK2U9Fg/4GZFAh91mN3Ze1bFBhpsCvtkSjW1ApxmQDI56GIa2qoGju9X6pwHIZVDQaqMgrf4jvw1Jg5q6BLpSobplOMjf4xiEos0jUn1ZwA8EJC6BIXoviexqxzTM5H2uFyUcMJl6PFiYfEqDQzcfaRwmTkEvKZPGVnsCisR9AQyuP6pH8vGzMvxKHHy2pJtIH/VIsU2He5XihpAjSZqDn0Rj8iKoL+ol5ur/BuZkS3Y7EICopE8X5OSgtyIF9WCre2Rz1clixSIkhllqkpGeBjkAN7d42tD1NDSqU4XSCGPrCoEQGFW0bUlDFURuo4N8HE/02UHVAFYUEKRYtmI/F8+dhUROmhXPnY/Waqfju6CisXDkNC+csaNT6Fs+bKwDFtAWLMKBfP5h06ghTE2MRP54x5JkYz37GjBlITU19LgRcQ591+bzW/441pN+4pLgIrh7+6D9+LrqPmI6+Y+fgwrVboLPYmgC2rCSoHuzL96XivsigQu7DGruPa7mgYokC/29dFDp5FmJMDjDSQCAFoYgMKhqNUaDk/iNYKtJgdkcDOsqsDk5I25Z7xgpIcV6dCc+UfGSVVTgKefi4GI+f3BeNSi+5B/ekPFgq0zDlVjTG2kVVmnzoQgppeYydGl9ej4Z9RAqK83JavbKCJh8uqjS8SRWDWTVqiqUq/L9VEbDySRbmHtsckypMMySooRv5g9CC6yyH5hvSMRLM4DoVG9wn7TdTotOBaEQkZlaEHM3JRllBDs4HpuCPG2pok6SsWKbCT5arcMo/BVSF0LlmY3eY+iivqUCFMiwM3l4+OPTDSQQGBr3wFU0GFTKoaCioWGC2BHOXLsdc86ZL85Yux2yzlZi1aFVFPZeBqSMAACAASURBVI1Y3zzzZZi7fBUmrtiAHqMnwKRPf5j2HwjTPv1eABVTp06VQUUbgPj66Pubus7CggLExSdiwapdMB78rfBXsWDlDiieQki9Tr6DgxEmp4bdAz2qQWRQ0TrGnU3d99Sn/JYJKswV+MnqCHzinCeUFIYEKWRQ0XiQ4v6jJzihTMdiQgrPl0EKrTDnOBuVgTtJeXBNzIN3agFKHjyL8VJ4/xF80wrhkpgHe202tvonYYK9ulrTDwlUMCes+PZmNJzVqZWT5/o8ZC3lWMlx6JRzcTWrF5aq8F+rInDaPxkoz4W5XQLazVOgnQQLdHNCCnMl3tochQ/3qvH6+ogKxQWPMVfh56sj8NF3anQ9HIN/7lKLdYIL40PRwpFn0VNVRF5uNorzs3HYI1lEFuG51dbHcpco8dm+aMSntp6oLU0FKiIU4bhzxxP9xs7Cqo17EBoSigilolJZIYMKGVTUG1QsWIBFixZi0vFL6OKeAmO3JBi7JTZxYh1NUM+dJHR2S0JHRy06O8Whs2sSjI7Zw7RXb5h2NalUVEybNk0GFTKoaLFQvKy0GDZn7NB16BR0HzEDwyYtwpVrNxCpVFa+C/QBLMLDwhEerkR4uEJO9boHSoSFvqiQbK7fUAYVMqho7DlPywMVTx37fXA9R/ikGJlRfYSP5jb30K1PVlS8Oqx48PgJzkZlYpHby5UUKzy1YPSOk5HpuJOUD4/kfFzRZMM2Ih05ZQ8qG5NafA9UW9hpsnEjNgc34nKwyS8R4+yjMN7+ZcqKKMy4HQOf2HShrGD4zsZ+GPVdHlUIdyLT8IeNkQIwVAsDnoKKk34VoGKZfQLaza8GVCxT4RerIjDhRCx81enCOeb4E9oKAGKuwi9WRGCVQwJyc7JQlJeNtIxsAT1+skSJzgefBxW8L4QoBbkVDj5/ueqpiYkuFJGWl6nw42Uq7HBKRFlhrnCGqntfKzq8PJSVlqC8rETkXDbkdP9eGdJSkhGlUiImMqLRUrxGjbt3A9F7+Nfo3K0/1m7ZVwErntony6BCBhUNBRUTbRzQ3r8AHXzz0ME3t8Wmjr656OSXh07++egUWAyjk24yqGiF7z7dd0RbW6ZTTWVkNL6Zv0H4qjAdPh1L1+8FTQL5DmiuCe7z9QQjIjoBkbFpiNSmyqk+9yA2DQpFBMKCg/Ty28mgovXNDfTdJ7YsULGsQj7+twsZIKAwREghKyoquUCDFx4/Aa7EZAtzD8mso6ZcUlpYK1KFkoKQghBis388DoQko+DeszixaSX3sTcwCRt84nE9NhvOCblwiM3GGq8EjLOLEuoKXSVF1eXR16Kw0EWDoPh0FLYiHwjshAgC0jOyMOmUtsJEQ5r4V83rAipo2mGuxMRTsUjPzEZcSiZQmivW2y1UClOQoVYaYZph6Z2MyWdiRbQOZXwm/rZTLcKSpmRkAWV5eFCUgwfFuaBJCpM6KVOoMIQZSdW2SetmSvxrdxRikl9UVTAkmypCjUv2Tjh/zREX7JwMPl20d4bt2Ws4ZnUWP1ifa7RkaXsB+4+eQt+RU2DU2QTGPQZj7Zb9AlZU2CjLzjT1FW3DUOptKKj4wtoOYpLvnY1O3llNmjp4Z6GDVxY6NnE9BBZGNs4yqJBBRav7SFFaUozvjp6C6bBpIKgY9uUiXLpyHdERKr1MdsNCZFDRYEAjg4pW93zqGxTou/6WAyo4+TELx19OpGJ4yhOMyjQ8JYWkqpAVFQ1mFOJEe20Olri/XElBSLHCMxbHwlLglpgHOsm8EZeL3YGJAnIcCU15DlRklt4XkGKsXSR23E3CrbhcOCfmCoXFSs8EjLNX1worJjioMepaFBa7ahCckI7C3NbjsJGOK6+FpOI3ayMq/EpIk/6qeV1ABc9ZqsIoGy1mX4rHoqvxwL08fH4yFu0WKPD/VqpwyD0JyelZeG+nWigyuF5ekCOgxW9WqDDCWotJp2LFOWNttVh8LQFJ6dmITsqE0cHo2mHKMhV+aq7CCocEPCp+3hP/vfJSWJy8AqPeY2DadzS69x/bplOP/uPQve8IdDXpgS5dTGHSc8gzWKEIl6N+dG3bqgpDBhUEE595ZaGzdwWk+NSrAlg0GRiRQYU8AWilkIa+KgJDlRgzZRm6DZuGrkOnYsXGfQJSVOdo+Xn1Q1M4l5RBhQwqZGWCvgGBodTfMkAFIcWicPzPsUQMjn9U5zCkEjho7lwGFQ0HFc7xeVjmoQUdY9akouB2OtYkpDgUkix8TtB5pmN8LvYEJmG5pxZLPbSoCiqoqFjmEY/hVyLxxfVo7ApIxu34XLgk5uKyJhtmbrEYZ6eu1bkmYcXIa1FY5qZFZHKFw0dDeZilduTk5IDKAWn9ZTkjfaRnZmGQZUztAOApgKCPipeafixX4WcrVcLUg8ACD56CivkK/H5jpHDY6R6Zhj9vjUK7hQoMtNAI1QWhhvB5ITnZZD5fgf/dEoWoxExoUzKFs81aFRVs52Kl8IvBEKolBc+AEs0o9lmcw0cdeqKLUTcYG3dvIakHjI2bJnXt2gPSF/wKWDEYqzd/h4C7AYhRR2LqlBlo396o8hjpWDlv/RDDUEEFAcWHHpno5Z8N6+RSBBY8wCp1oVBufOCZCaosGh1YyKCizu+Ul71z5P2GNQmTxgw7DloLPxWMADL4iwW4bHdTT6oKGVTIoMKwnhG5z9Lf72H4oIKQYrECv9sfi37q+xVhSNMMV00hm340DFLQ3MMjuQCrvOKw3ENbK6QgqCDI2BecBKeEXBHhg5BiX1Cy2E6IQdhRFVQkFt6D2Z04jLoWKdQThBV7A1NEGXSweTE6C4vcYl8aCYSwYsS1KKz3jIU2NROFufp7gKt2nhxw0EYwOTkFBQUFdRpY0qTCwjsZv1xdYbJRrW8KSVlRV0UFjxeAUSlUEbqg4s3NkfCLToer6hmo6P59tHDOufp6AoR5iFQfc3OlMAmh2UedQcUyFX5kpsTK6wm4V/QsAghBxUHLC/i0c2+YGHdDxSSdE/W2nHQn3D3QsZMJuvcfh+M25xEfq5FBRRtWVRgaqKCKgoCCKorZqnzcza+I5sS3zv3HT3AypRRDAnPxsWcmPvHMbFxYIYOKOr1Pqr6T5HXDGR/U9lsUFOQjNDwCI782R48RM4SywnzdHgQzIlR4eDObgMigQgYVLeO5qe2Zkvc1zm9o+KDCTIFf79Sgp6IMo7MNG1BIyg1ZUVF/WOGfVoQ13tVDCpp40BRkoVuMSIwCQuXEzbhcYe7hnJCHA8HJWO5RobQgyKgJVCy+E4fR1yKFaoJONL+8EY39wRKsyBXONmc7azDkcgQGP00jr0aCcELXZ4UwA7kahc1ecUhMf9EXgr46KDrGClNEYPXWw4iKjkVxUVGtg8t84cgyC72PamqO9KELDeoDKnje4hdBBRUVhBRMb22JRLtFCvS30OBJWa4wE6F5yHOwxFyJv+9UC/8UdQYVrHuJEu9ui4KPOl34t+BvQlBx4Ph5fNKxB4yNjAWsILBo28m0Ui1BlYlJz6FYv+2AUFRERzWdoqJTJxN88MGn1aYOHYzRrVsv0S7mRkbd8OGHn+GTTzrBxOSZAqS5VR0dOnR5rr0ffdShUdvDa/v444746KP2whRHugfNfZ1SfYYEKmjaQUgxPCgXZ1NL8eBx9e+Z5PJH2KEtRjffLPzHPbPxfFfIoKLWd4m+3nlyvY0zGeBHDkaYOmx5Dt2HT0fPUTPRZ8wsnD5/FYwQFR7aFCYeNZXZuKAiKjYNLSE1GE7oOtuUfVTI/VQrM1EzbFCxRImfb1LD5G4JxuS0DEghKyqqHzzWtlWVXYJNvvECLlQ196AZB7edisyAa2IBHOPzBUywj82Be3K+MPs4HJIizEAkx5p1BRUEDxKsOBKaKpxrOibkirqOhqXjYnQuLkXnYqt/sogKwmOfgxX2aoy2U2OPX7wwncjP5Zd7/abS4iKEKCJh1O8LzFm8DprYRBQXFVbbcTNyCdUURzyT8atVETVH+ngVULFIKSJ/UFEx7kQs2s1V4NdrI3E5KBWBmnS8sy1SKCjmX4kHo47QsSZNQRoFVDwFJcvs44Wz0LycHAEqDluexwdGg9G+62B0NB3aAtIQdOo+DJ17DEenxkzdh8Go1wj0oI+Krj2EKUzXnkOxYftBBAdVfEVTR0Q0uqKCk3GamMyYMQcXLlwSydb2FGxsTuD8+YtifeFCMwEneCyBxoQJk3Dy5Gns3v0devXqJ8x1pMl0c+RSO2bMmIvTp8/i4sXLop0//HAc/foNapT28J707TsQBw8egbW1LUaNGofOnbtWQqTmuM6qdRgCqKCK4iPPTHT3y8Z2bTGiSp45SK7tveKeew9Tw/PxgUem8GXxyqYgMqio9j0ig4LGAQWGcB+LCgoQGRWDcVOWPTUBmYEpC9bDz9cPqvCwZlRVNA6oEHBCmwpldCKU6oRGTCyvcctUxSQhOj5TAJVXAhYyqJD7KRlU1DY0qH3fufACtFsQ/vwkRHcSpLtsrsRP10Sik1dRhblHugwqar+7LXNvTtlD7LibAHP3F809GHaUAMMntRD3db6e0Uwkubgcrol5+D7sRUhRH1BB8DDWPgrf3orB4dBUuCblIbXkmZyYd7Xo/hOcicrCxOvqF8KYjrdXY6ydGucVySjMzxW+IegfQl+JITcVkRp0HzgR7Tt2w1zzjYiJTUBRNbCCDjRjkrLQ7UhM3dQUfD7ro6h4avox4WQs8DAP08/H4ecrVPixuQqLrsXjfmEOhltp8NamSPjHpCMiIROf7osWUUEaDVQsVeF/tkTCMyodvN78vDwoI9RwcPSAg5MXrreAdMPFBxeuOcLmzFWcOHut0dLpC/Y4anMR/UZPRedOxsKR5obthxAcFAyV+ILWdFE/6Btk0qSvsWfPPgEfkpKSUVxcjCNHjmHXrr2YPPlbUL3AiTrzESPGYPPmbViyZDl69OgrwAAn9tyvm6i8IFTghJt16O6Tlunrg/t5rLSNOc9j6tz52Xbhs8OkB4yMTLFggRnS0zPg7e2DrVu3Y+/efdi4cQt69x4g/IfwXN0yddtSta3cp7uf7enUqSu6d++NFStWY8OGzRgyZIQ4pup1sCwe36XL89cnbee+xkr6BhX0RfGJZxYmhebBLeceHj2p33su6/5jHEooQQ+/bAE72nu9gu8KGVTIE4BWNgGoCkeoqMjOysJhi1Ogn4peI2ei58iZ2HXQEhFKRTOGK311UBEVmw6FOh4+/oG44+EN90ZNfnD38G2cMj194OnlDzuHm7h+yxmhKi3UcekND8kqgwq5n2pl/ZRhKirMFfjRygh87JgnzD0MNQypZOpRNa+r6ce5q45Yu/0I1u/8Hht2HW1bide8+xg2OyuwzCu+Wp8U5h4a3I7PEyPTjAJ7+Md9i8i0nXjwMFNsc0vKhxT5o6oSoy6mH7rqCIYeneaowd30IlF2XqkfAuKmIzx5DR4/SsejJ0+w/W4yRj41G9E9d8L1GHx9LRwrdx/Hqk37sHLzfr2lNVsPYtGaPeg5+AsYG5mgU5demLd0E2K0z8OKnJxslBbk4HuPZPyEQIFJFxTWtFwXUMGyliox7oQW7hEVAKIoPwfalCw4q9Lw+/UR6HQgBompWYhJyoQiPgMZmVlYapeAn7Deqm1pqOmHdA1LlPjqTKwIh5qbkwXa4paXlYJQpyUkmqukpyZDHaFETFREo6UEjRoBAYHoPfxrGJkOhAQpKPOlV/fw0KYDFZxIEw7QnIPmHzdv3kZ4uEJM+LmNMGLgwGEYPnwMhg4dJQACJ+actFfAhK7imOHDR2P06PEYNmwUBg4cin79BsPUtLcom8dxss/9BB0sb8CAoejevY9QafTpMxAjR47FqFHjxT4eT1OLAQOGiPURI8Zi0KBhT00wesPB4Sb8/PzB8/75zw9Asw9O5HmeBBP69x8iyhs5chy4zO1MhBlsH9tDpQSvqX//wZXmLSyjd+/+4hwu81orclORDxkyUlwHy6WCg/eO11lx/RNEebyuxoYV+gIVDDdKMw+qKPbEliCp/JHolxvyH9lGaOEDzFDkg+Yj9F3RoFCmMqiQJwCtbAJQFVQIRWh2Fry8fDB14Xrhp6LHyJkiXOmFyw6IVCqbSVXxaqCCSoqImGR4+wXgtqMjbjs6wbHRkitue+yCo5stHB1dGlyuk5MTnJyccdvJGecuXMLx45b4wcICdg63hFqD19AgZYUMKuR+qpX1U4YHKsyV+JG5Ev92yBYhSEdltBwlhQQs6gIqOHiaPHu1cOrXpVt/dOk2oE0lI5O+MO4xBPOu3cUa/6QXQAVBw66ARKSVPEbJvVC4RPaAfdjf4RD+D6hSNtF1GuILH1RG/6gOVBwOTUH+vWcyYTrT1PVRoQsbxthVgIr4wscou6+BV8xY2IX9FdfD30dk2i4xPqbZyRfXK8xFdM+deFODsZfC0OvbpTAy7o0upgP0moy7D0S37v2FnN/Y2BSdjXtXwIrY+EplRVFeDpTxGfhsn/pFBYM0wa8urwuo4HlLVeh7LAYH3ZOw3y0R2xwTceBOIna5JAq/FFRVfLYvGtudE2Hlk4wvT8fi56trCI36qqDCXIlfr42AiyodBCZVB2eGvs6vXFqNBiFBQY06SCSQcHPzRJ9RM0VIUklJIYWea2pQQVghTfKdnV2hUkWgZ89+wsxDqYxAaWkpYmPjQLOQr76agqgotTC54Hmc7Ht4eCEhIVHAlrS0NJSVlSEoKFiAAk7ijx2zRF5eHgICghATo0FZWTkyM7Ngbr5cKDZUqkhRZ0hIGDIzM7F+/WbMmjVPOKItKSmBWh2N/fsPCShAAGBpaYOcnFysXr1OqDw++6yzUC7wGgg4zM1XIDExCSEhoaJcqkTmz1+Mjh2NYWFhiaKiImEaFhwcAldXN2i1WsyePR/0x8Hn1N7eAUFBIfD29hU54QqVHJaW1sJ2PDAwCEqlSpiG8Prt7a+L+vz9A5CRkYFr1+zF/SMYacmKCkKKbr7ZmKHMh1fePVBB1xj/yh8/weX0cowJzhVRQeoNK2RQ0eL6TkPv2w2tfcIZd1oaolRKnLtoh8ETFwhlBUOWTl2wXqjJqKyQ3hFNl78qqEiHIioezq5uAgY4ObvAzdkJHk6Or5hYhgvc/WfD3WsbPJyc4eHUgHKdneDm7Izbt51w5dxZ2FhawsrGFpZW1rA9eQq+AeHCDEQGFa3HrMrQnvWW1B7DAhVLlWhnrsDfLqRjRNoTtERIUVcfFRx7fTl7FTp0NIaJCb+a8Qta20nGXbqim2lvLHEIxBr/5BdAhbm7BsfCU1H8AIjLOoSbio9wU/Exriv+A3f1QNx/mACaKm/wjQdNRKqCCkYO2ROYjOyyuoEKKirmumhR9ABIL3DADcUHoj77sL/BVztJgJGQzHJMu60BoYYuqPj8Rgw+t4/CwCXbYNypi0H8jrohJzkJorJi5sI1CFepUVyYLwacS+ziK8KRVlUwVAcopG11BRU8XigrKqAFwQWjd4hc2sd1aRvzmtrxqqCC5ZorMdxKK647N6dlvfyaClQow8PEl7PvDlkLx5lVPbvrA1RQSfHFF18hLS1dgIoFCxbj0087YfLkKeDLipPzQYOGw9fXT5hhzJu3SEz0N23aivz8fMTFxQuVxIEDh1FeXo7jx62FeoKgIzIySsCMY8csEBgYjDt3PGBi0hMfftgely5dgVYbBysrWxQWFiElJUW0Q1Io0ExjwIDBYmBZVFQs/GWMHj0BhBVMBBzx8Qk4f/6CUInw+fPx8QWBC48jbOE/tt/UtBcmTPhSQBMbm5PCceaUKTPE9RA2EFRotbFCBbJly3ZxH44etRBmIFSO0CzG3v6GgC+8rnfe+QfWrt0gIMp33x0QYKUlg4oPPTMxPjgX6fcarqKoDWzcziqHkU8W6m0GIoMKGVS0si+VVScrEqhg369ShGHb3mMiAkiPkTMEsNi48wgU4WFQhjW1v4pXBBVx6QiPjIWjkzMIKZydXXDWxQsWrn4iHXf1gz6TpZsf9jv7Yd1VF2w5a4eDp87D2sYWVtY2sD1xEt7+oYhOyJQVFa38eav6/Mnr1Y/NDQdULFOi3RIF3rZJxtDkx0JNISkUWlpeV0XFV3NWo2MnOkvTnxf7xhrQ1rccRlkw7d4XS64H1wgqqIgouA+k51/ETeUnuK74ABI4ePQ4GxmlT7DOJw4rq4CK1d6xYGSQDT6JyCp9UDlmrU1RQVAx00mL1BIgr8QLt1WdcT38X6K+wPjZAB4gML0UU27HvBi+lKDCLhIDF26ESWfjRvuaWd97+uz4Kn9PJt3RsWNXDBs/HXe8A1BeWoTk9CyYHI6pABUShKhLXh9QIQEJQgomAoOqMILr0r6a6n9VUMFyzZR4b0cUNClZwrFm1RcCB2iMmJKba3iKi6YCFZJ5B7+eKUJDX/hKpi9QMXHiV0hNTYObm7swb/j44w5ics5tV65cw5w5C5CVlS18WRAy0Nkm//adnFyh0WiF+sLP765QXEi+IAg7Nm/eLuAA1QxUVjg6OguAcPLkGbi4uIl+gpCAkIQAgeXqqhOketav34SIiAikpqZi9er1AqQcPnxUtIntO3XqDGxtTwolBwtduHCJKI/hgufOXSjABBUfnp5eQiVCE5C9e/cL9QiBBwEK1SMEEsHBoXB1vSPgA6+F6gyaqmg0sUK5QQekZ8+eF4497927By8vb9Fmqjye9QcN91mhD9OP9l6ZMPbJwsKIAgTmP+u/KzvyV1hwzb7//9k7D/iqiuyPx7Wt7u5/XXWr7uquZRUbSm9BQERB6QpSBJfee+hNEBBQAaVJ7yBI7wklJCEB0vPSK+m9Q0IJv//nN8kNLyE9eXkv7533+Uzuy7v3zp07d+bcOd855wwGe6cp149GlY1XIaBCQIWZK04aqOC7gSCbQTSHT16oAmsSVnzUaww2bf8Ffj7eJb4zas7CoiZBhS3sbG0x5qI/WjnEo7VDHN6vdoqvdh5t7KNhfTEKzRziMfaIA7Zu3YotW7YIqDDzPlZ87Cn/lwwn9OvFNECFUlZ88I+NkegUnofPkpHv9pFQN7cfxQMz8kMrlDqkokVF32HTUf/dJmjSpIUaiOoHdjP3740bNUeT5q0xeNtpzLx8HTMdwopYRUy/FIo5TmHQJeUA97LgHT0Lp3WN4BjcGynZzgDu4WhICmzsQ5T7h2ZRMcshFAQVg04HYtqliApbVDCgZt/jgTgfmYW8vGyEJKzHGV1T2Ad+gpRsR/Uct+sSQKBRfKnSPqdC0GPPVVj3GIAmDZupmU9NQartbZOCIH2akkKFpXHjVujeZzjs7J3VrDMHI+mpSVhtH2l4iwrNYkKzqNAHFdpvhgYVBfJl5IGwEi0qCALoInD6nAOCQ8LUd30haezvhgQVZQ0sjQUqaFERHR2jFH62Y1osUGnnb4cOHcHs2XORlJSMGTNmqxgR7GN0GaFCTxcPulP4+vorVwjKUcIGBuRcsmS5ev6MhUGriO3bd2Lx4qWgFcKSJcswefJUFdiTEIO/M199hZ/58DfG1GC8ib17f1FQY/jw0colJSUlVQUD/fbb5SrPRYu+hY3NdHTq1BV79+5Xbip9+nypAAjzmTBhMgIDg9W1zp61U9YWjLFx8eIl+PkFqPsICAjCL78cLIQmDLg5aNBwpKWlq/tlOQk5uBoKrSpomaFfZk0OVHVrDFBB1w8G0Xz1QjzauyRjVUQW0u/oRVMu9a1a+g4uWbooOBMtnBLxhn0CeA1x/Sh/gGhs2SfXr91npA8q+G7w0/ng2PEz6NJ/Ilp3GwbrLkPRfeAkHDl6WsEKviPKeodUfV/NgQpb23xQMcQ+CPUdk/GeYxIaVDO965iEdxwSwW2V83JKQkOnZLzjnIZhx12URcUWun6IRYUAUYE1RdqAaYAKGx/8cXkI3vfMQefoPHQKv1unU5vQu5gcW/7AatqCVfj482Ho3Hc0ulha6jMan/YegT5Tv4PNhSBMLwYqCB4IIdZ6xiDhxl3k5WXh1p0w3MtLLhyNeiRmYf7lMHWcBipmO4Zi0oUQZfUw3aHioIJBMqdejEBUZm5B/ndx924E7uXFqf/dE7Ix7GywAhVF3D6OB+Lz40H4Yu1JdO47Rt3Tp1+MgrFS5z6j8MkXo9G2U2/QauU+pHBBZka68pHn4I+xGsJjEtF2XZBhYlRM1eHhGTr02RmCox4xKs09GYFn5vupQJu0onhkug4D94RijX0kOm4Mvu8WUtyyophFRaNVgZWzBJnig78t9Idr8IMxKggoMjMysfOXY+jUZyzcPHWlLudqrEGzpYIKxmag0q2BCs2iYuDAwSqmBC0huC8fHHRWcSFoUcGlTAktfH39VHBKBud8772myl2DMIGBO/ksZ86cixdffAX/+c9/8dprbyuXDa4qQghCqwl9UNGqVRsVEJMKf4MGTfHaa2+hf///KTcRrlxCCJKamoaBA4fghRdexksvvYZ69eorCwjew/79dC0JxWeffVEIpRnY09b2vHIPYYwJQg26vjCQHQFFr159FbTw9PRG+/YdlSUG41nQooKxOw4dOop69d5R5X/llTdUXehbgFQVTuifV5ugQotNMTMwA1+458eRqHcxAW9fSkRfj1TYJVc+XkXmnXvYH3cTPVxT8LZ9ggrQ2cQxEZ+6pqCLa7ICFhVetlQsKooMHo0lD+W6hoMXxUGFl4c7GMto3abdaN9zJNp0Hw7rzkPw1Zg5uHDRQcGKqsMI9zIgR82DimH2gQoqVBpQOt5fKYjnMhgvZUYb5yS1faeqwXkL8n33cgqGH3MWUCHKucjXUtqAaYCKaTr8ZqYvHv86AI/N86/z6dFpvrDeFFGoUJf25WZOLjKzbyIzO8dC001kZGTBPioN0+xDwbgSGnDQttMuMdZEJFxibyDhJhCTdQ8pOffjTngkZGG2Yz6smO0QClpi/O9kILof1d3zrQAAIABJREFU9seMCoKK7of9MNYuBEFpOYWPKi47DxEZQGQmcDAoBSNs8+FHEUhxLADdjwRgvF0IPEOjEHU9ChGR0UZNcfGJuOzqg/c79VMKVfc+w2Bn71Lg1pBSKAiTk5JwMz0Ze69G48nSglgWBwb8v6KuH5N9MHB3KOISktSyo+f9YpGYlIT5p66rPJ792g8/O0QpN4yMtCTMORmRH69C3+JCu74eqAiITMBb3wXmH6vtL2vL/Kb4YPLhcKQmJ6mkDXTTUlNUcNHdv55Em496oPmHvREQHIa8u7dwIzvLZBJXKImJilSDwgBfHWor+Xp7w1/ni8GDhqm2pK/A1tR3KvFUrulywRgPVNT79/8K6ekZ2L17rwIVdNsgnGDsCAYf46ocp06dxq1bt7B27c8YMmSEcuNg52UATK4UQmsGWk3QFeJ//xuqLB1u3bqt4j0sXfodaMGQlZWtjhs8eJiyqGD8CMa0yMjIKGJRwfIxWCavRTgwfvwk5X7CoJjh4eHo128Aevb8QllxEDhMnToTQ4eOxJo165RVB8tDlxAG7CREoZUHY18w3w0bNiuZw3LTSoMrd9Ddg1CGwTRnzJijlm29cOGius+ffloLlp/lzM3Nwb59+8HyE3LQlWXu3AWFrjA18YxqE1QwZgSDaO6OuQHb5JuYG5SBD1ySwJgVr11MQOvLSVgSkgVaR5T3uXcP8My4jVE+6UqZeNM+QVlpcJnSAd6pmB2cgQFeqeo3ARWGU3w1WSvbulHHxUEFIQTjUXi4uWHB0rXKBYSwonXXYRg/cylcXFzUe8nDvSzoUJV9pgcqKJ+4EhFl0vrrN3D95l1siryBdi7JoHzhfkLQCssTARWF41GRD3VDPhjrOZkMqFC+61pwvbq+HeOFpqtDyxtLyf6CGmBU99NhKZhyMQQEExqk4HaGQ6j6jb8zTb4YghVukYjJ0iwfAOeYdHUO94+2C1auGXTRKA9U9DkWoJYbHXYmGB4J2YXPIzQtB2PsQtH1kB8+P+qvrDO41YcUPJcwZOTZYFwL50x9CtLTUpFm5JR78wa8/YLQrH1vdPl8kIIUmRkZJcZeSE9JVn71vXeEwmq8T80tT2qjU/DjtHesioXR7KdA/MZGh+OeMQiLScQjM3zRc1sIrgbF4YhHDOISEkFrCxVYswKg4s3KgIrJOry81B9uIfHI0lvxg1YKVEj3/HoSH3TqhcaNmqHNJ1/i1xMXcPmqJ+ydXE0mXXJ2w4kzF7H/4AkcOHSyVtKvh0/C4ZIjgvz9DA4qCCtWrPhRxXWgos4lQxnckq4M3Me4DFxi9MCBQ8rFgQo+l/ukxcWlS47K6oBAIj4+QVkaEAYQbsyePV/FgeDqIBcv2iuIwZU/qPxzqVJeg3EiuJ9bggXGvzh48BBGjRqrYAKvz8TlQseNm6yux+OZzp+/gCFDhivwQNcSBrY8depMkTzpmsF4FAsXLlaxJLgsqRagk/f1xRf9VXwMHsf74v2vWbMeu3btQadOXdS9z5+/sPC6LOekSVNVnqwz3r9WnuPHTyoQouVfF0FFy8tJ2BF9A45pOXBKy8Ge2BsY6JWKpk5JSkmgotDbPRVnEnOQfbfk5UAScvPwU3g22l9JVtYYnPFs5pSI7m4pmByYjnkhGSr1F1AhikIpM3jGGpAb+7olgQrCCkJrF2cXjJm2RC1Z2rb7cDBmxfQFK+Dm6qr216xlhWmBircv5Vt2DfdOg1PqrcKxIr+4pt/GON90vHMp361MQEVcoeWusduzXN88AIjpgIqyZkXr2r7x3mi+NqyIMJN/yq6BnDt5+DUoSblxlLSKB4HFjEv54IKwYo1HNJJu5gdau3fvHi5GpmHSxRAFExhDomcFQEWPw34YeDIITjEZhYWLybqFafbh6HLQTwGPXkcDHohJQWBBSDHsdBAcgmNBhT/ZRFaSyMrMwBVXL3QfOBlnLziBkIKDj9IE9u2sFOx3jcGf5vpWzEqhIhYVk31Q/4dARMQkKkDw5CwdrMZ6Y/6pCMTGJ+LlbwPw0hJ/vPatP/ruClW/zTtlIFAxyUdBkPSU+9YUDJjJetlzkJCit1oCsmVza7T+sDs6dBuIj0wssUwdug5Ahy61k9p37o82nw7A0pWbcD0sxKCgQlOmGzRoplwX+D8VdoIGKvL8n9YM2m8EAgQHdL+gywcDbb7++tvKioDLkHI1kI4dO6u86PLB9PbbDfHyy6+DAS9pqTB8+BgVs4LXqF+/sboWtywDrR34nVutbNo2f18jdXz+uY2KHKftv59no8J74L3wHN6Hlh/vi+4lvAfel/Y77+3dd5uo++Rv3EfLBv1ranVw//f8+6hJSMFr17ZFBUHF9ugbsE/NwfmUHDik5cA2OQfLwjLx4ZUkFV+CsOLdSwmY5JeBa+lFg21eTr2FwV5pygqj/qVE5drx8dVkDNWlYVZwBuaGZBRuBVSYxyC2tHeb/F7551saqCCEYNDls3YX0G/ETAUr2nQbplxB5i1ZDXdXN+UiUnOwwjRABa0k6tknoPO1FGyLvomU2yW7dN/Mu4c9MTfxmXuKklE8r6LAQlw/Kt9OpW9bVp0JqDAEBBFQUaj4V+bLzTt52OEbD5uLIQpK6FtW6H8ntJh8IRgbvWOQVuAGknfvHvb6J+ZbQBz1LxdUcInRfscDcCb8ftTT+OzbmOEQjq6HfItYT+hbUvB7jyP++OpkIOwCY5CZajqQgsKblgLhEZEKVtC6oyxIoY5PTlKgpce2YFhNLGOJUK2fVBBUtFkbhOi4RFwNjscTdC2Z4IMh+8IQEp2A1muDYDXRG1bjvDF4X5iyqDAIqJjkg7d+CIBHaByy0/NhDeuDcSl27T+hIEWTJq2KrLrTvPn7aGaCieVq3qJN7aTmrVG/cVvMWPgjosJDawVUaEp6eVsq4h988LFyzRg7dqJS/GmxQBeIu3fvgq4RXAlk4kQbcMnS9u0/Vor+rFlzVQyJq1evKWsEfWBQ3jUteb+xQQVhBaEFLSz2xGZjnG+aWhGEcSvoDtLWJQlbo25Al3kHy0Kz1P9ULBiMk9Cjj2cqpgamK0BBdw/CCg1YCKiwrMGuKDflP++yQAUhhJ/OG8dOnEGfYdPRustQvN9tONp2H4Fvvlun3ENoeVEzsML4oOJdh0RYX07Ct6FZCMy+U6GhLN1BVoRno5mKZVGxgL0CKspvl9J3LbuOBFRoClhNbgVUVEiol3RQ1u08rPeMVW4g+nCi+HdaV9CyYpsuDpm3818itMrY5B2vXDW6HfIr1fVDs5Y4EJgMAg5+km/exkLnSPC84mBC//+eRwIw4EQgjvhGKQU/xUQsKTRBzjgQhBVZWWVbUugfn5OejBNeMXhmvm/5QSorCCoYpDM6PhEuQfF4dHo+qBi0Nx9UvE9QQfeuST6GAxU2Ojw6XYcfL0YiNyMZjMnBe87OysQpOwd88GlfMDBhyxb3Z7jzFVIu62jhqYU1GjRti9mLV5scqCBgaNGiDVatWq1W0XB1dYOHh6daBYPuEoQYtEDgMp+BgUFgIEpaWnDJ0WvXXMEVRWjFYMnwoTL3bgqggrDiQgpdQXLVdkNkNj5zS1HWEq9fzA9s1/FqMt51yA+WyWVHaUUx0jdNxaKYU2BFoUEKARWWPejV3n2yfbAdlAcqNFhx6MgpZbXJVUDadBuOD3qOxKyFq+DsnB+zovqwwnigggEzuUTyV56pcEi5hVI8zEoavqrfaHNxLf0WBnml4b1L5cMKARUPtkPpm1In+m1AQEVNAgotLwEVpQrxiuyglcRP7jGYdDG4SLyK4rCCgTOn2Idgh28csm/nB1jLvp2HH91j0fmgH6ZeCi+yPGlERi7GnwtF50N+2OqTgDsFLs48d9nVaOXO0etYQKmg4rMCK4xfdVEPBGbU71R17TthS0ZqMr7cHVr+cqUVARVTfPDW94FqVRGCChV/ZrwPJhwKR0RMAt78zt/woGKiD95fG4yI2ER1b9ozoTVFaPh1zFvyI5q1+gjNmt438W/RojVaNLeW1Kwl3mvcBrNMEFRQyabbA4NuMthkz5690aNHb3zySTflIqLvsvHJJ11VbAse06VLD7Rt2wFc3rMyirqlH2sqoIKwQt+64nTSTcwMTFeR999zSADjUNDc2to5CX29UjE9KAMEFPpWFAIqZPCrvQdkW3JbqAio4JKkvj5e2P/rMQUrWnUeArqBMGbF2OlLcPHCJeUmUr2lS40HKihHCCtWxd1DUceyioxe7x9z5AbQ3vcuGnneRhOXtFJdQQRUlNwWpY9KvWhtoFZBxR7PdFiN9apY0D5N6a+LWwEV96V1Fb/F37iN5deiMPFCMGY5hJYILPg7LSvohrHaPQ50HeEnPfcOvnGOhI19UVARmZmLMXYhWHIlCrl3848lpFjhGgPGq2A8Cn3rCf3vDKbZ+2gAtnlEgoo9V5DQOpE5bOnC4hoSr5bxVNYOpfW7ioAKGx2emuur3D5CoxPwyjJ/ZT2x60oMPMPi8Y9FfsoVxGq4F77YyZVBEjH1WDisxnjBaoruQflQbNWPcoNpTtHhsZk6bHSMVtYUxZ8PXWKiYmKxYNnaAliR7/7Rul0nNGzeAfWbtMO7TT4wqfRes/Zo0LwDGjT/0PCpWXvUa/Qhpi9caXIWFRo4oGUFoYR+0nfnIMzQ38fvTZtaC6Ro2aZSdWBqoEIfWDik5mDt9Sy0v5IEmmm3c0nCOP8H3Tz0AYX2nbEqxPXDvN5hxeW8/F/551sRUEFrCQUrvL1x4OAxfD7IJj9mBZcu7TIUA8fMxeFjpxXM8PHyKtEVxMfLs8Tf71tiGA9UNLmcjMaX4lFvky2+WrkJ29avxc51q7Fh7Rp4enqWO6INTL+Baeu24c0pS/HXcYvx0vwNaHAmtFRYIaCi8u1U+rZl1VmtgopfdJn5vuklRfYvTTGqi7+P90aTNRJMs1yJXs4Bsdm3sPhKZKmWFbMcQzHhQogKdsmYE1t1CbjLJUQA8NzLMZnQX8nuxh3g3PU0tY/H3Lh9F+s845SrSK9iq3roQwoCDO7/2fW6ghNpZQSnrKsClPCFASdnHr+uoIJVaf2uIqCC/Xuyj1p+NC8rBba6WKy6EKmCZtocjVD7Gq4IxIITEfjVLQbpqUnqmEF7QvHC4gJrC/3rVxpU+KD12mC14khqSsmBRNPT0xAVHYuvl61F01YfoWnj5vigywAsW7MbG3Yextptv5pMWrf9IFas34VvV27C0lWbDZ6+XbUFi3/YgP0HjyE0MMCkYlRooEK2lQMOVa0vUwUVBBYEFccSb+ILjxQwKn9PtxTMLsOKQoMU3AqosKyBbl19L9d2uSsKKjRYwQCbJ0/Z4quxcxWkaNNtBKy7DEH3AZOwZuNOeLi5w9fHG14e95co9XB1U8tR+3p7wavUZU2NAyoaOCbiA9d0zPdNwKvtP4XVE/+HRz7uh2c+G4pew0fjquOlUketHHkeik5Hw2FTYPX3l/DvL4ajUf+hePzxx/HMp/3Q8FwkGl9OecCyQkCFyKLa7ud17Xq1CiquxOfir8uDYTWeM6c+hk82eksuUnni/4a+7mQfBWO6/hJTqkCTHRWvgajMXHzjch2Ti7mBEFLQ9eOrU0HKEiLf4sFfBdQsCDuhLnLrThLiM+yQmOWEe/dyCi98Oy8P230TQMBRHqTocSQAq65EgPEfuMJHXevkFS1vdlqysnh46Vv/fBcQfVigfS8AFTudo4CcFEwleBjr/aAVhI0Ory8PwHqHKARFJSg3kO/PReLpebSm8Mbn20IQFp0Al8A4nNfF4kpQHE55xaLpj0EPgpLKgAobHR6ZocMmp+jCAJql3X9GehqiY/JhReNm7WD90RcICY8EcBe3cm+aTLpzOxcJsdEI8tMhJMCvdlKgP/x9dfDX6QRUVNIKoapQwBTPM2VQcSk1B4cTbqKXez6o4PKjM4NLd/cQUCEKQWnvAvk9v21UBlRo1g98R5y/cAnjZnyr3D8Ys4KWFe0/G4Vp83/A6TN2avlSnZcndN5ecHRwwuipi7Fr7yEVnNPb06ME6wrjgAoG4f3EPQOnYtLwUbfueL7lB3j/WjpaBAI2icAu/xiMHz0SBw8cKBxL8svPGzag4+S5aHQ6GC//cACfHrmGqYnAgjSg3sRv8NAfn8EbG23R9GqGgApZEthsdQhDydFaBRW38+5hg3cm/vFtEH430xdPzGbyM0h6UuXri4em55uSPzwj/3r5vxvmmryXP8zyxVtrw+CeVHSt5SJSTf6pVA0Ep93E184RmKIHK+j2MdouuIirBqEDLSFOheWv5JGcdRmOwb1w1rc5bP1a4mr4cNzIDVbXPhiUrI4l4NC3ntD/zngVXOFjqVMYYuITkZGSrGCFoTqjsfNNSUrCjfRkLD57Pd81Q4MT+tsCULG9AFRMORIBqzElgAqeM9kHv5vtixeX+CtLid9y9Q/Cwqk6PDnbF89944e/L8xP/yj4ro4pbnE1xQcvfRsA/8gEBEYmqPgXpbqnTPFBx42aNUX5A/OMjHRlWTFv8Y9o2XEg3Dx14BKvxn4W+tdncNSQ4GC4u7qWMKC7P1OlDRxrakvz3gBfXwEVAioQEhT0QNtj+2Dat2cPxo4di3HjxmH8uHGYMGE8+m45gkZq9jDpgYF5acv20Te8+PKkmqtHSVsBFeXLN305It+lvsprA1UBFXzf+Pl4w8XZBUu+/xkdeo1G665cEWQY3u86DD2/moJF361XsSv8dD749dAJtO0xAp36jMeajbuUtQUBRtH3lvFARUf3DByJSsUH3bqjcbv22BSZiZHXgcYeuXj3Yhwea94B3bt2RfaNG8jIA1a5+OHptl3w1MTlaHc1FaMi8jAn8jbmhWZiXhzwzoL1ePgvz6PehjMCKgRSmNTYsjx5YCr7axVUaNppWk4eLkfcgG1wFs6HZBsk2YffwBHfTDy/OFBZcDRfG4ajfpng74a6pm1INrzjcpCRW/Jay9r9y7byNeCZmI25l8NgYx+C2Vye9GII+h8PUG4fGlygiwbjSBwMSkfevZtwjRiDwx4v4oT3mzjh/QaOer4Mn6gZuJ2XjXUeSeh52K/I+Vo+3PY+FqCCay50CFUBGekWYSqd1pDlIKhwD41HveUB+cuV6kMKfi+wWFh5IVJZVMw6UWBRURwuaOcVrO5BaMFzC11K+J2/FU8l5TPJB41WBarnEHg9Af9dFpBvGaVdQ9va6PCHOb741TUGWWkVXzaWlhUR16NAlwcvHz/wf0PWcWXzFlBRO24OpmjRYOwyiUVF4n3Q4pyKplttYd22HaxbtoC1tTWaN2+OIUOGICYmRi17XNm+Lcdbxnu1rjznqoIKQga6cnh7eGDHnoPoM3yGiltBy4rWXYeplUF6DZmKVeu2Y+Gytfjw81HK6qJdzxFYsGyNghz+Om89VxDjg4r2PXvh1Xfexbd7DmDZ0bPoueMUWjgm4IWlu/H3lh9izjl3DArNw78X78AfrDuh60lPTI24jTnB6ZgbfgPfJAAjz3vhz41a4s+fD0cj+zg0ZvwLRz2Z4pgIcf0QGVBX5IOxymkUUFF5NbVqZ2TfysOry4JVAM+u26/jxi0BCFWrSdM462pcBmY5EFYEY8iZIAUl9OECV+WgK4hbwl3cyPXBxYCPcdyrHk75vKfSCe+3cDGgA7JzQ3EgMFu5fBBs6Oehfe9+JACz7EMRFJ2gYjcYq4PW+nWTk3A7MxmLzlzHo4QIxcHBVB0emqbD5CPhuJedgvO+sXj7h4B89w+6gBgiTfTB3JMRKjCmnS4WT8zMByaF0EMDFRN90LcgOGd6auVcdFJTUpCWmmpSgEJ79gIqBFQYC1gIqNBTKgRUmKR81OSkbKuv8FUHVBBWEFQQOJy1u4Cp83/Ax73HosWngwtdQugW0rb7CLWcKZc0bVMQgHPCzKU4d94eATqfgngWxgcVHfv0x1PP/hnNOnTE+527ouuXX+Gna/4YdTkUz7Zoj7+NW4z3LsXjuc+HotngsZgdmo05oVmYH3ULc6/n4PO1e/D0v17E/zX/EA1tIySYplhTiPysYhswa1CRdvMuXikAFZ23XUf6zfwlLE1D7ZZSVLYG8vKAS1HpGGsXrAJgalBB2xJUDDgZBOfY28i5FQD7wE9x3Ot1PVDxJuwDPkZ2bhi2+qbjM67kUcJypN0O+cPmQggCohOQYSGWFPqDPC5VyrgSzX4KfDBeBKHAFB8FJ0KiE5SryDnfWMw4HoEph8Mx5UjNp6V2kcrlIy0lCUP2hZUcP2OKD/483w/HPGJwM71ykEK7dw7StO+mtBVQIaDCkkDFjugbsE/NX460JJcP7Tdx/ai+YmpKck7KYvznWV1Qoblv+HozgKYHdu07jPEzvlXxKlqqZUyHo12PkYWggrCiXY8RaKVWC5mDA4dPgO4hDL7pGxgBv9BY+IXEVDr5h8XByy8UZ87awtbWFna2thhmH4gGjklq6dHiVg3a/4xRobl+tO3aHY3afYhzyTlwB+ByG3DKvA2XHKDr4p/wbO9RaLD6IP7VuAW+3HkcX0ffwdzIXEz1icc7PfriqedeQMvRNrB2jEfjKw/GptCuKRYVxm/3IntM+xmYNahILQYqCC7kU7drgIt6nL+ejoEng9DjcNH4Eowp8fnRAOzySwZwC15RM3HU86UC1483cczzFQQnrMSde7n4+nK0CqSpQQ5t2/2wPybZBcPrepyKSZFcRQJY1wVfTkYyNjhG4veMK0H3Dc1qgdupOvzGRoce20JAWIEbKcoNBLkF25wa3t5MQVZaEpbbRaqYF0VcSArKYzXBR0EMwoxUM4NLAioEVFgSqNgZcwOOaTm4kFI2rKgqqJgdnIH5oRn40isVVEw0haHcrVhUmCTIrevvWlMqf02BCmVd4ckYRzq4Xr2G7bt/xaQ5y9Ft4CQFJggo9BPhRctPB6Nzv/FYt2m3isfkF3TdqKCiXbceeK91WxwLT4BDVh40QOpy8x5G/XoOv/3vO/hL/cZoPXYaJrtGYF7kLUz3S0bTQWPwQuNWGHrUEQtTgPbeOWjonIbGTiXH6xFQYdpKsin1T0sti4CKuq23W2zpGTCz3/HAB2AD4cXEC2GIzrqLe/di4BU1A2d9W+C8/wcITlgFIBuuCTn46lQgigfS7H7EH2Ntg+EaHofM1GRYKqSgMNSU/dZrS1iFg3CAMSam+KDF6iAsOhOp4kLY6eJg61NzSctvs1MUum8Nxu9nE5roxbnQ4MlkH/xjgZ9aNSQ3wzStIqrzghFQIaDCEkBFowLf7cHeqdgbdwMOaflLkGoKQvFtVUAFlyXl6h9Ddalo65KMhsX8xcuEFQIqBFSY+cRFTYIKzbqCgTIZbJNLlX6/eosKttm2+3AFKuj6wRgWrQqsLdp0G4Yu/Sdg264D8A+OBC0jjGVR0erjTnijcTMcDYsvAiqcMm5jll8y/tS2Cx56+BF0/nYtFsQBcyNyMPSEMx7/vz+i5YjJmOGXhDEO/mh2xBNvH/JGowsxJcIKARUCKqozPrSEcwVUWKyqX/dv/HBQioovQZcPzSKC2+6H/bD8WjTScnmPjEuSqQAF/wtJu43JF8LQ47BfkXO4useIM0FwDo21aEsKTegR0nC50h0u0Xh0BlfrKAEQMH7FFB1+M12HJ2b54ndzfJXFA1f6qJFUkN9jMwtWCykJUqgy+GDoL2HITE1CcrL5vfQEVAiosARQQUhAWEErhw+vJGFZWCZOJ+XAKS0XF0twBakMqJgTkoF5IRmYFJiOz9xT0NwpsXKQgkBDQIWACgEVxVbnqNiqU17uHggJ9Mei739WlhMtPhmktlwhpPvAyeg/chZmLFyJTdt+wZmz53HtyhWjuX587JaOozHp6DtuIj4dOBgnIpNxKfNuoUWFU/otzA27iRcmLcXfm7fB4MP2yppiTvhNjLT1wAtNW+GfDZri383fx4vNrPGnhq3wdLuueHu3c4lxKgRUmN+YTRtHy7Zmnq2Airqvr1vsHdzNu4ddfonK3UPfOkJbsWOWQwQuRGXBP+UOfJJu4WhIOkbZhjzgMsJlTQedCoJdYIyKSWHJlhT6gjUtJRnxiUlotz6o5LgQmkUDIYZKXNnDECnf3aSI+4l27ck+eO4bf9j7xamVPvTLby7fBVQIqLAUUKEPKwgs+nqkYn1kFi6VYF1RUVBBQEErisE+tKJIQkOHfCBSpvVESZYWAioEVAioqBKo8Pb0hLurG0bZLMJHvcdg0Lh5mL5ghVqe9PjJsypPWl74eHlC58XVQ4wXo6LDlWScTb4Jx4zbsE+/XQgoNIsugtM5QRloejkZfX0yMDcsS8kXyphZIZmYE34Ds0MyMSswDTOD0tDGOUEF3SxN3gioqBll1lzGe3IfD7YHARUWq+abx43n3r2Hjd7xKrimPqygZQUBRJdDfmolkL7HA9D5oN8D7h60xhh4IhDH/KKRnpKMFDOcka+q4COwyUpPxkG3GDw2owxYoEGD2t7SmsJGhzG/hinAlGKmg0gBFQIqLAlUaAN6WlfUv5SorB+m+KfjWOJNXNaLXVEeqJgTnAFaUozzT0MX1/xlARtUJiZFcVghoEJAhZm+Y7QxgiFcP7R4FVecr2DnnoPYd+AoLl92RpCfrwqcmQ8mPFTwTS93zULDOKt+UD6875yEX+JuwCXjFi6m3SoVVDRxSkIfrzQlYxSkIKgIzsDs0Kz81T/CsjEhMBPWLilo6PTgsqSanBNQ8aBiqrVH2UrdsA2YNajIyr2/PGmX7deRnSvLk5oHnih6Fzfv5GGlW6yylOhVwnKjBBgl/f7Z0QAQYBzwiVLuHqkmuuqDMYV1eiqFRBK+3B0Kq4nFgmrWNpgofr0pPqj3XQB0EfHgSiXGrCdDXltAhYAKSwQV2kCelhXvXEpAT/cU/HQ9CxdTcgrjVxxOuIle7il4+1ICurulYCbhRAGgmBaUji88UtHaOUm5k2jX9viRAAAgAElEQVQxMLR8K70VUGG2MtaQ8rsu5W0oUEFYwVVA/HU+KtFyQothUfLWOKBCkxFdXVOwPCxTuZwRiOoH9tUsKpo4JuILj5QioIKBeglHKYcG+aSinUvJATT1ZY+AClHG65KMMEZZ6wSouMc1HO7ew43bebhZiRSTcQcvLw2G1VgvdNoSgdiMO5U6n9e7fZdXl4+p10D27TwsuxINrtrB1T/0Y1aU9J2rg9BFZKdnFFJTkpEqlhSlDkJzMpNhq4vD3772K9sFpDhIMOT/BdYUy+2uqxVBzDE2hfZCMDaoGPDl//DGG++iUaPmkiysDl577S3MnTMfocHBDygWVDyY9u3Zg7Fjx2LcuHEYP24cJkwYj75bjqDR5RQ0dix/oK4/aC/tOxUIworml5MwWpeGQwm0rsjF8cT7oKKHWwpmh+QrCiN0afjoarKKeVEtKwp9qwoBFaW+IzRZJdu6rXQZElSUDCQ0C4riW+OACsofTdYQRPzPOw37YvMD+xJY0P2jNFBBQME0wT8d3dxS0NQxERWRPQIq6nafEZln+OdXJ0AFLSNmnUlAi7VhaLMhvEKp3YZwtFofhifUSgE+ePZrf/U/f69QHj+Ho+XaMKxzSTV1HV3KV1ADyTdvY4FzJLodKhooszioIKRg2uh2Xa3skSaQoswBKCEOA2uOOBAGqwneRZcqNSSMKCvvST5otDIQAZEJZhubQnsBGhNU+Ol0mDZ1Jrp17YnevftJsrA66Ny5O1at+BFBAQFGBRUawKB1BdMHLsn4NjRTmWhrFhXdXFMwOTAdvTxS0MwpX0nQZki186u1FVBR5ntCk1eyNfzA3VB1LKDi/nLFhAzvXkrER1eTMC8oAyeV61kunAtiVGgWFVxJiHFwpgWmo79XClpezg/Uy1g4FZE3Airqbn8xVD+UfIu2iToBKtJu3sXHWyJgNc4rf0Z3sk/FtlN8YMWZVyo8BasDWFX03Ek+sBrnjfHH4wQE1KEaiM2+jZkOEehWbFUPDVb0Phqg4lmsvhqBhMQksaSooM/tjfRkOPrH4YXF/rCaaGRYMVWHh6fo8N25SAUpzD2uiLFAhTYDxkBoPl4MdCbJEuuAVhNaW9Df1qZFhf6An/CBCgRX7ujjkapWCKFSQReP9leqESxT33qipO8CKgRUVPB9WVcVDQEVReECZQ3BKOVLP48UFdj3SnouFoZkgKCin2eqsqIY7puGjrTgckisdLBeARVFldK62nek3IZ7jnUCVKTeuIu2P4fDaoRHPqwgsDB0GuMFqxGeGHkktg6p6VJU1kBkZi4mXQhD5199QTBBFw8mxqnodjgAK5zDEZuYCLGkqJxguZOZjOH7w/IhoQYAy7J6MNS+Cd5o9lMQgqISVbBPc39BGBtUaAqpbAsCvhW4PFhSfegDCu27dv+14fqhDyq075oSoc1c8n/tu3ZMjW4FVAioEFBRIrTUZELNbY3n+lGSzKBseds+AS2cEjEzMB10LWvqlIhPXVPwmXtqoQVXSeeW95uAisqNQ819vCf392B7qBOggnEiHCNu4BfPdPzinVE7yStDXc8zLke0/zpYA5EZuVjiEoXPj/ir1T96HglA/+MB2OB2HdEJiUhPebAziIAou04yUpPgFhKH577xgxUtjgwFIsrK18YHT07X4Sf7SORmmG8ATf22aGxQUXODz+J+yPJ/Xa7bskHFUTR0TkUjp2Q0ckoqTI2dktCYEfDrYnJJR9NtdrBu2w7WLVvA2toazZs3x5AhQxATE4PU1FRR5M1ckdeXy+b4XSwqilpUFIcM+e4gCQpM0KKC+wlHG5ZkgVXB3wRUlD3uNMd+JvdUuWdeJ0BFHdSTpcgmUAPZt+/CNT4LO72i8It3JK6Gx6mBpECKygkJTahyudKb6cmYfiwi36qCq4BU1JWqJo4jHBnvjbbrghEWnQiCE61s5rwVUCFAwxSBRtmg4ggaOacWAAkG1ExCE6dENL5MSEFYUQeTS5qACgERZv3OMWdQMcg+CG85puAdx2TUd0zGu04pICSobKrvlAImdZ62rUI+2nXfdMnA0ONXsGXrNmzZvAXbtu+Ao4sHAiMS4BcSU/kUGgtvb194urnWkvVL0fdzXFwc2I7MeUwm91a7Y28BFSagUEsRDFsDVPSSk2hFIat7VFfAchlQv4gENP0xCP9c4Id/LvKvvbTQD/9dGoDtztFgzIzq3ktdOV9ARdGBkCkq7ZZYplJBxfjxGLL0R3TdfAzdNh1Rqfvmo/hky0m0WrYFzb5Zh+aL1te9tHgjWkxeAOs2bWDdsmWhRcXgwYPFokIAhlm8j8wZVNhc1KGTQxQ+uRSJTo7R+PhiBD46F4qPzhs3fXAhAhMO2wuoEBliFjLEEONqARWG1ZEld2PXwL17SEtNQVJiogiBGngR0KqCq4AERSbgcmAcnGsx8XpuIfFISEiCOS9HWlzQC6gQUGGKIEQDFXt27bq/POn48RjPxGVKx45RaeLYMbCxsUHXAYPRqnkzWDdvDusWdTQVuHzQ7UNz/Rg6dKiAihp4txSXe/J/7c5asr7NEVSctbUDk62tLU7bnsOZcxdw8OwFbNqzHxu3bsfGbTuMnjZs24nNW7dj8xaxqJB+X/v93tTrXECFsRVpub5Ba+DevXugoseGbuqdsS6VLy0lCbSuqO1Etx1LghRsEwIqBFSYKqjgKihHDh16EFQUwIqJEybAZsoUDBgwANYtWqAVLRFatarbqQBSaKBi6tSpoLmzxKiQAXZdeoeXVFZzAhXe/uGwO38RZ87aFoAKO5yzO4ezZ2yxZ89ebNmyBVu3bDWZRNePTZs3Y8fOXXBx9UFguLh+lNRG5TfLk7MCKgyqJkvmxq4BARWWJ9TM7UUmoEJAhSmCCpZJ5+0N+wsXMHHiRIwZMybfmqLAqoK/0ZKiX9++aNGyJVoWuEto1gh1fctAmq1atcKOHTsUTBS/bHnX1PV3j7mACi22w+Wr7jh95kwhrDhx8gx27NiFjZs2KesFWjCUmTZvUS4ZW7dtR0UTgUOZeZZyzU2bWZatOHn6HHwCr8M/NLby8SkY00JiVMikpJlZuAmoMLYmLdc3aA0IqJDBY10fPBJUBAcFwe3qVXi4uUmSOjCZNkBY4XbtGn7++WeMGjUKI0eOVGn06NEYO2YMunfrhgYNGqBhw4Zo3LhxlVKTJk3QokWLaiVCBeZT1TIUP495NW3aVLm4hAQHIy0tTQbHZjY4ruvvjaqU37xARaxS+K+4esPJ+RouOlzGiTN2OHLsFI6eOFOhdOzkWezZdwDbduzCjp17yk08bteeXyqUd/EyHDtlhwsOLvD2j6g6pBBQIXLYDOWwgAqDqsmSubFrQECFgIqqDNhM6RyCivCwMPh4e8PXx0eS1IFJtQF/X1/QBWT/L79gyZIl+Oabb7B06VJMmzYNffr0Qd++fdGvX78qpy+++AKdOnVCx44dq5w++eQT9OrVC/37969yObR7YHkGDRqElStX4tqVK2DcHrGmkPeMKb0zqloW8wIVMYUKv29wNHyDo6ALilRbfq9I4sobu/YewMyZszBr9mzMmTOn1DR7zhzMmDEDa9ZtUNf1Dcm/ZkWuk39MtDqvypYU2gohYlEhsMLMYIWACmNr0nJ9g9aAgAoZQFZ10GZq53EQKUnqwJTaQBKXoUtOVq4PjNFAqJaQkKBiNsTExiI2NlZ9ZwyHqiQOUEJCQrBw4ULMnDkTs2fPrnSaPn06vvvuO3h7e6sBbFXKoX8O74nlSk9Pl7gUZjYgNjWZX9vlMTdQobmA0B2CAKCyKfh6Io6fPqdkDmPRUJaUlghmmQg2CDj8w+Iqfb1qQwqxqBBIYYYyWUCFQdVkydzYNSCgQkBFbQ/25HrS5iyxDegDFAKLmkiEAYQE33//PagocMaysmnSpElYu3atyocuGjVRLubB+7XE5yz3bL7yzWxBhWZtUMltUEQCTpy5oKwoCCHKkj3Tp09TMPXg0VMICI+vdHyJkMhkhEWnKrihAZaw6BSERCWD5YiMzwTBibaPW4KN63EZCItJvf+7WFSIXDYzWCGgwtiatFzfoDUgoML8BlVUNiriE85Bl8x6mt/zF0XJcp4pgUB8fLwKWFkVUMHZzylTpmD37t3IyMiQAayZDWBFFtSsLBBQEVOo8BMChEYl48Dh4wpAUJZUBFQcOX4GgcWAgj5cKP5ds/L4ce0mLF+xBt4BEQgIi1PlWLl6A9b8vBWHTthh8NBROHTcVsEK/9AYdQxdRsZPno6FS75TxyuLDAEVIufNTM7XKVBx9+5dNdjIyckxqHJrzMxzc3PVPfJe5VP9GiCooLJ68+ZNZGZmFhFgfClnZWWB7Uk/8ViaMbNzWMpAiPXA+6ZiYMx75jPJzs4u8Xlo5bp+/ToiIiLKfT58fuHh4YiKijLqPWnllm3NDqqlPs2/PimP6Eqyb9++KllUULkg4Dh8+PAD8l/aj/m3H3nGlXvGlgQqqNQHhMUr6wdtGxger5YFpQUD3Tdc3Hyx/LsfYGMzpVSXD31XkKlTbbDu500KGgRFJKo88vPUu05YvFqZQx9YBF1PxPrNO/Few8Y4eOwsImLTYe/sgXpvvIlpM+Zi/+GT+Ns//oGhI8YqKwrmyWM2b9+Hxx5/HD0+/0JdUwEOARUy3hNQUXnlMTAwEEzV/fj7+6NRo0b44YcfqptVqedzYGRvb18j5S31ImXsWL9+Pd577z14eXmVcZTs0mqASq2Hh4dSsLXf9LcEFRzonj9/Hj4+PoUz8Xwhc6bO3d0dZ86cwcGDB/Hrr7/i0KFDuHDhgsqP8MISBjq0TmB7Y7tnXbFujHHf2jO5cuUKTp48Wfg8zp07p8rFZx0dHa0C9DG4HiFEabOkhFKUF+3atVP+pZrJtzHuS65ZucGy1JfUl9YG+D4mcNyzZ0+VQQVnQU+dOlWqrNCuJVtpd5beBiwJVOiCouChC4G7TzDcdSFw8w6Gq1cgrnr64/I1H5w4cx7fr1iFGTOmY+aMmcqqgnFyykqUNdy/acsOXHL2wBVPf1zzCoSbdxDceB0fXi8EvkFRCixosILggcdNmDwNW3b+gqjELGzZ8Qvqv9sAR06eg539FTRu2hyvvlYPx0/bF7qIDBk+Gn/609MYPnq8gAozU84tXRbp37/BLSr8/Pzwl7/8Bf/5z3/ULLW+ElnedyqZVFquXr2qDtXpdHjxxRdVYK3yzq3ofl7DxcUF165dU6dQ6f3yyy+xadOmimZR5Li8vDw4OzsX5ldkZwX+oS/u888/D1dX1wocbdmH0Opk2bJlsLKyUpHmS6uNLVu2qGM+//xzZV3BwS8V3NDQUHzwwQeqfX700Ufo3Lmz+v/ZZ5/FmDFjEBAQoMCGsRR3/Y5qqO+sh6CgILVs329+8xs4ODgYbUBPyxeW5d1338VLL72knkfbtm3xxz/+Ub38CR8YyI6QgssNhoWFlVpWHuvr66vymjhxonqOfO6GqkfJV5QcaQM13wZo2cY+v3r16iqDCs54njhxQllqyTOq+WckdWo+dWopoIKWBw7O7ti9dz927NqLXbv3YfvOPdi8dRvW/bwBK1auxPff/6DSihUrUZn0w4oV6rzvvv8Ba9atx6at2wqXN925ay+Yrrj7Fbp3EFZorh6Llq7AqLGT4OkXhkk2M2AzfY6KUXH6nCO6dv8Mzz//T/Xb9bh02F26imEjxyqXkEXLVqgVTcSiwnz6osjV+8/S4KBi1apVSkmkMrl169bSdMlSf6dyySXO+KES88orr2DFihWlHl+VHT179lTLllXl3JLO6datGwYMGFDSrnJ/27Bhg4I6bm5u5R5r6QdQyW7Tpo1qX7S0iYmJKbFKuJwc298//vEPZS1x48aNQlDRqlUrdO/eXf3Pk5nn9u3bFRBr3LixmrWnAm2uQuPWrVvYu3cvnnzySVVHmlLPAQsT3UF4jJbu3LkDuidRgaCFA+tLv25Yt0z8jfXG42/fvq3O5/9M2v/MU9/dhPtoeVW/fn1lBcHnwf0jR47Ev/71LwUtmW+XLl3QunVrBSoIJJj082S+tIYhJGW74EoBBJIsS/Fr6pddvt9/MUhdSF0Yuw0QLFImEJ6yD5cXzK40//HJkyeD71XmV5HYNsa+b7m+9D1jtQFLARW0YDhz/hI2bt6CTZs3Y/PmLdi8hWkrtmxl2oat27ZXOzEf5pmftmDTps0qOV7xKIQTmlUF42Hs3n8En3bprqwqBgwaitXrtyA8Ng1HT53HtJnzMG/Bt3i/zQc4fNxOAYsOH3XCnPmLsXj5KvgEXs/PU1w/ioxJjdWX5Lo1J8cNCioYrbt9+/Zq/fImTZrg008/VUoOFRAqFrt27VIzHVQitM/OnTvV7DihxPjx4/HPf/5TKSljx47FsWPHlBLzxhtvoGvXriAQYKJiqX0YNEvb16NHD2XyT6VlwYIFIJDQ9nHLNZFHjx6tLBheeOEFjBs3TimyDL515MgRLUssX7688LwhQ4YohZhuBIQRvD7zmjt3rjKfZzmfe+45aPlxSTSagvEYJl4vMjKyMO+zZ88W5s39b731Fv79738rd4bCg+RLiTVAc2DOvg8bNkxZRbA9Ff84OTnhnXfeQb9+/RSo4OwaFVvGZKBFBRVeKr50KeCgmINZfnbs2IEnnnhCPXv+zhe4uQkeDto5W9m7d28FfGhV8uabbyoFn3XEWBBsrx07dlRWDLQ4YR/u27evggY//vij6pOEFlpe33zzjeq//I3uG4RAtIBgHpzVpKsN2zn/Z5o/f74qA+uYiaCCrk9UOghC+Dlw4IA6lpZPdE3RQAVdPwhN2Fc//vjjwjwJN2l9xedLEEW4yTJo5Zg3b17hNc3tmcr91NzLUeqy5uuScpQytrykyRO65XFp0vKWBtT3Ey/+nYCD72DKkbi42ELrqrLKYI7yXtpzzbdnc6tTywIVDti0ZWs+qCiAFPehggYXanZLKMLkdNXzAVDBuBhXPPxVYMx+Awbhq8EjcNlVB1pP0P1jwpQZOHTcDt169ELfL/+H9h064pulP2D9pp34etEyARXi+mF2OoomXw0KKhgA6/XXX1euGxs3blSztqdPn1bKB2dKaV6/ePFiNdupfgSUYtSwYUMVP4BuHzTN//DDD5V7Bl1ACCk4O04Fys7OTrlp/OEPf1BxBjhr8t///ldZXPDc//3vf2jatCl4TZqK8zwqMTxv1KhR6n9CCSpMVHSoCHH25m9/+5saHBGg0LWA+XMddp7HwQ4VpBEjRqi8eB0G6qJLyoQJE+Do6Kj84qmMHT9+XMERQhrGPaCvPZWwQYMGqZlixkXgLD8VP+at1RF/8/T01KpEtiXUAGfG+SzppkOl2NraWimlnM3X/3A2jfvoxkGFnM+J8RgIykoCFewYHCRzH2f2CaK0Aa3Wacxly7oiKHv11VfVjCNBwu9//3ssWrRIAQCCRu5nO+WWysJDDz0EGxsbEMDRUmXlypWqvmhZwaCVHTp0UIl1SHNt9jm6cezfv18FxGvWrJmq08uXL6slB2kpsXTpUlXHhCMaqGD/Cg4OVue99tprqm/xObBMBBXvv/++uh5lzN///ncFULS4FgQTLVq0UH2K8oNl+OSTT5SfOu/hscceU/dA6MFymsvzlPsQRcTU2wD7HC3fCEj1E2UHZS5l88WLF9U79aeffiq0pJg5cxZmzap6IrxgHnyPE2zyXc/JBsJY/XJo3xm/yNTrUson/b2m24ClgAoG0vTyD4ed/WWctruEM+ccainxWpdUXAy1Qofecql02yCsmPP1Ijz66KPo03cgfAIjERGXrlb7GDV2Ai46ueH7Vevw5JO/Q5t2H8LNJwRcGWT2vG8EVAioMNt3lsFABWc6OZtKxYQfzpbS959rmvNDRZNKAwNj6ltUUAmiEkKQwc9XX32FwYMHq++a6wdn0LVz+NvLL78MWjLQgmLo0KFqoEOAQJN2WifQ8oG+7pxRpTLED5UemvYTWHC2nVt+GICPig5niwkLOBvPAJfFP4yPwEEXZ4g5a0+YQiWNyh8BCU3oL126hJYtWypwwrgVTLw/xuygUkiXloEDB0J/hY9vv/1WlVlcP4rXeNH/CYT++te/KmWYezgA/d3vflcE8HDgSyWcbYIftoff/va3ygKHbgCMcVDcooIvfrYNDpwJuWiFY46ggnCH98V+w5godJMgvCGcYQBK7uMxmlUD+xmtE9j3qNyHhISovrl27dpCUEGrFPZ5Jh6zZs0aPP300wrAsf5pPcH+QAsoBjdlgDv2S/YxAgr2HV6H7hq0SKIc4HfmwefLPKlIEFTQ5YfwiX2e1yPAYPnZlwgECSzZB5k/LUUIF/mhJQ3bA4EhrS6Ku67U9MBP8hNlQtpAfhvgGIBwYNPmLdi+Y4dK27bvwDaaWBeYSG/ctBnrf96ANWvX4cefVmP1mrVYu259jSTmuerHn1TeP2/YCF6LM6g08Vbl2J5fJv5/7PhxBVQoB+X5SR+2lDZgKaCC7hb+oflLgGquF6awDY9Jxd4Dx/BB+4+xded+hEQmIyQyCafPOWHBomVwvOqNq54BGDRkJFas3qDcQjZu26NghS4oUlw/BFaY5fvKYKCCMyNPPfWUMs3nzCpnR2gNQaWEMyoEDTTvpjKj/6GJJhUUTUEiRNDiPRAiUPHkDKz2oTLF2VMqL7REoOJJ5YUz4VQye/XqpZQczqpzllb7UKGh1QPz58y8psxSeeE1GFuDii0VHg6u9D9UdmilQbcWuh5QUeJxtNqgcky4QosPzkw/88wzha4dLNNnn32mQAZBRYMGDbBu3Tr9rEHFjzPQAiqKVMsD/3CG7OGHH8bw4cMVrKBSSlBBFxztQwsVBojkbDpn/mkCzDbJ580XMmfTSgIVVF6pOL/99tsKplFBNrcBK9sw75HWCrRIIERgIFfCiD//+c8KIhAcEOxxKVBaJlDp53dCRvZFAkQGnaUCwjojRGDdaqCCsI+gkKuJsJ+yvzCoLl1ICA35XNhvCUsIErQyESIQ6LHeOUCk1RWtnOiCxWuwH7EsBH88lqbhlBd8pjyH8oWWUsyDfZIyhXnzGRKg0j1Ms6ASUCFKiKUoIca+T8oJjgvWrf9ZwQoCi+JJM72uKR/xkvzM9f3Gi1+f/2/YuBm79+zB9chIJbeMXW9yfZFRtdUGLAlU5MOKWLXcJ60bajOVBUWUZcX1RDCOhnYcy6YF3OQ2+Hqisr7Q7kHbp46XGBVmqazXlgwwxesYBFRw5QsqDzQjJwCgiweVEZqKP/LII2AcCn7oAqFZMmjKZf/+/RWooJLED0ECrQ744QwqIQIVF+3DSqUywvOo+BMuFP8wL7pfsCya9QKVLSpMdB2gcsWZYn4IKjSLCs7M1qtXT7lt6OfJFUI400tFTQvgSDBBaMFZepaX8S5oicHjWMnFP1ScCE+oIOp/lixZotwTBFTo10rR7zTL5cw/XYQIKNi+uCVYIAzjgJgWOYynQOhDQKW1Q7YVWvbQ4oYWAAQVBFZUgKmUU3Fl+2WsBUINmgmbmzLLwQjvdfPmzcodi2CB/ZDQh/3h8ccfV/2VsV14HGPFsG/Rwoj9hm2XoIIWRISNPIb1zdgrhIYEhAQTBBXsP2zLPIauNwR1zJcfWrXwQ2jJMvG5aa4fBFE8h32X1yOY4PmESywv/6fSQ+sPlo/X5zV5LPOghRP7JPsY9/N3Jh7H9kJgyvPN7dma4ktGyiSKFtsA+zddxmjNQFhgqmnT5q3Yu2+fgAqZnbQ4hcfSQIUGAkxpq0EJbu+XKx+kaP9rUIX/639X+wVUWFy/NfcxlkFABc3m6fJBBUH/QyWHv1OZoYJApZwBC48ePaqUQwYwpGk+Z3U1UEHlhC4SVGZons4ZWkIQ7UP3C86q0n+VyhZniOl/yuOZB/3Waf1AM366ZOiDCs6qMm8qPrSC4Dm0nqDZOWeXOTvL+BVUbjnjSwWWSx7SDJ0BM+lnzw9N2Wk5QRhCiwrGnKByTLDCshGEMC/mT5DBOBd8ITCmBc3uaV3BvKnQ8f44o02XEvmUXANcbpTPmfFE9D+ECrSq4Cw/3XFo5cI2pf+h/zNBBZVYWgfQFYHPmEo2Z+WpgFNhp1sJgRifm7lZU/CeeL8Edbx3gh/twz5DKyS2S8IczcqC9cZ97G8EAjyH4PFPf/qTcrUgBGBkfsaD4Pm8Bq1Y6JbFfNj3CUY06w3uZz7sm7RwoOsGZQIhAwPK0kWM9U6oQasjrkpCtygeRwDF58Z7IFBif+FKQAQbFNjsf7wO2wlBFJ8l4SjLyICrjDlDwMLrmduzNfcXltxf3YUeFbGoKMnCobZ/o0XFnr17BVQIqLA4hUdARYweHKij3wVUWFy/NfdxkUFABQPccXabwKD4Z9u2bQoaUImn4kClhgolfc6ppNMKg+BAAxVcrYOz4nT/oCJKBYVxLbQPHxBnV+mqwVlxzuZS0WF+nE2lIsZYETQ1JzjRBxVUtPgbFSwqVIQVDIxJkML8+OEMEP+nZQTzZP6cWabVhHYdBmikgkxTdipwdPmgVQbzo9sLYQXz4PnMhwEeaYJOpY+WHDyW+1hnVMiYb3F3E+1+LX1LxZVwiRY0VH71P2wzBFt8pjT756w62wd/Z0PnS5jKMa0r+BxZx4RIDOjI50OlllYahGkMIEnFlwq1uQkBKgy2trbK+oRWP7Qy0O6RdUVwyHZKlwm2XYI79jH2PSa2fVoSeXh4qHqjFQvhIuEAIYAWx4J5Mw6Mq6urqkv2Da64QQjC45kYbJfuXwQGBAeMfcG+QMspXotuYOxfLAuPYR9nv2W/pnUF82SsG83ti8+RcoQAhHmx3xOG0uWE8oCyhMBSE3zafcu27irA8uzqxrOj7A0JCYWtrR3On79gsuncufO4cvUq4uPj1DtD2lfdaF/ynKr/nEwHVLjDy9MLXl4+8PLyllSpOvCBp4cHPN3djZI4mcR2JJ6QGXMAACAASURBVP2x+v1R6jC/DrXxur6+V9p3q9J2FP+dM9NUKmhBUPxDywEqgAx8xw+VTSofnN1mA+d53K+dS4WeyggVIypUVGY003Gez+P0f2N+NOlnflRk2GF4TR6jxb3QysTrUDHTrsFylHQNnkcrEeZJuMAPzdZZppLKreXH+9HKx9lfHst89MtBcKLdP8vN+6ciqQEVrayyza8B1icHvPp1qF83bBsEYAQMfOb88Hg2dHZ6Tdnls2C7YhuhFQWVblqxEEJxH/PneeYoKNgn2NYYuLL4S0V7wbAOaB1ECwetflhHTHSP0gQH2zNhHuuOFk9cqYN1ynpj/2Ae7DP8n8+E+evnx3PZ/rXrMl9aHdFySXsmvB7383lyP8tGCyd+Z1/hPh7PMvAcloFtgL/zOP7PPLifW5aH55njs5V7ksGBqbcB9ltTT6Zeh1I+6eeGaAN8Z8bFxhpFwX1AsXZzg6ekqtWBkSAFn2HxMaUh2qnkaVnyj+MF6g8V+VQYVFQkMzlGaqC2aoBwgg1dE24EEJrSrAENKsFa0pRf7Xhz3LJOeL/cFr8/DlZYB6wbbrV60bb6Sn5J9cffmCfzLl6X2nW1vEoqQ0nX1C+nVi6t3CXlyXvg/pLyMlcApdWHbC3rJV7Xnjf7Zl1Ida1epbzS76vbBtgvTQZUGFHZfgCaSFkqDK8EVIgcqq4cKn6+gIra0pblOkapAVpgUJHVBxXFO4H8L4JV2oC0AWkD0gakDUgbsOQ2IKDCOO4S5gRGBFSIDK1pGSqgwijqs1y0tmpAQIUIzZoWmpKftClpA+W3Ac3SSd8ayhj1Rguq4pZdLAeVMv6uWViVdpxWZlO5H608si2/DUodVa6OBFQIqKguNBFQUbk+JzKq/PoSUFFbGrNcxyg1IKCifCEgglLqSNqAtIGabANU6hkLhgFtOXA1JqxgTBsm/fujQsbBD2PoaDF1GG9Hi2ulfyy/83jeD+PnMKZO8f3yv/Qfc2gDAioEVAioEFlmarJMQIVR1Ge5aG3VgICK6gtdxpFgcFctMRCuMRUPUxOiUp7qtzGpQ/OpQ8oGxpHhcsJPPfUUfvzxRxW0mkpQbT5nloNpzpw5ePfdd9XqQwySzEEPg2Zz2eR33nlHLZNOy4rp06ejfv366ncep19WBt1eunSpWiGKSx1TJtb2/eiXR76bT38xpWcpoEJAhYAKkS2mJJNYlloBFWfPngWTfKQGarsGBFRUT+hyZRyuDsLlepcsWaKUj5UrV6rVNKgEcD9XwKHZNIWJqQk4KU/1nr/Un9RfZdsAZQItKbjMs5WVlVommpYIVO4pI6j0Uy5rie8Efud5XK2H+/UhAH+jjKG8oZzhd+0crvLEYwlPtfwIVLWAvgQOBw4cUEsUEzQQUDAf5vndd9+pZZDt7OzUKk9cNpzlnTFjhtrP43jvLDdXPyLs4P6tW7cKqEiSflHZflEXjhdQIaBCQIXINlOTVQYHFZy1ePTRR/HMM8+o5QrVCEP+SA3UUg1w8MoBpyjRlRe+HOz7+PigQ4cO+O9//4tRo0ZhyJAhmDBhglrykwrFxYsX8f3336uBvKYcUMixzvWTvuLB78X3lfSbJiyL7+O5+vkVz0s7T7aVf+ZSZ1Jn1WkD7JdU7KnM16tXD23btsWf//xnHDp0SAEIyohdu3Zh6NChKo0YMQKTJk3C+PHjYWtri3PnzuHgwYOFSxazb/O3ZcuWKThKAMLvU6ZMAc9du3atuh5B6rBhw1RasGCBkk8EH7SU4BLFrVu3RvPmzZXrBpcPJ3iwtrbGoEGDFPxguWhRQRDxyiuvKKsKDZgQhvCajzzyiBrL7NixQ0CFgAqzhPLsv7Lqh8CK6sAKiVEhY4jqjCFKOtfgoGLx4sXq5f/QQw9hxYoVpaqneXl5akak+AFUNLmvpE9Zv/O84p/SrlH8OPnffGpAQEXVhCYHLBy8c4Derl07uLm5qUah9UfObHIgT/PuF154ARcuXFAzotp5PJfChX7dFDz6QeuofHA/t9yvncPjtP95vHYcv+vv47m8Pvdrx5V0nZIEnvxWtfYg9Sb1VpE2wH7JGA7dunVDr1694O7ujjfeeAM9evRQ8oAQ49SpU0puEHB+/fXX+L//+z/85z//gYuLi/qfMJRwgXmxf3MM8fe//x2enp4KIDz77LNqTDFy5EgFPQg6/vnPf6pzafX1r3/9SwELDpgpK2hF8fPPP+Pll1/GmTNn1HjiyJEjKs+NGzcqCw3emwYqCCtmz55deK6fnx8aN26srvnEE09AQIX0hYr0hbp4jIAKgRTVgRQ8V0CFyMealn0GBRUcbHAWY8yYMejYsSPatGmjlBlNDSY44CCkUaNGah8VIs7Q8hMfH68GN61atVL7OPPBDsBz6EbCgQPzo3np2LFj1WDEwcEBLVq0UL9ztoSzLTyeMzgsB49///33lSmoVgbZmncNCKiomtDkgIVKAt083nrrLZw4cUL1MZpMU4FgX/zmm2/U7OPvf/97NGjQQM2icj8H9l26dEGTJk3UrCX3UQYQJjBPAksqL2+//bbqj1QeaKXBPs3+Tj/xH374QSkKkZGRGDx4MBo2bKj20af89ddfB5UUBr+jwkGTbPZ3HkM5QTNzXqemhaXkV7W2JPVmOfWmgYi//e1vKqYD3y7sv4xVQdDA/XTH0D4Eoe+9954Cnbdu3QKtIcaNG6eCX2qggrKAfd7b2xvXrl1TUKNz584KlDo7O6sxAN06KA8ol+bOnQte//Dhw+oYgorLly+r87iP8GLAgAFKblBWafEoeF2OE2ipwTEJr0U3Eub9/PPPK/jx4osvYtOmTWJRIRYVZvl+EVAhoEJAheW8r+vK2MygoIKzFa+99hp8fX2xb98+/OY3v8H+/fvVGIUAYfXq1fjrX/+qgm0xKvfVq1dBxYQmm59//rnyH3V0dFSDFu7jgIIzt1RIOKChUmRvb68GHJxVad++vRrkcKaVg6Lg4GD4+/urQcfy5cvVi4X50HxUPpZRAwIqqi50OaBnv2RffOmll8A+RAhAU2j2sejoaMybN08pEb/++quyjODA/4MPPlCzl8ePH1fHczaTs6aEERSMU6dOVbOTffr0UbLh5MmT+OijjxQMYb7Mk1Ya9C3/6quvlNLBWUyaa9N//OGHH1Z+79u2bVMwZNq0aao8vB4VGh7D6zCvuiKIpZxVb6dSd6ZRd1Ry+I6mG8fjjz+urBLozkFLhT/84Q/KRYygQjtu3bp1yhJi+/btSqZQ3ixcuBCMFcFxgAYqGIyTbiQaqKBlBC0x6MJB0EEIQlDJSQi6ePA7ISnhKsvDfAlJadVB2URowf0zZ85U+3kdtqHRo0cruXLp0iUVZJNQgzKHQJWwhe4rBBUc12j3IW3PNNqePIeaeQ4CKgRUCKiomb4kMqnm6tFgoIIQgeCAVgz8MAAWzTs5W8EPlRzOoHKgUfyzd+9eNTAhVND/UOmkUsKByE8//YQNGzaoxMEJBxC81scffwwPD4/C07jcWMuWLfHll18qc9LCHfLFImpAQEX1hIVmmUArCFoucIDPmUr2b842EjZqkfLZoDZv3qwA4+nTp1Wf53FUKKgUEDASIFJxoak2ISOD4HEmlQoFFQEqJQQZnMHs16+fsubYsmWLuhZnRqlwdO/eXSklhBi0wKD7CX3UeS7LR1jBAKBUUORlUb3nL/Un9VfRNsD+xkkAWmDxXU+rh06dOqntX/7yF2XtGBMTo/o8404wFgSBA13IeC6BAd/vvXv3VqCCv7HPc1Li1VdfVfFyOCbg5Aff/5QdDIhJ6yxXV1eVDy0xmQ9lDs/nAIflJ1zds2cP3nzzTXz66adKFtEag8BBAxW0+uJYgXnQWoz30b9/fyWLOEFCoPrcc88JqBBrCrN9rwioEFAhoELe+RV959fWcQYDFRwEPPnkk2pQwZlUJs6EMNElhFYWnKWl6XbxDwcJNBenGaf+hwMTwg8qRpy14cCCbh8c3DB4FwcrNOlkvrweZ3/5oULEQRMVGM7WcqZVPpZRAwIqqid0OXDhQJ6gkRZK9B+ngkFFg6CCriF0x3ByclKKA2chOcBnEE4qIBQwVDaOHj2KgQMHKqspBsJj/w4ICFDAg64f3EclgNu+ffsqSyvmQ6WE7mDMg9CEMuGzzz5D06ZNlck4ZzsZRI/B+Vg2mm/T951m4GJRUb1nX1svIbmOeTwn9vc1a9YoSKFZTlJuUAYvWrQIdBH75Zdf1Lv/k08+Ub9RhjARVvJ8Tlw89thjCgbwDUUwQUhBsKnT6Qr/p9zheIAWl5QR7P+EovwQhtCaQh9WEkjwf23lDsoYyjXKCA1U0KKCrh+cROG1aMXBeBWUSQQfvCfGyuAEiVhUmEebFdlT9DkKqBBQIaCiaJ8QGWH8+jAIqODAg+abdOvgwIOzH5x55awqByGMHcELU9mgOXnxDy0qOEtCH1H9D91FqJQwSFdZH8awoNUFoYU2eOFgiQMNKj8MlMX/5WP+NSCgonpChgMXAgImKh0EBRzA071CAxXFLSq4QkhpFhW0drKxsVGzq7R24qwnlQxaQ2lLGBM4EobQHYQzoJpFBZUFnkMTb8az6dq1q3JL4Wyp/oflYrnlBVO9Zy/1J/VX0TbAfkwFnxMJnBSgnOBvPJ+ygy5htKiiZeMXX3yhxgF0w2AsG8avopUUXS4IGfgbVwphQE7KEsICBsjk5AZXEeNkBy286CLKa9CFhGMNWlZSJhA20BorNDRUAQWWgfKAYwGOH377298qEMLzuU8DFVzViDGv6O5GmcJxAgEJ5RJlH8clvA5d2QRUSN+oaN+oS8cJqBBQIaBCZJupySyDgArGhSAQoFln8Q+VD0IIRgan5QRnKHbv3q1MPeljzplY7uOyZnQN8fLyUjMhNAtn5dHnlYMHWlLQj5WJJp30G+X5HMhwEMHBD8+nKaqWLwdBVHx69uxZvFjyv5nWgICKqgldDlg428gZUFoocNUPLUYE+x+hnwYqaMHE/3m8fowKzmpy0M8ZSPqRT5w4UQFKWkJxZlOL7P/hhx+qODJULKgU0EKDygmPo7zQLK84I0q3EC4TSIWEfZ4m5rSkoBLDWdD169erRPNtsaio2rM3tZeUlMf0nyPlBd/bDGjNdzb/154bvzNpMSZoBcH3OK0pGduGie5k7N+EB5QLXBmEMWr47j5//ryKK0H4wXc4Y0zwWOZPUEHQwN84RtDyIhBl/9cvB4+jFRfLyLy0fdqWYw9acNC9jOdSHnE8wevwf5aLZeeYQjtHu0fZmn4blWdU/jNiu5blSQVWVAdW6MtW6XPl9zmpo/LryCCgguugd+jQQUGH4vovBx403aYZOc09aQbOWQyCCZ5DH3Z+qHjQv5Wzp5xtpdJCP3YqngQbnJ3hOUz0K+VAh+altKTgb7TW4MwsBz48l7MtzIszPppLSPGyyf/mVwMCKsoXAqUJSs6E0i2DM5SMBcG+ResJxqHgoJ+m2lQ42K94DC0fOGvJvstZUfZB9jv2VVpTESDyPPZTznjSOoLH07WD+TNRFtCUm6CT12Fe9Fln7AnmRcDBwJycjaXiQJcvlollY2K0foJLXkeUiao/+9LahPwudVpaG2B/4ztas1TQP4772Ne5j1taLOgnunaxz3JAQjmhv4/fKWuYB4EBv2vWGryG9pv+OSWVgccyb+1a+uXT9rH8mtyg/NOuy3JpMk//2sXzkP+lf9TlNsC2L6BCQIWACpFjpiTHDAIqqqLu0q2jpA8VzdL28ffi+0o7nr8z1eQn5eZdRKTexq27NZtvTZbR0vPiM+dAlg3dlDpeXSkL646DF84yMvE7B/D8nffAraZgsI65nwN5Jv7Pc3gcz+Fx+udodcB9PJ7H8hwep+VBdw8qD/ydSgYtJQgwaRXFGVwqEiyDVj4tfy1v2coLV9qAtAFpA9IGpA2U3wb4Ls3OykJocBBCgiRJHVS8DYQWtBdtnCj9rfz+JnVUsTri+J86QUU+VhU5yBKOiUy/jTlnk9BpcySarolAv93R2OSajjt5AixM7fkLqKiYIChNYBI8cPCin/ibdrz+fv3f9Y/nd/192jlaHtwWP57wgm5ddB+h9RU/tMCiu9jTTz+tVvjgDKqWl/75+tfSv4Z8r15bkPqT+pM2IG1A2oB5tgG+Q2m2//P6DVi4YBEWL1oiSeqgwm3gm4WLsWTxt8pljkqlyAnzlBPGeK4CKiqpWfsl5KLZmghYjfeF1XgdrCb6wmqMDo/Y+GPEoXgkZ9+tZI5yuCFrQEBF3RSWtKogmZ8zZ45aIYQB+ui2RbeP4cOHK3hBmGEMoSnXrJttSp6bPDdpA9IGpA2U3AaoXNId09q6LerVq4/69RtJkjqocBt4860GeO+9JvD09CrR/U/6Xcn9Tuql/HoRUFEJLfnG7Tz02h2TDyim+sNqml6a4gerCb5YfTkVNexhUokSyqHFa0BARflCwFQFJWEFg+ZxaVMGyWPsGwbWo/sH/dwpvEy17FKuutvu5NnJs5M2IG3A0toAQQWtGDt16oImTVqiZcs2kqQOKtwGmjVrDWvrdvD29hFQkSTysyblp4CK4pptGf9fCM3GozMDYGXjVxRSaMBiki/qfR+K+Kw7ZeQiu2qzBgRU1G2BSasJ/SB5DIQnZoV1+5nW5AtM8pK2IG1A2oC0geq3AQEVAmaqA6cEVFS/D4ocK7kOBVRUQmteeD4ZVrSksNGzpNAgBbdT/fDQNH9ci86pRK5yqCFrQEBFyR1fBKLUi7QBaQPSBqQNSBuQNsA2IKBCQIWACpEFpvg+EFBRCS15/LGEfEhR3O1DgxUFEONEYFYlcpVDDVkDAipE8Jqi4JUySbuUNiBtQNqAtAFTaQMCKgRUCKgQeWQq8ki/HAIqKqElr3JKLbCoKMX1w8YPj8wMgE9cbiVylUMNWQMCKkTw6gs8+S7tQdqAtAFpA9IGpA0UbQMCKgRUCKgo2idERphGfQioqISW7Bqdg9/PCYTV5FJAxURftSJI0g1Z+aMS1WrQQwVUmIagEYEvz0HagLQBaQPSBqQNmGYbEFAhoEJAhWn2TUuXmQIqKqEm3757D5NPJKjVPay4yofm8sHtRF88auOHQ7pM3KtEnnKoYWtAQIUIXksX8nL/0gekDUgbkDYgbaCsNiCgQkCFgAqREWXJCGPtE1BRST05LvMOvvwlBo9O94fVGB2sxurU9q/zA7HsUjJy7wqmqGSVGvRwARUieI0lXOW60vakDUgbkDYgbaAutAEBFQIqBFSIrDJFWSWgogpqMi0rtrtnYMLReAzYF4PppxNhG3KjCjnJKYauAQEVInhNUfBKmaRdShuQNiBtQNqAqbQBARUCKgRUiDwyFXmkXw6LBRV38u7BNSYHv/pkwj0mB3fuVc0SIq9qpyH2DuCSA3jkAhl5hlbXLTd/ARUiePUFnnyX9iBtQNqAtAFpA9IGirYBARUCKgRUFO0TIiNMoz4sElRcibyJDpsj8dzCIPxxXiCeXxiE9hsj4RJ10+AafdhtYFEK8FU80DcO6B8PjEgA9mUBOVWEHgYvdB2+gIAK0xA0IvDlOUgbkDYgbUDagLQB02wDAioEVAioMM2+aeky0+JABa0nXvw2ND8g5iQ/qKCY3E7wxQuLgnE2qOIuHBk5eUi7eRc3blXMJMLvFvC/eODjmPz0SQzQKQb4KAbg9x/SBFbUNBMRUCGC19KFvNy/9AFpA9IGpA1IGyirDQioEFAhoEJkRFkywlj7LApU5N65h67bo2E10Q9WU/2LrtrBlTvG6tBpaxRSc0oHD9EZd7DfJxPTTyXis10x6LItCl/ui8Fq51Q4XS/dIiMrD5iVkg8lOscCXYulT2IB/n7qBmTVkBqkFQIqRPAaS7jKdaXtSRuQNiBtQNpAXWgDAioEVAioEFllirLKokDFlcgcPD0/CFaTiy0tqi0zauOPR6f543wpgTH3eWei9bqI/PPH62A1yRdWtMaY6Aur8b549utgjDoSD7/EWw+o2oxF0SUW+LQYoNAHFh1jgAlJwN0HzpYfqloDAipE8Jqi4JUySbuUNiBtQNqAtAFTaQPmACpatHgfzZu3LpL4W3UUcDm3YgCnWbPWsLZuB29vH2RmZsJU2rWUo+7LWIsCFWtd0vD4rABY2ZQCKggsxuuw/kpqEb341t17WHg+CU/ODFBAokRrDJ5LADJOh/orw+AUUdS6Yn9WvhVFSdYUGqwgqGDMigQhFUXqvzr/CKio+0JKXjTyDKUNSBuQNiBtQNqA4dpAXQcVzZpZo2nTViCYaNWqbZFkirCBZWWZTbFsVSmTgArD9U1Ll3uWBSquFICKKWWBCl+sdSkKKtZfScMjU/3yrSc064vStnQpGadDo5/CEZl+p1DH3puVb1FRFqhgvAqCijgBFYX1Vt0vAipEeFq6kJf7lz4gbUDagLQBaQNltYG6DCqo8DP99NMaBAUFw93dA25u7nBz88DcuQvQqFELBTCqooAb4hyClA4dOqFdu48EVCRJvyyrX8q+JFgUqLgUfhNPzQssHThM9cdDNn44HZhdqB/r4nNRb3lB8M3S4ETx3238lVuIzelEaKuecilSun6UBSpoUTEmEbgtq38U1n91vwiokJeACHppA9IGpA1IG5A2IG2g9DZQV0FFkyYt0alTVzg6XkZqaio2b96Gnj17o1u3z9GjR+//b+/Mg6Sq0jdtTExMxETMTExMxPwzERMzEb+O9tfdttqKe7cbCojirigiiLiAsu87CCirIMi+SKvsi4gI2opsguyb7PtWRVHsVVDs8E68J71lUlNVJlqZJllPRVwz895zz733qbdOcl6/7zuqXPmxQpPi9tvv0Y033lq43XRThRCFYePAEQ7+HH/8llvu0K233qkbb4ztj29ftK/YeRXk+7Fp8re/3RH6tNHh/p2S8re/3a6//OVvevDBylq3bn241xtuuEXu6+abbyu89s033x7a+7xkGCXJ6JOIipL/thh3fhubcmVUnDx3SQ+M2FtyMc3GG3TPsL3a/1MkxOnzl1X/84OxFUKKmhG/9Ln5Rv2vbts0b2dsFZETl6Smh2LFNKNUj/hXGxiOqHCKCD9lRwCj4rcNEAyw8EMDaAANoAE0kNkauBaNiqgexZAhw3XhwgV16/aebrrptjDxt2HgzW08Mb/11rv0xBPPqnv3HurXb4Def/8DdezYRQ899IgqVLhLTz31nNq27ahOnbqqb9/+6tmzr9544y298sprevfdnurTp5/atGmvhx+uqttuu1s1atQK53fu3FW9evUNffr9I49UC5ESDRs21ZNPPhdMEhsXPq9JkxZq2bKtBg0aqry8vFDPoXXr9sFoadWqXeijd+/31bRpy1DvweZJMkyFZPSJUZHZ48PvOf6XK6PC09/5OwtiBTWbboyt/OFUDW/NNuq/d9iiLzb97BSsyjqj/9Jxa+k1LUozLBptUL3pOTp/MRYisfqs9GKOVCk7FlnhCIuowObD2VKXo5JXB+Gn7AhgVDB4/p4DLNdGf2gADaABNJDuGrgWjQpP5KtUqRbSPRxRcd99DxVGMcRPxt3u1Vff1Nq1P+rYseOaOHGypk6drosXL+rLL2fr73+/X+3bdyr8h+fs2V+F1BG3zck5qJ07d2ru3Hnh+Mcff6q7775fQ4eOKGy/dOlyTZw4JXz+5ptv1bHjO9q4cXMwMnxtR2XY2MjJyQlpKdOmTdeJE3navHlLuJd58xaE+5owYZLmz1+gs2fPBqPE50ZGS/zzpON7jArGuGSNceXOqPBI8tXWk7pz0G5d51oVLTaGIpg39d+lGZtO6mKcUTBk6bHYih7FLWVamkERHWu+STcN2K0dR88XDmg2K9odia3+4QiKR7Kl6jnSR3nSYWpTFHIqqzcYFQyeyRo86RdtoQE0gAbQQCZo4Fo1KqpVezoYECNHfqRbbrnz/4tAiCb63303T1lZ2apT53Vdf/1f9ac/3RgiJy5duhQiMRztYINg7tz5IQXk+edr6OjRozp06LBq1qwdojN++GGJcnNzVb36S+rff2CI4pg69bNgXPzxjzeE/goKTsvXWrx4idq27RCME0dsvPBCTe3Zs1djxnysihUrB3Nl1Kgxatq0VdjfoUOXcF+33/53ffPNHB04kKPq1WuG6JB0NCaK3hNGBeNgssbBcmlUeBJ8IP+Cvt99WmNXn9CCnQXan/dz4UsfP3/psupOPRAKY4YlSL0M6dVuP0VtROkf0eQ775K0/bw0/7Tk2hX7Lkhx/kjUjNcyIIBRweCZrMGTftEWGkADaAANZIIGrmWjwgU0x4+fFFI4ik6gHZXw9NPVgxkwadKUUCfCK4Pcccc/9PDDj2jZsuUaOnSknHpx6tSpkBLiWhJPP/28tm/fofnzF4Y0DEdF2Fg4eDBXNWrU1ocfDtHBgwdDaohrWfg6lSpV1aJFi7Vy5UotWbIs9On9NipsbuzcuVtjx47Xk08+G4wKR1bY6Dh+/IQclbFy5arwumXLVmVnZ6t27boYFRTbLPdLvZZbo+KX5sBnLlwOaRv/593t+r+9dvy6recO/e/3dmjh7lidil+6JsfLngBGBf+IzIR/RPIM6BgNoAE0gAaSpYFr1aioUuUxrV27LkzwXaTShoKLUNqMcHSC60k880x17d27V6UZFa1bx4yKfv0+kI2H5557Ubt27Q4RFu7X/diocKTDiy/WCkaFzYSXXqodjAjXw3j88adDOseGDRv1448/hnQS77fx4QiN7OwDVxgVNilmzpwVDIyaNeuE833dqlWf0P33Pxyeo6jxkq6fiahgbErW2FRujQqneDiKYtex89p/4ufUjGiq7NU6svIuaPOhc9pSzLbt8DntPHxOuw+f047D57S1mDY+b2PuWbmIZ9Gf05ekQxelgxclR1jwkxwCGBUMnskaPOkXbaEBNIAG0EAmaOBaNCpsRjhiwWkTQPF6xwAAIABJREFU/nG9ifvuq6jrr78hmAM2DqpWfTykgxSf+vFBOM9FOJs2baGCggL17z/gCqPC9SMio2L06H8WGhX9+38Y2g8dOjyYI16p45NPxoUimYMHD9X+/VlavPiHsALIn/98U1g61Rdz6ocLd+7evUdOV3EBT9er6NKlu/7whz/r3/7t3/XAA5VCpIavG6WupKtBEd0XRgXjYLLGwXJnVOw+dl4DFh9V7UnZ+sfwvaowaLf+PnSP3piWo5HLTyj3VOKFIo5L2ntJOhuGusT+s+GcNC5feu+o1Oqw1OJwrIjmp3nSiqvpKLHLlftWGBUMnskaPOkXbaEBNIAG0EAmaOBaNCo8SfaKGvfeWzGkbOTnn9SaNWv16afjNGPGF6FwpVfZcO0KF9P0kqBewnT8+ImaMmWazpw5o/HjJ4Rimh06dA7/Xh48eEgwOZyqkZt7qDBSwxEVTtvIz8/XSy+9ElYBif6BPWfO3GCS+POIEaOCeTJs2Mhw+Ntvv9PMmbOjpuHeHn30CTm9wxEb48ZN1MqVq3Xy5Ck5FcTXWL16jb766l9hpRCnqERmQDq/YlQwDiZrHCxXRsXolSf0twG7Y7UmGm2IFcpstjG2/Kg/t96suwbv0aR1eYWDSnFvdl2Q+h2XGh+S3syNmQ0f50n5pURGeHnS0XlS7YPSw1mSV/lwIU1vXgXE+148GOt375XlMoq7BfYlSACjgsEzWYMn/aItNIAG0AAayAQNXKtGRWRWOOXjtdfqqWfPPiEqwsuPOkrhiSeeCfUoXCei6PKk7dp1DEZHbHnS5+XPLnpp88PLljZr1kr16jUIRogjG5ye0aJFG1Ws+Ii8JKqLbdqQ8DW9pKmXL3U7mxoVK1YJbb2sqY+98073sBrIyy/X0b33PhiWPvWyp76m00L86nv20qnur2bNV0L6yj33PIBRQZ2Kcl2nolwYFRcvX1a3uYf1n9ttiZkSJa3i0WqTrmuyUf+14xYNXHy02Knw5vPSm4ekytmxrepPJoMNh65Hi1+5I/ei1P2o5LZu9+SB4jevAmLDoskhaev/n41S7P2ws3QCGBX8IzIT/hHJM6BjNIAG0AAaSJYGrmWjwmaF00AcOXHjjbcWbjfdVCFEN7hmhdvcfvs9hcfczsdtLPi4U0j82W382fudzmEDxOd6nw2IWJu/h3oV+/fvDyaDVxCJ9XdbYX82O26++bYrruc27iP+Xl2/ItbvlW29z9e9VjYiKhibkjU2lQujYsLaPP3Htpt1XfONui5aOrS012Yb9d86bdW/tp26YhZ86pLU+ahUOUt6oojZUO1ALDJiUr4Unzzi4IiBx6Uq2bElSUsyKaL9jx+QHsqW2h+hdsUV8H/lB4wKBs9kDZ70i7bQABpAA2ggEzRwrRsVqZrQx+pi3FtYj8JRHC6Ymarrp+t1MCoYB5M1Dma8UbH3+HndNGBX4iaFDQxHXDTbqAdG7VP+2Z/zOVaekZ46ULLh4IiI13Kloz+fooVnpOdyJB+LzIhferXp4fbTT0qXf+UEndNiBDAqGDyTNXjSL9pCA2gADaCBTNAARkVi0Qs2Kjwpb9++c1ha1Kt0OHoiXQ2EVN0XRgXjYLLGwYw2Ki5cuqw2Xx2K1aQoLYKiuGOtNuk/td6s3guOFM75x+fHIimKRlNExoOjIXxsy7nYKUcuSq2OxCItojaJvjpN5NWD0k5SQAr5/5o3GBUMnskaPOkXbaEBNIAG0EAmaACjIjGjIpr4O0XEaRueoEf7yvMrRgXjYLLGwYw2KrLzzut/dtuu61puSizlo6hh0WSD7hyyR4d/WglkTJ5kM8JbcYZDdGz1T6t3zC2IpXyUZGwU10f8PtermERUxa/xJwrPwahg8EzW4Em/aAsNoAE0gAYyQQPpalQ4WsGpFfFbWZgDrkHhPomGuDqDpiQzBqOCcTBZ42BGGxXTN+TrP7g2hYtkFjUhEvnccpP+R9dthbUqvimIRUyUZFQ4ZcNpHjk/FakYfiK2uke8+XA1753+0eGI5NoY/Pw6AhgVDJ7JGjzpF22hATSABtBAJmggXY2KihUry8t5PvXU83rmmep6+unqqlz5sVCQsqRJ8y/td/pGpUqP6umnn1eVKtV0raysET2XTRYX+XQB0Gjf7/2KUcE4mKxxMKONig7/OhxW8biu8U9LkDa9ytcmG3Vdgw0auPhYmCXvvyC9kltyvYlKWVK3o9K5y9Kpy1KbI9J9WT+vEBKtFJLoa8Vs6fkcyauG8PPrCGBUMHgma/CkX7SFBtAAGkADmaCBdDMqHOnwj39U1Mcff6pDhw5r7doftWLFKq1cuVpe1rNChV+/KoZX1OjQobOWL1+hXr3e15133vubjI9UmgR3331/WDq1Vq1X9dhjT4ZVRlJ5/ZKuhVHBOJiscTCjjYoBi4/p7iF7wnbP0D266m3IHt05YJcmrssLs2QXtpx+KrbMqGtIxEdH2HyoniNt/Kk+xYlL0qATUovDMcPCpsXVbq5v0fGodIyIil/nUkjCqGDwTNbgSb9oCw2gATSABjJBA+lqVMycOUs7d+7SM8+8EFI1vExotDl1469/vUU33PC3KzbXj3DUhJcSdR0Jv/c5Nj+iJULvuCO2HKlNC7eJ+vBxt3PEQrTPr97vSIaoj/hjfl+hwl3hOvF9eb/vz335/OicW265I0RC+L6ubH+Lbr89lo4S3z46z9e44YZb9OKLtXT8+An16NFH11//17QwKzAqGAeTNQ5mtFFx6txlHS64GLYjBRf1a7bckxdVcP5np+D0ZWlCvlQjR6qYFUvteChLeitXWnxailr6teCSlP8btrxLsSVKoz5/9Wy9HJ+IUcHgmazBk37RFhpAA2gADWSCBtLVqPj88y+0ZctWPf74M/IE30aBJ/h+feml2ho6dIQ++uifGj9+oiZPnhoiMF58saYqVqyigQMHhciJe++tGEyORx6ppg8++FBvv91YNWrUDu/r128Y2owePUZjx47XmDEfq1Klqnr77UYaN26CpkyZpkmTpmjAgA/1wAOVVK3a06Hf0aP/qbFjJ4RrfvrpOL3xRv1gPnTq9I5ix8aHYyNGjFKDBo01YMCg0I+v0aJFmxARYqOlY8d3NHHi5NDW5z3/fA09+uiTGjhw8E/9xK7xySfj9Prr9VWvXkN9++13OnfunNasWatevfqGZzWPkqIdUrEfo4JxMFnjYEYbFcmcn28+J31VIE08Kc0/LTkthJ/0I4BRweCZrMGTftEWGkADaAANZIIG0tmo2Lp1W6hN4Ym9IyM88XZ0QZcu3Qr/0blgwUL16zcgRBps3rwl1LOYO3eecnIOhveOUGjdup0uXryorl3fC+aEJ/sffzxWS5cuC/38+ON69ejRO5gKR44c0YoVK9W9e0+NHDk6HJ88eYpatmyrU6cKwue1a9epT59+2r17j3JyclS37ptatuznvvr27a+jR4/p8OEjOnEiT//85yfasGFD2NeyZRsNGzYy7LfR4evm5ubKz9G5c9fCa6xZsyZcY+/efTpwICfct/spKDiluXPnq3nzVsFAcbRHKgyJkq6BUcE4mKxxEKOicJjjTSYSwKhg8EzW4Em/aAsNoAE0gAYyQQPpalQ4mqGg4LTWr9+glStX6fvvF4XohZtvvk0dO3ZRQUGBZs/+So6acBqE0yHOnz8fjjVp0kJ5eflylIMLT86ZM1fbtm0PxTnbtu0QDIThw0dp4cJFsjFRu3bdsNzo9u07tHDh93rwwUr6059uDCkkgwcPVX5+viZMmKQ9e/Zq2bLlqlr1cf3hD39WkyYtdfLkyRCBYdPDpsWrr74Rjn3yydjwT+shQ4brT3+6KURqmPUPPyzR1q3bNW7cRFWu/Kjuu6+ievXqE57122/naN++/frhh6Wh2KevYUPi9Okzev/9D/TCCzVD3Q6bG76/39uksHmBUcE4mKxxEKMiE2fnPFMhAYwKBs9kDZ70i7bQABpAA2ggEzSQrkbF9OkztGvXLr3xxlt6/PGnw0odXgnEERU2IByp4KiGW2+9S643UbduPR08eFCOZvBqIatXrw0Ghes6rFmzLqSKuOZDp05dC40KGwLr1v0YVgJxesWxY8fVs2efUFfCERzu99lnq2vp0uWaNWu2srKyQpqIzQ/fh1cisQHyxRdfatWq1dqwYWModOlUlWHDRshsGzduHgyPZ599UTt27FRWVnaImnAUx5Ily4IJ4+KePnfGjJnhGi4k6igSX8PnOXLD+157rV649/79B4ZjToUpKdIhVfsxKhgHkzUOYlQUTmmv7o1X9jh0UTp4UTrGqhxXBy+FrTEqGDyTNXjSL9pCA2gADaCBTNBAuhoVUY2Kxx57SjfffHuYuDuCwOZBZFQ4ysDFMV1E87XX6gejwrUobrjhVnXr9p5WrVqjzz+fqV27dgfDw2kgTq9wSoYjKmwUOOXivvseClEV3u/zXQjTE30bBS+//IqcUjJr1tfat29fqE/hY74PF/q0UWFTxVEfNhtsqriIptNGzLZp05ahcObzz78kR2w4KuPo0aNq3ry1HB3iiBA/1/XX3xBqUThlxNEYNiF8jeeeqxGMCtfjwKhgzMmEMSfRZ8CouMpJ8+7z0tSTUu/jUpvDsVU9Oh6RRuVJC0/Hlia9yi5pnkQCGBUM6IkOhrRDK2gADaABNFAeNZCuRoWjFFxMs3Llx/TnP98UJvs2Djx5t9mQn39SjiyIjIrXX39Lnti4eKVX/fCkfsuWbbpw4aJmz/46GA82EFzfwmbAiBGjQ6TEokWL9cADD+v++x8OS6A6eqFOndf17//+11C4c968+Tp27JiGDh2p/fuzNH78pNCX78PRDjYfbKo4omLjxk2FRsWoUR8pLy9PzZq1CvdevfpLYRWT+fMXhFenijz4YGX98Y9/CekfDRs21Xvv9VJu7qEQtREZFTY4bG642GcU9eFCmn/5y82kfhxmzMrkMQujIsFJsiMopp2S6uVKXorUK31UyZYeyf758zMHpK5HpfU/LVGaYNc0SyIBjAoG8EwewHk29I0G0AAaQAO/VQPpalRMnfqZTp8+HcyEefMWaMGC70MRShsEXjHj5MlTIfohMireeONtmYVXzXCEhaMUvvvuu/CvzK5d39Vtt90TIiRsVDjFY+TIj7R8+Ur98MMPeuihKsEAqV37tbCihgtxuq6FUzJsUnj1jrfeahwMjgkTJl9hVHgJVadseCUOR15EERVeTcS1LRw54aVIX3jhpZD24dU/XJjTZokjMLySh02OFStWhToUBw/mhpoX8UaF61a4kOaLL74sF9f0NR2x8fDDVYOZkqo0j+KuQ+oHY9BvHYNKOh+jIoFJspcZHXJCqnYgZk48cUB6spjtsQOx5UpfzZWWnEmgY5oknQBGBYNnSYMf+9EGGkADaAANoIHDIT3BKQ2u6+C6CMVNRlO5L6q78OSTz4aoCEcauM6DNxe99PEqVaqpVq1XQz0If/b20EOP6OWX68ipIv7sOhLVqj0VzrER4X02L7xUqdvZUHC0gpcFjdIvKlS4W1WrPqH69RvIBTkbNWoaCli65oSjH15++VU9+eRzgZH787KlNWrUCvUzqlevGYwEp5H4Ou7f91ip0qPhs9vWrPlKWObU9+YIiwYNmoTr+BltQrit783PbubRNbwc6xNPPBNSVFxQ00urumino0DcJpW/n6LXwqhgHE3WOIpR8QtT5cuSppyUHj0gPZpdvEERb1rYxKiULdU7JO1jydJfoJv8wxgVDJ7JGjzpF22hATSABtBAJmgg3SIqoomwTZNbbrnzis1RET5+1133hjoQnvBH7W0OuLBm/D734XQPt4/axc69K5gyjs6I+oyOF72u0018LOo/3syxSeDjjuBwXzY6IuMg/touzBm19f7Y+7uLPNvd4T7dX3HXKHqerxddK7r33+MVo+LaHwc9Bjh6ya82B9JlXMOo+IW58pZzUp3cWIpHvCFR2vvHf4q8GHxcumCng5/fjQBGxbU/eKbLYMl9oCU0gAbQABrIRA2kq1Hxe0y6ueYDhYZOoiwwKq7tcdGpTTt27NBXX32lrVu3hlSndBnnMCpKmUIXXJb6HpMqZf1yJEVR48LRF8/nSEtJASmFcPIPYVRc24NnugyU3Ac6QgNoAA2ggUzVAEbF1U/OE53El4d2GBXX7thok8Lj2ogRI/Tggw9qzJgxIarCq9J4/5EjR35xKzou+pxoX9Hzi+szalvcK0ZFKXPlzeckp3I4QqKoEfFLn586IFXMlj44zkogpSBO+iGMimt38CxuwGIfv080gAbQABpAA2WrAYwKjIrfYqhgVJTt32Mqxzf/7e/cuVNt2rTRU089pWbNmmnLli06ceJEodlgsyDabGBERoRfI0Mjuuei+3w8MkPcxu+9xfcXfzzqJ3rFqChlqjzjVOnFM3/JrKiaLb2VK+2nVkUplJN7CKPi2h08o0GKV36HaAANoAE0gAaSpwGMCowKjIrk/X2l69gVmQrTpk0LRsXYsWNVr149ffHFF8Go8Ljw5Zdfql27durUqZPeeecdtW7dWk2aNNGCBQvCijpTp05VdnZ2MCxsOMybN089e/YMqSQ2QPr06aOGDRuqZcuW+vTTT7Vr1y69//77atWqVei3S5cuWrFixRXGSDwvjIoS5smuLdHvuPRAVqw4ppckvdrt4eyY0bHubAkXYXfSCWBUlL+BN36A4z2/fzSABtAAGkADpWsAowKjAqOi9L+RTBxDHO2wf/9+2SwYOnSoDh48qI4dOwZTISsrq3A1INet2L17t5YtW6YGDRoE8+HAgQOySTFs2LDQh/vyOGKT4+2339bmzZtDvQu3r1GjhhYuXKhNmzapb9++6tatm7Zv3669e/eqd+/ewQBxjQyfX5QzRkUJU+Xzl6VP8qUWh6U2R3791uKItO1cCRdhd9IJYFSUv4G36CDHZzSABtAAGkADaKBkDWBUYFRgVJT895GpY4f/7h0BUbduXf3rX/8Kc7IZM2aoTp06WrVqVWGtivz8/JCq4UgImwxeytj7bFSMGjXqCqNi1qxZatq0aUgfscHh90OGDNHJkye1ZMkStWjRQqNHj9bs2bPD5mO1atXSnDlzQp9FWWNUlDBV9mIdpy9LeZek/N+wnbjEyh8lIE7JboyK8jfwFh3k+IwG0AAaQANoAA2UrAGMCowKjIqS/z4ycexw2ofrUAwaNEjVq1cP6Ro2EJyqUbNmTY0cObIwncPREjYknPKxcePGYCh4n40KF9+MUj/c39dff32FUeGaF5MnTw7nfPbZZ8EEGThwYCje6SgOF/F0Soj7JaIiJVNjLpJOBDAqytfAm4lfJjwTGkYDaAANoIFkagCjAqMCo6J8jTH+m3cqRqNGjdS9e/eQsjF9+vTw2r59+7Df6RinTp0K0RauKeHUj9OnTxfWr3BNC7d1O0dY5OXlBePCNSkcTeGtefPmcpRGQUFBqGnhz+vXrw9TxQsXLsjbuXPnCgtsFh3niKhIp1k191LmBDAqytfAW3SA4zO/fzSABtAAGkADpWsAowKjAqOi9L+RTBtDHP0wbty4YCTYOLBZYBPCr4sWLdIrr7yiSZMmhdoSjqRwwc09e/aE2hKuL2EDwe2ctuGoDNe6cNqHozGcSrJt27aQ/mHTwpEXTv1wnYuuXbuGGhirV68ONSqWLl0ajrs9ERVlPg2mw3QngFFRvgbeTPsi4XnQLxpAA2gADSRbAxgVGBUYFeVnnHHahothOgXjo48+CqaD93mc8WtOTk5I/XBax/Dhw0PKhwtuenOxTdepiFbqcBSG60507txZbdu2LYzQ8OoejrRwscxvvvkmREzYHHGKR48ePcLqIe7PkRq+B18zuof48Y6IinSfaXN/v4kARkX5GXjjBzbe83tHA2gADaABNJCYBjAqMCowKhL7W8mkMSVantSv8c/lz15qNNofGQg2DaLN7ePbeb/3+TxvUX8+N+onOu59UT9+9fH4NtG5fvVxj0+J/FyXSCPaQCCdCGBUlL+BN36A4z2/fzSABtAAGkADpWsgMiqqVn1ct912t+6++z42GCSsgTvu+IdsdPz44/piV27g76/0v7/fi09pBkF0rKTX6J4TPR6192tx58Qfj3+PUZFOs2rupcwJYFSk5+AYPwjxnt8RGkADaAANoIHfTwORUVGlymOqUOEu3XXXvWwwSFgDt9/+d91zz/0YFYd/v7/hTB0/MSrKfGpMh+lEAKOCQTNTB2+eC22jATSABtBAWWjA/4czNzdXq1at0rJly7V8+Qo2GCSsgUgzrntgLZWFJumDsc0awKhIp1k191LmBDAqGOj4skMDaAANoAE0gAZ+WQOuzO/lCE+d8isbDBLVQEwzmBS//DfGOHR1jDAqynxqTIfpRACj4uoGBAZQeKEBNIAG0AAaQANoAA2ggczQQH5+vs6ePaszZ86EVxuSyfjdOoXMS5zm5eWVWf8YFek0q+ZeypwARkVmDLLJGFDpE22gATSABtAAGkADaAANZKIGHOFi82DhwoUaMmSIhg0bpkGDBmnGjBmFBS3L6rm90sfq1as1evRoff/992Gp0bKIsMGoKPOpMR2mEwGMCr58ymoQph+0hAbQABpAA2gADaABNJDuGrBJ4GVAv/32W7311lv68MMPNXPmTE2ZMkXz588vjHiIzAwbGt6KLi0av99tfTxarjRi4H1ut2nTJs2aNUtr1qwJRki0P+o3Mi5K2h/1F/+KUZFOs2rupcwJYFTwZRI/4PEePaABNIAG0AAaQANoAA1ksgZsBuzfv18DBgwIUQ5O9zh37lxIzXAqiJ/dhoPb7dmzR1u3btX27dvlgqje5+PZ2dnau3evdu3apR07dignJ0f79u0LbSLTwe2ysrJCW/cXbe7j4MGDoU/3vXPnzlCw98SJE6Httm3b5M39ua/4/uJ/LxgVZT41psN0IoBRwRdR/IDHe/SABtAAGkADaAANoAE0kMkasGHgSf7w4cPVunVrrVu3LpgUNgr83DYGfPyrr75Sw4YN1blzZzVr1kzvvPNOMBB83GkcNWrU0Ntvv61evXqFiIn+/furb9++wayw+WGzwec4ksKpHy1atAhRHDZJ3nvvPTVo0EAdO3ZU9+7dtXbtWq1fv17t27dXy5Yt1bZtWzVt2lRz586V76s4swKjIp1m1dxLmRPAqOCLKJO/iHg29I0G0AAaQANoAA2gATRQVANOuXCURM+ePdWkSRNNnjw5RD/YYLAxsGjRIrVp0yakhFy6dClEN3Tq1CnUs7DRMHjwYD3zzDP6/PPPQ5SFIzFsSLgvmw4FBQXhmI0MGyErV65U/fr19dlnn2no0KGhnc2LKGrDbWxeOA3F9+bzR44cqXbt2gUTJDJR4p8Do6LMp8Z0mE4EMCoYuOMHPN6jBzSABtAAGkADaAANoIHyoAFP/j3Zt9nQuHHjEDlh88CmgyMmHEVhs8DbmDFjQvSF223ZsiUU3mzVqpV2794d2ns1j82bN8v7Pv3009CvTYfIeFi2bJkaNWqkgQMHhn4XLFgQzAhHd9gcmTdvXuHxjz76SN569+6tWrVqhSiMKCUl/veCUZFOs2rupcwJYFTwRRQ/4PEePaABNIAG0AAaQANoAA2UBw04ncIRDV6a1HUinLrRoUOH8N4mgVMwHAExffp0TZs2TV9++aWWLFkS6lt88MEHIWUjqlvhvmw6TJw4MaR/eHUPp3V4VREvS7p06dJgRDhqwlEXq1atCgaHz7PJ4f5ff/11jRs3Tl988UX47BVI5syZE+7HfRf9nWBUlPnUmA7TiQBGBV9ERQc9PqMJNIAG0AAaQANoAA2ggUzWgCf5LoBpo8IRDRcuXAhLh7755pshTcOGgWtTuI1/nP5x9uzZYC64EKZNDaeN5ObmFq704agHGxD9+vUrrD3hYpzeHxkVjs5w1IWNCad3nDp1Khz3aiOO4LAR4h/P0XxPPre4+hT+3WBUBFT8J1MJYFTwJZTJX0I8G/pGA2gADaABNIAG0AAaiNeAoxMcCeG6FOPHjw8mglMxXJOiR48eYeUNF7Zs3ry5unTpoh9++CG0GTt2bEgT8UoejrjwMZsWUbSDTQ+vBtK1a1dVrVpVkyZNCvUmHDHhmhd169YNERpODXH0xNSpU0PfjtpwaohXIXFNCxfxXLFiRYiscAqIi3K6bkX8M/g9RkWmztB5rkAAo4KBu+igx2c0gQbQABpAA2gADaABNJCpGnCEgjenVdhUsDnhlTcGDRoUlhu1KeDNBTBtSLz77ruh0KVfHfFgLk4HcZqHIyriIx5c98L1JhxVYbPD5oU3v3cBzuXLl4dzbJB4RZDoul7q1MuRjhgxovCefNxmRtFrRL8XjAom9BlNAKOCL6FosOMVLaABNIAG0AAaQANoAA2UFw3YVHDqRbQ5BSSKjjADmxXRseg1imxwlERxBS59nvt1WocNioil+3UfPt/Ghs+N+vR1vc9t/N77o1dfJ+qj6CtGRUZP03k4jAq+jIoOenxGE2gADaABNIAG0AAaQANoIL01gFHBXD6jCWBUpPcAxBcEvx80gAbQABpAA2gADaABNIAGimoAoyKjp+k8HEYFg17RQY/PaAINoAE0gAbQABpAA2gADaS3BjAqmMtnNAGMivQegPiC4PeDBtAAGkADaAANoAE0gAbQQFENYFRk9DSdh8OoYNArOujxGU2gATSABtAAGkADaAANlAcNuFilC19GBSz9vrQCllfDxAUyo6Kb8SuDXE0fpbXFqGAun9EEMCr4EiptAOQY+kADaAANoAE0gAbQABrINA3YOPBEf8aMGerWrVtYotTLlHpJ0FmzZgWD4beYC17xIzs7Wx9//LGGDRumnTt3hhU/ypIjRkVGT9N5OIwKvnjKcsCkL/SEBtAAGkADaAANoAE0kO4a8FKgnujbnGjRooUWLlyoFStWaMSIEXrppZf09df8RQNmAAAOK0lEQVRfh2VGbVbYdPByoV5S1Fv8sqM+7qiJ+ONu42VIc3NztX79eq1bt04HDhwI50V9RK9RX24f34ffe5nT0jhiVDCXz2gCGBV8kZQ2AHIMfaABNIAG0AAaQANoAA1kmgYio6Jv3756//33g4lw/vz5YC60bdtWvXr1Cu9tGOzfv19LlizR999/r+XLl4fPNhjchw0GmxGLFi3S4sWLtXLlSq1Zs0a7du0KJsPu3bu1Y8eO0Namho+5rTcbIwcPHgzX3r59ezjm892Pt61bt15hihT9HWBUZPQ0nYfDqOCLp+igx2c0gQbQABpAA2gADaABNJDJGoiMij59+qh///4hmuHixYvBaGjUqJHGjx8fIiVsFrz33ntq2LCh3Patt95Sv379QoSEjQenibz22mvq3LmzunfvrpdfflnVqlXTxIkTg9Hhth06dNC2bdvCvjp16oR2vXv31quvvqohQ4YE42Po0KF69NFHVbt27XDcUR7169cP91NSZAVGBXP5jCaAUcGXUCZ/CfFs6BsNoAE0gAbQABpAA2igqAYio+KDDz4IhoDrSIwcOVJt2rTRwIEDtW/fvhAFMWrUKL377rvhsyeFjoho1qyZvvzyyxAR0aBBA7lNlP7x2WefqVatWho3blwwKty/615MnjxZbjt9+vRQuPPcuXOaM2dOMCvGjh2rwYMHq2bNmuG4C3o6IsPmiFNTnEISpYjEPwdGRUZP03k4jAoG7vgBj/foAQ2gATSABtAAGkADaCDTNRAZFY6msPEwZcoUNWnSRG+++aachnHmzJmQetG6dWs5FcSRET179gwpIa+//nookGmDwdESTg2xUeHNRTMdDeEimjYYbHq4TdeuXUPkRlTzInodPXp0aOMUlI4dOyorK6uwDoYNEF97z549xRbixKhgLp/RBDAq+CLK9C8ing+NowE0gAbQABpAA2gADcRrIDIqnM5hE8LLk7roZcuWLTVz5szweePGjSEKwmaC60lEdSjWrl2rvXv3hggMp3zYXHCtChsVThVp2rSpPvnkk0Kjol27dmrfvr0GDRoUojR8bRsVPscGyfDhw+VUEPflSA6neriNr+vzfC23jb9/v8eoyOhpOg+HUcGgXXTQ4zOaQANoAA2gATSABtAAGshkDURGhSMZbBI4+sFmgFNAbCzYMHChS9edcFSEV+nwj+tYmIuNhtmzZwcjwyuGOJXD2/z580M6R5T6MWDAgJD64bSSVq1ahdSRs2fPhrabN28OURxO+3CKSKdOnYIpERkVjqjAqGC+Xm4JYFTwJZTJX0I8G/pGA2gADaABNIAG0AAaKKqByKiwEeG0jJycHLk2xI8//hhqQ4wZMybUhZg3b57q1asX0j5cONNFMh2FsXTp0rCah8930UvXoJg0aVJ472Ka/mzzw+kiNii8moeLcrqtoygcteGUE6eFeNUQt3PKiNM8IqPCBobbkPpRbqfq5fvBMSoYuIsO3HxGE2gADaABNIAG0AAaQAOZrAFHRDh14ttvv9U333wTTAUXrLS54EgJF8U8cOBASOdwyodX5fBm88Argjgdw1EWjryYMGFC2O+oCa/iUbdu3ZD64f7nzp0bTAm/dy0Lp4S4jTendkTGhAtrukCnr+n78P15OVQbGt5nY6Xo74PUj/I9j8/4p8eo4Euo6KDHZzSBBtAAGkADaAANoAE0UB40cPLkybA0qZ/VE38bBK5X4c3vvd+GhNM1XGDTmyMvoogMRz+cP39eFy5cCPNG169wZITNDxsO7j/qy59Pnz5d2I/78j5fI75dxN3Xjc6N9sW/YlRk/FS9fD8gRgVfQvEDHu/RAxpAA2gADaABNIAG0AAaKF0DrmfhGhPTpk0LhTYdYbF48WI1btxYXilkx44dIYUjmRwxKsr3PD7jnx6jovRBKJmDC33DHg2gATSABtAAGkADaAANXHsacESFi2264KWNCa/Y4dcePXqEmhPFrdJR1r9njIqMn6qX7wfEqLj2BsayHuToDw2gATSABtAAGkADaAANoIGr04BTQ7zZMPBmfk7liNI5ks0To6J8z+Mz/ukxKq5uQEr2gEP//D7QABpAA2gADaABNIAG0MC1oYHIrIh/TdXvDqMi46fq5fsBI6PCFW4jN5DXmCsKBzigATSABtAAGkADaAANoAE0kI4a8PzNKSaJ/FyXSCPaQCCdCNioiMKT4p1A3sdCueAABzSABtAAGkADaAANoAE0gAbSTQOO3PCqI4n8YFQkQok2aUfAZgUbDNAAGkADaAANoAE0gAbQABpAA9eWBhKZXGJUJEKJNhCAAAQgAAEIQAACEIAABCAAAQikhABGRUowcxEIQAACEIAABCAAAQhAAAIQgAAEEiGAUZEIJdpAAAIQgAAEIAABCEAAAhCAAAQgkBICGBUpwcxFIAABCEAAAhCAAAQgAAEIQAACEEiEAEZFIpRoAwEIQAACEIAABCAAAQhAAAIQgEBKCGBUpAQzF4EABCAAAQhAAAIQgAAEIAABCEAgEQIYFYlQog0EIAABCEAAAhCAAAQgAAEIQAACKSGAUZESzFwEAhCAAAQgAAEIQAACEIAABCAAgUQIYFQkQok2EIAABCAAAQhAAAIQgAAEIAABCKSEAEZFSjBzEQhAAAIQgAAEIAABCEAAAhCAAAQSIYBRkQgl2kAAAhCAAAQgAAEIQAACEIAABCCQEgIYFSnBzEUgAAEIQAACEIAABCAAAQhAAAIQSIQARkUilGgDAQhAAAIQgAAEIAABCEAAAhCAQEoIYFSkBDMXgQAEIAABCEAAAhCAAAQgAAEIQCARAhgViVCiDQQgAAEIQAACEIAABCAAAQhAAAIpIYBRkRLMXAQCEIAABCAAAQhAAAIQgAAEIACBRAhgVCRCiTYQgAAEIAABCEAAAhCAAAQgAAEIpIQARkVKMHMRCEAAAhCAAAQgAAEIQAACEIAABBIhgFGRCCXaQAACEIAABCAAAQhAAAIQgAAEIJASAhgVKcHMRSAAAQhAAAIQgAAEIAABCEAAAhBIhABGRSKUaAMBCEAAAhCAAAQgAAEIQAACEIBASghgVKQEMxeBAAQgAAEIQAACEIAABCAAAQhAIBECGBWJUKINBCAAAQhAAAIQgAAEIAABCEAAAikhgFGREsxcBAIQgAAEIAABCEAAAhCAAAQgAIFECGBUJEKJNhCAAAQgAAEIQAACEIAABCAAAQikhABGRUowcxEIQAACEIAABCAAAQhAAAIQgAAEEiGAUZEIJdpAAAIQgAAEIAABCEAAAhCAAAQgkBICGBUpwcxFIAABCEAAAhCAAAQgAAEIQAACEEiEAEZFIpRoAwEIQAACEIAABCAAAQhAAAIQgEBKCGBUpAQzF4EABCAAAQhAAAIQgAAEIAABCEAgEQIYFYlQog0EIAABCEAAAhCAAAQgAAEIQAACKSGAUZESzFwEAhCAAAQgAAEIQAACEIAABCAAgUQIYFQkQok2EIAABCAAAQhAAAIQgAAEIAABCKSEAEZFSjBzEQhAAAIQgAAEIAABCEAAAhCAAAQSIYBRkQgl2kAAAhCAAAQgAAEIQAACEIAABCCQEgIYFSnBzEUgAAEIQAACEIAABCAAAQhAAAIQSIQARkUilGgDAQhAAAIQgAAEIAABCEAAAhCAQEoIYFSkBDMXgQAEIAABCEAAAhCAAAQgAAEIQCARAhgViVCiDQQgAAEIQAACEIAABCAAAQhAAAIpIYBRkRLMXAQCEIAABCAAAQhAAAIQgAAEIACBRAhgVCRCiTYQgAAEIAABCEAAAhCAAAQgAAEIpIQARkVKMHMRCEAAAhCAAAQgAAEIQAACEIAABBIhgFGRCCXaQAACEIAABCAAAQhAAAIQgAAEIJASAhgVKcHMRSAAAQhAAAIQgAAEIAABCEAAAhBIhABGRSKUaAMBCEAAAhCAAAQgAAEIQAACEIBASghgVKQEMxeBAAQgAAEIQAACEIAABCAAAQhAIBECGBWJUKINBCAAAQhAAAIQgAAEIAABCEAAAikhgFGREsxcBAIQgAAEIAABCEAAAhCAAAQgAIFECGBUJEKJNhCAAAQgAAEIQAACEIAABCAAAQikhABGRUowcxEIQAACEIAABCAAAQhAAAIQgAAEEiGAUZEIJdpAAAIQgAAEIAABCEAAAhCAAAQgkBICGBUpwcxFIAABCEAAAhCAAAQgAAEIQAACEEiEAEZFIpRoAwEIQAACEIAABCAAAQhAAAIQgEBKCGBUpAQzF4EABCAAAQhAAAIQgAAEIAABCEAgEQIYFYlQog0EIAABCEAAAhCAAAQgAAEIQAACKSGAUZESzFwEAhCAAAQgAAEIQAACEIAABCAAgUQIYFQkQok2EIAABCAAAQhAAAIQgAAEIAABCKSEAEZFSjBzEQhAAAIQgAAEIAABCEAAAhCAAAQSIYBRkQgl2kAAAhCAAAQgAAEIQAACEIAABCCQEgIYFSnBzEUgAAEIQAACEIAABCAAAQhAAAIQSIQARkUilGgDAQhAAAIQgAAEIAABCEAAAhCAQEoIYFSkBDMXgQAEIAABCEAAAhCAAAQgAAEIQCARAhgViVCiDQQgAAEIQAACEIAABCAAAQhAAAIpIYBRkRLMXAQCEIAABCAAAQhAAAIQgAAEIACBRAhgVCRCiTYQgAAEIAABCEAAAhCAAAQgAAEIpIQARkVKMHMRCEAAAhCAAAQgAAEIQAACEIAABBIhgFGRCCXaQAACEIAABCAAAQhAAAIQgAAEIJASAhgVKcHMRSAAAQhAAAIQgAAEIAABCEAAAhBIhABGRSKUaAMBCEAAAhCAAAQgAAEIQAACEIBASgj8P9u+gUvxUeboAAAAAElFTkSuQmCC;" vertex="1" parent="1">
          <mxGeometry x="60" y="140" width="1066" height="600" as="geometry" />
        </mxCell>
        <mxCell id="roQAEabi5F3PTRrzKzNt-4" value="" style="endArrow=classic;html=1;strokeWidth=2;strokeColor=#00468C;startArrow=classic;startFill=1;" edge="1" parent="1">
          <mxGeometry width="50" height="50" relative="1" as="geometry">
            <mxPoint x="530" y="355" as="sourcePoint" />
            <mxPoint x="530" y="315" as="targetPoint" />
          </mxGeometry>
        </mxCell>
        <mxCell id="roQAEabi5F3PTRrzKzNt-5" value="" style="endArrow=classic;html=1;edgeStyle=orthogonalEdgeStyle;curved=1;strokeWidth=2;strokeColor=#003B75;" edge="1" parent="1">
          <mxGeometry width="50" height="50" relative="1" as="geometry">
            <mxPoint x="580" y="380" as="sourcePoint" />
            <mxPoint x="630" y="330" as="targetPoint" />
            <Array as="points">
              <mxPoint x="580" y="330" />
            </Array>
          </mxGeometry>
        </mxCell>
        <mxCell id="roQAEabi5F3PTRrzKzNt-6" value="" style="aspect=fixed;html=1;points=[];align=center;image;fontSize=12;image=img/lib/azure2/databases/Azure_Cosmos_DB.svg;" vertex="1" parent="1">
          <mxGeometry x="630" y="300" width="50" height="50" as="geometry" />
        </mxCell>
        <mxCell id="roQAEabi5F3PTRrzKzNt-8" value="&lt;b&gt;&lt;font style=&quot;font-size: 14px&quot;&gt;Azure Cosmos DB&lt;/font&gt;&lt;/b&gt;" style="text;html=1;align=center;verticalAlign=middle;resizable=0;points=[];autosize=1;strokeColor=none;" vertex="1" parent="1">
          <mxGeometry x="645" y="283" width="140" height="20" as="geometry" />
        </mxCell>
        <mxCell id="roQAEabi5F3PTRrzKzNt-9" value="" style="aspect=fixed;html=1;points=[];align=center;image;fontSize=12;image=img/lib/azure2/management_governance/Application_Insights.svg;" vertex="1" parent="1">
          <mxGeometry x="520" y="280" width="20.95" height="30" as="geometry" />
        </mxCell>
        <mxCell id="roQAEabi5F3PTRrzKzNt-10" value="&lt;b&gt;&lt;font style=&quot;font-size: 14px&quot;&gt;Application&lt;br&gt;Insights&lt;/font&gt;&lt;/b&gt;" style="text;html=1;align=center;verticalAlign=middle;resizable=0;points=[];autosize=1;strokeColor=none;" vertex="1" parent="1">
          <mxGeometry x="440" y="260" width="90" height="40" as="geometry" />
        </mxCell>
      </root>
    </mxGraphModel>
  </diagram>
</mxfile>
